G04 #@! TF.GenerationSoftware,KiCad,Pcbnew,7.0.11-7.0.11~ubuntu22.04.1*
G04 #@! TF.CreationDate,2024-10-29T07:47:49+09:00*
G04 #@! TF.ProjectId,Akashi-19,416b6173-6869-42d3-9139-2e6b69636164,rev?*
G04 #@! TF.SameCoordinates,Original*
G04 #@! TF.FileFunction,Soldermask,Top*
G04 #@! TF.FilePolarity,Negative*
%FSLAX46Y46*%
G04 Gerber Fmt 4.6, Leading zero omitted, Abs format (unit mm)*
G04 Created by KiCad (PCBNEW 7.0.11-7.0.11~ubuntu22.04.1) date 2024-10-29 07:47:49*
%MOMM*%
%LPD*%
G01*
G04 APERTURE LIST*
G04 Aperture macros list*
%AMRoundRect*
0 Rectangle with rounded corners*
0 $1 Rounding radius*
0 $2 $3 $4 $5 $6 $7 $8 $9 X,Y pos of 4 corners*
0 Add a 4 corners polygon primitive as box body*
4,1,4,$2,$3,$4,$5,$6,$7,$8,$9,$2,$3,0*
0 Add four circle primitives for the rounded corners*
1,1,$1+$1,$2,$3*
1,1,$1+$1,$4,$5*
1,1,$1+$1,$6,$7*
1,1,$1+$1,$8,$9*
0 Add four rect primitives between the rounded corners*
20,1,$1+$1,$2,$3,$4,$5,0*
20,1,$1+$1,$4,$5,$6,$7,0*
20,1,$1+$1,$6,$7,$8,$9,0*
20,1,$1+$1,$8,$9,$2,$3,0*%
G04 Aperture macros list end*
%ADD10C,5.500000*%
%ADD11R,1.700000X1.700000*%
%ADD12O,1.700000X1.700000*%
%ADD13C,1.700000*%
%ADD14O,1.800000X1.800000*%
%ADD15O,1.500000X1.500000*%
%ADD16R,3.500000X1.700000*%
%ADD17R,1.700000X3.500000*%
%ADD18RoundRect,0.101600X0.300000X0.675000X-0.300000X0.675000X-0.300000X-0.675000X0.300000X-0.675000X0*%
%ADD19RoundRect,0.101600X0.600000X1.000000X-0.600000X1.000000X-0.600000X-1.000000X0.600000X-1.000000X0*%
%ADD20R,1.524000X1.524000*%
%ADD21C,1.524000*%
G04 APERTURE END LIST*
D10*
X207010000Y-57150000D03*
X102870000Y-57150000D03*
X102870000Y-143510000D03*
X207010000Y-143510000D03*
D11*
X129540000Y-129540000D03*
D12*
X132080000Y-129540000D03*
X134620000Y-129540000D03*
X137160000Y-129540000D03*
X139700000Y-129540000D03*
X142240000Y-129540000D03*
X144780000Y-129540000D03*
X147320000Y-129540000D03*
X149860000Y-129540000D03*
X152400000Y-129540000D03*
X154940000Y-129540000D03*
X157480000Y-129540000D03*
X160020000Y-129540000D03*
X162560000Y-129540000D03*
X165100000Y-129540000D03*
X167640000Y-129540000D03*
X170180000Y-129540000D03*
X172720000Y-129540000D03*
X175260000Y-129540000D03*
X177800000Y-129540000D03*
D11*
X113590000Y-137160000D03*
D13*
X120090000Y-137160000D03*
X113590000Y-141660000D03*
X120090000Y-141660000D03*
D11*
X129540000Y-71120000D03*
D12*
X132080000Y-71120000D03*
X134620000Y-71120000D03*
X137160000Y-71120000D03*
X139700000Y-71120000D03*
X142240000Y-71120000D03*
X144780000Y-71120000D03*
X147320000Y-71120000D03*
X149860000Y-71120000D03*
X152400000Y-71120000D03*
X154940000Y-71120000D03*
X157480000Y-71120000D03*
X160020000Y-71120000D03*
X162560000Y-71120000D03*
X165100000Y-71120000D03*
X167640000Y-71120000D03*
X170180000Y-71120000D03*
X172720000Y-71120000D03*
X175260000Y-71120000D03*
X177800000Y-71120000D03*
D14*
X109035000Y-76330000D03*
D15*
X109335000Y-79360000D03*
X114185000Y-79360000D03*
D14*
X114485000Y-76330000D03*
D12*
X102870000Y-76200000D03*
D16*
X101970000Y-76200000D03*
D12*
X102870000Y-78740000D03*
D16*
X101970000Y-78740000D03*
D11*
X102870000Y-81280000D03*
D16*
X101970000Y-81280000D03*
D12*
X102870000Y-83820000D03*
D16*
X101970000Y-83820000D03*
D12*
X102870000Y-86360000D03*
D16*
X101970000Y-86360000D03*
D12*
X102870000Y-88900000D03*
D16*
X101970000Y-88900000D03*
D12*
X102870000Y-91440000D03*
D16*
X101970000Y-91440000D03*
D11*
X102870000Y-93980000D03*
D16*
X101970000Y-93980000D03*
D12*
X102870000Y-96520000D03*
D16*
X101970000Y-96520000D03*
D12*
X102870000Y-99060000D03*
D16*
X101970000Y-99060000D03*
D12*
X102870000Y-101600000D03*
D16*
X101970000Y-101600000D03*
D12*
X102870000Y-104140000D03*
D16*
X101970000Y-104140000D03*
D11*
X102870000Y-106680000D03*
D16*
X101970000Y-106680000D03*
D12*
X102870000Y-109220000D03*
D16*
X101970000Y-109220000D03*
D12*
X102870000Y-111760000D03*
D16*
X101970000Y-111760000D03*
D12*
X102870000Y-114300000D03*
D16*
X101970000Y-114300000D03*
D12*
X102870000Y-116840000D03*
D16*
X101970000Y-116840000D03*
D11*
X102870000Y-119380000D03*
D16*
X101970000Y-119380000D03*
D12*
X102870000Y-121920000D03*
D16*
X101970000Y-121920000D03*
D12*
X102870000Y-124460000D03*
D16*
X101970000Y-124460000D03*
D12*
X120650000Y-124460000D03*
D16*
X121550000Y-124460000D03*
D12*
X120650000Y-121920000D03*
D16*
X121550000Y-121920000D03*
D11*
X120650000Y-119380000D03*
D16*
X121550000Y-119380000D03*
D12*
X120650000Y-116840000D03*
D16*
X121550000Y-116840000D03*
D12*
X120650000Y-114300000D03*
D16*
X121550000Y-114300000D03*
D12*
X120650000Y-111760000D03*
D16*
X121550000Y-111760000D03*
D12*
X120650000Y-109220000D03*
D16*
X121550000Y-109220000D03*
D11*
X120650000Y-106680000D03*
D16*
X121550000Y-106680000D03*
D12*
X120650000Y-104140000D03*
D16*
X121550000Y-104140000D03*
D12*
X120650000Y-101600000D03*
D16*
X121550000Y-101600000D03*
D12*
X120650000Y-99060000D03*
D16*
X121550000Y-99060000D03*
D12*
X120650000Y-96520000D03*
D16*
X121550000Y-96520000D03*
D11*
X120650000Y-93980000D03*
D16*
X121550000Y-93980000D03*
D12*
X120650000Y-91440000D03*
D16*
X121550000Y-91440000D03*
D12*
X120650000Y-88900000D03*
D16*
X121550000Y-88900000D03*
D12*
X120650000Y-86360000D03*
D16*
X121550000Y-86360000D03*
D12*
X120650000Y-83820000D03*
D16*
X121550000Y-83820000D03*
D11*
X120650000Y-81280000D03*
D16*
X121550000Y-81280000D03*
D12*
X120650000Y-78740000D03*
D16*
X121550000Y-78740000D03*
D12*
X120650000Y-76200000D03*
D16*
X121550000Y-76200000D03*
D12*
X109220000Y-124230000D03*
D17*
X109220000Y-125130000D03*
D11*
X111760000Y-124230000D03*
D17*
X111760000Y-125130000D03*
D12*
X114300000Y-124230000D03*
D17*
X114300000Y-125130000D03*
D11*
X185420000Y-63500000D03*
D12*
X187960000Y-63500000D03*
X190500000Y-63500000D03*
X193040000Y-63500000D03*
X195580000Y-63500000D03*
X198120000Y-63500000D03*
D18*
X138920000Y-58285000D03*
X137920000Y-58285000D03*
X136920000Y-58285000D03*
X135920000Y-58285000D03*
D19*
X134620000Y-54610000D03*
X140220000Y-54610000D03*
D20*
X128000000Y-58420000D03*
D21*
X126000000Y-58420000D03*
X124000000Y-58420000D03*
X122000000Y-58420000D03*
M02*
