G04 #@! TF.GenerationSoftware,KiCad,Pcbnew,7.0.11-7.0.11~ubuntu22.04.1*
G04 #@! TF.CreationDate,2024-10-29T07:47:49+09:00*
G04 #@! TF.ProjectId,Akashi-19,416b6173-6869-42d3-9139-2e6b69636164,rev?*
G04 #@! TF.SameCoordinates,Original*
G04 #@! TF.FileFunction,Copper,L1,Top*
G04 #@! TF.FilePolarity,Positive*
%FSLAX46Y46*%
G04 Gerber Fmt 4.6, Leading zero omitted, Abs format (unit mm)*
G04 Created by KiCad (PCBNEW 7.0.11-7.0.11~ubuntu22.04.1) date 2024-10-29 07:47:49*
%MOMM*%
%LPD*%
G01*
G04 APERTURE LIST*
G04 #@! TA.AperFunction,ComponentPad*
%ADD10C,5.500000*%
G04 #@! TD*
G04 #@! TA.AperFunction,ComponentPad*
%ADD11R,1.700000X1.700000*%
G04 #@! TD*
G04 #@! TA.AperFunction,ComponentPad*
%ADD12O,1.700000X1.700000*%
G04 #@! TD*
G04 #@! TA.AperFunction,ComponentPad*
%ADD13C,1.700000*%
G04 #@! TD*
G04 #@! TA.AperFunction,SMDPad,CuDef*
%ADD14R,3.500000X1.700000*%
G04 #@! TD*
G04 #@! TA.AperFunction,SMDPad,CuDef*
%ADD15R,1.700000X3.500000*%
G04 #@! TD*
G04 #@! TA.AperFunction,SMDPad,CuDef*
%ADD16R,0.600000X1.350000*%
G04 #@! TD*
G04 #@! TA.AperFunction,SMDPad,CuDef*
%ADD17R,1.200000X2.000000*%
G04 #@! TD*
G04 #@! TA.AperFunction,ComponentPad*
%ADD18R,1.524000X1.524000*%
G04 #@! TD*
G04 #@! TA.AperFunction,ComponentPad*
%ADD19C,1.524000*%
G04 #@! TD*
G04 #@! TA.AperFunction,ViaPad*
%ADD20C,0.600000*%
G04 #@! TD*
G04 #@! TA.AperFunction,Conductor*
%ADD21C,0.200000*%
G04 #@! TD*
G04 #@! TA.AperFunction,Conductor*
%ADD22C,0.500000*%
G04 #@! TD*
G04 APERTURE END LIST*
D10*
X207010000Y-57150000D03*
X102870000Y-57150000D03*
X102870000Y-143510000D03*
X207010000Y-143510000D03*
D11*
X129540000Y-129540000D03*
D12*
X132080000Y-129540000D03*
X134620000Y-129540000D03*
X137160000Y-129540000D03*
X139700000Y-129540000D03*
X142240000Y-129540000D03*
X144780000Y-129540000D03*
X147320000Y-129540000D03*
X149860000Y-129540000D03*
X152400000Y-129540000D03*
X154940000Y-129540000D03*
X157480000Y-129540000D03*
X160020000Y-129540000D03*
X162560000Y-129540000D03*
X165100000Y-129540000D03*
X167640000Y-129540000D03*
X170180000Y-129540000D03*
X172720000Y-129540000D03*
X175260000Y-129540000D03*
X177800000Y-129540000D03*
D11*
X113590000Y-137160000D03*
D13*
X120090000Y-137160000D03*
X113590000Y-141660000D03*
X120090000Y-141660000D03*
D11*
X129540000Y-71120000D03*
D12*
X132080000Y-71120000D03*
X134620000Y-71120000D03*
X137160000Y-71120000D03*
X139700000Y-71120000D03*
X142240000Y-71120000D03*
X144780000Y-71120000D03*
X147320000Y-71120000D03*
X149860000Y-71120000D03*
X152400000Y-71120000D03*
X154940000Y-71120000D03*
X157480000Y-71120000D03*
X160020000Y-71120000D03*
X162560000Y-71120000D03*
X165100000Y-71120000D03*
X167640000Y-71120000D03*
X170180000Y-71120000D03*
X172720000Y-71120000D03*
X175260000Y-71120000D03*
X177800000Y-71120000D03*
X102870000Y-76200000D03*
D14*
X101970000Y-76200000D03*
D12*
X102870000Y-78740000D03*
D14*
X101970000Y-78740000D03*
D11*
X102870000Y-81280000D03*
D14*
X101970000Y-81280000D03*
D12*
X102870000Y-83820000D03*
D14*
X101970000Y-83820000D03*
D12*
X102870000Y-86360000D03*
D14*
X101970000Y-86360000D03*
D12*
X102870000Y-88900000D03*
D14*
X101970000Y-88900000D03*
D12*
X102870000Y-91440000D03*
D14*
X101970000Y-91440000D03*
D11*
X102870000Y-93980000D03*
D14*
X101970000Y-93980000D03*
D12*
X102870000Y-96520000D03*
D14*
X101970000Y-96520000D03*
D12*
X102870000Y-99060000D03*
D14*
X101970000Y-99060000D03*
D12*
X102870000Y-101600000D03*
D14*
X101970000Y-101600000D03*
D12*
X102870000Y-104140000D03*
D14*
X101970000Y-104140000D03*
D11*
X102870000Y-106680000D03*
D14*
X101970000Y-106680000D03*
D12*
X102870000Y-109220000D03*
D14*
X101970000Y-109220000D03*
D12*
X102870000Y-111760000D03*
D14*
X101970000Y-111760000D03*
D12*
X102870000Y-114300000D03*
D14*
X101970000Y-114300000D03*
D12*
X102870000Y-116840000D03*
D14*
X101970000Y-116840000D03*
D11*
X102870000Y-119380000D03*
D14*
X101970000Y-119380000D03*
D12*
X102870000Y-121920000D03*
D14*
X101970000Y-121920000D03*
D12*
X102870000Y-124460000D03*
D14*
X101970000Y-124460000D03*
D12*
X120650000Y-124460000D03*
D14*
X121550000Y-124460000D03*
D12*
X120650000Y-121920000D03*
D14*
X121550000Y-121920000D03*
D11*
X120650000Y-119380000D03*
D14*
X121550000Y-119380000D03*
D12*
X120650000Y-116840000D03*
D14*
X121550000Y-116840000D03*
D12*
X120650000Y-114300000D03*
D14*
X121550000Y-114300000D03*
D12*
X120650000Y-111760000D03*
D14*
X121550000Y-111760000D03*
D12*
X120650000Y-109220000D03*
D14*
X121550000Y-109220000D03*
D11*
X120650000Y-106680000D03*
D14*
X121550000Y-106680000D03*
D12*
X120650000Y-104140000D03*
D14*
X121550000Y-104140000D03*
D12*
X120650000Y-101600000D03*
D14*
X121550000Y-101600000D03*
D12*
X120650000Y-99060000D03*
D14*
X121550000Y-99060000D03*
D12*
X120650000Y-96520000D03*
D14*
X121550000Y-96520000D03*
D11*
X120650000Y-93980000D03*
D14*
X121550000Y-93980000D03*
D12*
X120650000Y-91440000D03*
D14*
X121550000Y-91440000D03*
D12*
X120650000Y-88900000D03*
D14*
X121550000Y-88900000D03*
D12*
X120650000Y-86360000D03*
D14*
X121550000Y-86360000D03*
D12*
X120650000Y-83820000D03*
D14*
X121550000Y-83820000D03*
D11*
X120650000Y-81280000D03*
D14*
X121550000Y-81280000D03*
D12*
X120650000Y-78740000D03*
D14*
X121550000Y-78740000D03*
D12*
X120650000Y-76200000D03*
D14*
X121550000Y-76200000D03*
D12*
X109220000Y-124230000D03*
D15*
X109220000Y-125130000D03*
D11*
X111760000Y-124230000D03*
D15*
X111760000Y-125130000D03*
D12*
X114300000Y-124230000D03*
D15*
X114300000Y-125130000D03*
D11*
X185420000Y-63500000D03*
D12*
X187960000Y-63500000D03*
X190500000Y-63500000D03*
X193040000Y-63500000D03*
X195580000Y-63500000D03*
X198120000Y-63500000D03*
D16*
X138920000Y-58285000D03*
X137920000Y-58285000D03*
X136920000Y-58285000D03*
X135920000Y-58285000D03*
D17*
X134620000Y-54610000D03*
X140220000Y-54610000D03*
D18*
X128000000Y-58420000D03*
D19*
X126000000Y-58420000D03*
X124000000Y-58420000D03*
X122000000Y-58420000D03*
D20*
X135890000Y-62230000D03*
X106680000Y-90170000D03*
X106680000Y-62230000D03*
X128000000Y-62230000D03*
X182880000Y-90170000D03*
X125984000Y-61595000D03*
X136906000Y-61595000D03*
X106045000Y-61595000D03*
X106045000Y-87630000D03*
X182880000Y-87630000D03*
X182880000Y-82550000D03*
X182880000Y-74930000D03*
X195580000Y-74930000D03*
X113030000Y-131445000D03*
X113030000Y-101600000D03*
X107950000Y-81280000D03*
X182880000Y-85090000D03*
X182880000Y-95250000D03*
X182880000Y-97790000D03*
X182880000Y-100330000D03*
X182880000Y-102870000D03*
X182880000Y-107950000D03*
X182880000Y-110490000D03*
X182880000Y-113030000D03*
X182880000Y-115570000D03*
X182880000Y-120650000D03*
X182880000Y-123190000D03*
X182880000Y-77470000D03*
X193040000Y-77470000D03*
D21*
X144780000Y-128270000D02*
X182880000Y-90170000D01*
X128000000Y-62230000D02*
X128000000Y-58420000D01*
X144780000Y-129540000D02*
X144780000Y-128270000D01*
X106680000Y-62230000D02*
X106680000Y-90170000D01*
X135890000Y-62230000D02*
X135920000Y-62200000D01*
X135920000Y-62200000D02*
X135920000Y-58285000D01*
X127889000Y-62230000D02*
X127920000Y-62199000D01*
X125984000Y-61595000D02*
X126000000Y-61579000D01*
X106045000Y-61595000D02*
X106045000Y-87630000D01*
X142240000Y-129540000D02*
X142240000Y-128270000D01*
X136906000Y-61595000D02*
X136920000Y-58285000D01*
X142240000Y-128270000D02*
X182880000Y-87630000D01*
X126000000Y-61579000D02*
X126000000Y-58420000D01*
X137160000Y-71120000D02*
X137160000Y-72390000D01*
X137160000Y-72390000D02*
X125730000Y-83820000D01*
X125730000Y-83820000D02*
X120650000Y-83820000D01*
X137160000Y-128270000D02*
X182880000Y-82550000D01*
X137160000Y-129540000D02*
X137160000Y-128270000D01*
D22*
X128270000Y-64770000D02*
X125730000Y-64770000D01*
X125730000Y-76200000D02*
X120650000Y-76200000D01*
X129540000Y-71120000D02*
X129540000Y-72390000D01*
X129540000Y-72390000D02*
X125730000Y-76200000D01*
X125730000Y-64770000D02*
X124000000Y-63040000D01*
X129540000Y-66040000D02*
X128270000Y-64770000D01*
X123825000Y-58515000D02*
X123920000Y-58420000D01*
X124000000Y-63040000D02*
X124000000Y-58420000D01*
X129540000Y-71120000D02*
X129540000Y-66040000D01*
D21*
X129540000Y-128270000D02*
X182880000Y-74930000D01*
X129540000Y-129540000D02*
X129540000Y-128270000D01*
X195580000Y-74930000D02*
X195580000Y-64065000D01*
X149860000Y-71120000D02*
X149860000Y-72390000D01*
X149860000Y-72390000D02*
X125730000Y-96520000D01*
X125730000Y-96520000D02*
X120650000Y-96520000D01*
X125730000Y-99060000D02*
X120650000Y-99060000D01*
X152400000Y-72390000D02*
X125730000Y-99060000D01*
X152400000Y-71120000D02*
X152400000Y-72390000D01*
X154940000Y-71120000D02*
X154940000Y-72390000D01*
X113030000Y-101600000D02*
X113030000Y-131445000D01*
X125730000Y-101600000D02*
X120650000Y-101600000D01*
X154940000Y-72390000D02*
X125730000Y-101600000D01*
X113590000Y-137160000D02*
X120090000Y-137160000D01*
X157480000Y-72390000D02*
X125730000Y-104140000D01*
X157480000Y-71120000D02*
X157480000Y-72390000D01*
X125730000Y-104140000D02*
X120650000Y-104140000D01*
X125730000Y-109220000D02*
X120650000Y-109220000D01*
X162560000Y-72390000D02*
X125730000Y-109220000D01*
X162560000Y-71120000D02*
X162560000Y-72390000D01*
X125730000Y-111760000D02*
X120650000Y-111760000D01*
X165100000Y-72390000D02*
X125730000Y-111760000D01*
X165100000Y-71120000D02*
X165100000Y-72390000D01*
X125730000Y-114300000D02*
X120650000Y-114300000D01*
X167640000Y-72390000D02*
X125730000Y-114300000D01*
X167640000Y-71120000D02*
X167640000Y-72390000D01*
X125730000Y-116840000D02*
X120650000Y-116840000D01*
X170180000Y-72390000D02*
X125730000Y-116840000D01*
X170180000Y-71120000D02*
X170180000Y-72390000D01*
X175260000Y-71120000D02*
X175260000Y-72390000D01*
X175260000Y-72390000D02*
X125730000Y-121920000D01*
X125730000Y-121920000D02*
X120650000Y-121920000D01*
X177800000Y-71120000D02*
X177800000Y-72390000D01*
X125730000Y-124460000D02*
X120650000Y-124460000D01*
X177800000Y-72390000D02*
X125730000Y-124460000D01*
X139700000Y-129540000D02*
X139700000Y-128270000D01*
X139700000Y-128270000D02*
X182880000Y-85090000D01*
X149860000Y-128270000D02*
X182880000Y-95250000D01*
X149860000Y-129540000D02*
X149860000Y-128270000D01*
X182880000Y-97790000D02*
X152400000Y-128270000D01*
X152400000Y-128270000D02*
X152400000Y-129540000D01*
X182880000Y-100330000D02*
X154940000Y-128270000D01*
X154940000Y-128270000D02*
X154940000Y-129540000D01*
X157480000Y-128270000D02*
X182880000Y-102870000D01*
X157480000Y-129540000D02*
X157480000Y-128270000D01*
X162560000Y-128270000D02*
X182880000Y-107950000D01*
X162560000Y-129540000D02*
X162560000Y-128270000D01*
X182880000Y-110490000D02*
X165100000Y-128270000D01*
X165100000Y-128270000D02*
X165100000Y-129540000D01*
X182880000Y-113030000D02*
X167640000Y-128270000D01*
X167640000Y-128270000D02*
X167640000Y-129540000D01*
X170180000Y-129540000D02*
X170180000Y-128270000D01*
X170180000Y-128270000D02*
X182880000Y-115570000D01*
X175260000Y-129540000D02*
X175260000Y-128270000D01*
X175260000Y-128270000D02*
X182880000Y-120650000D01*
X177800000Y-129540000D02*
X177800000Y-128270000D01*
X177800000Y-128270000D02*
X182880000Y-123190000D01*
D22*
X125730000Y-78740000D02*
X120650000Y-78740000D01*
X132080000Y-72390000D02*
X125730000Y-78740000D01*
X132080000Y-71120000D02*
X132080000Y-72390000D01*
X139700000Y-66040000D02*
X137920000Y-64260000D01*
X139700000Y-72390000D02*
X125730000Y-86360000D01*
X137920000Y-64260000D02*
X137920000Y-58285000D01*
X125730000Y-86360000D02*
X120650000Y-86360000D01*
X139700000Y-71120000D02*
X139700000Y-66040000D01*
X139700000Y-71120000D02*
X139700000Y-72390000D01*
D21*
X142240000Y-71120000D02*
X142240000Y-72390000D01*
X142240000Y-72390000D02*
X125730000Y-88900000D01*
X125730000Y-88900000D02*
X120650000Y-88900000D01*
X144780000Y-71120000D02*
X144780000Y-72715686D01*
X126055686Y-91440000D02*
X120650000Y-91440000D01*
X144780000Y-72715686D02*
X126055686Y-91440000D01*
X193040000Y-77470000D02*
X193040000Y-64065000D01*
X132080000Y-129540000D02*
X132080000Y-128270000D01*
X132080000Y-128270000D02*
X182880000Y-77470000D01*
G04 #@! TA.AperFunction,Conductor*
G36*
X172970000Y-72450633D02*
G01*
X173183483Y-72393433D01*
X173183492Y-72393429D01*
X173397578Y-72293600D01*
X173591082Y-72158105D01*
X173758105Y-71991082D01*
X173888119Y-71805405D01*
X173942696Y-71761781D01*
X174012195Y-71754588D01*
X174074549Y-71786110D01*
X174091269Y-71805405D01*
X174221505Y-71991401D01*
X174388599Y-72158495D01*
X174402347Y-72168121D01*
X174416747Y-72178205D01*
X174460371Y-72232783D01*
X174467563Y-72302282D01*
X174436040Y-72364636D01*
X174433303Y-72367460D01*
X125517584Y-121283181D01*
X125456261Y-121316666D01*
X125429903Y-121319500D01*
X123924499Y-121319500D01*
X123857460Y-121299815D01*
X123811705Y-121247011D01*
X123800499Y-121195500D01*
X123800499Y-121022129D01*
X123800498Y-121022123D01*
X123800497Y-121022116D01*
X123794091Y-120962517D01*
X123744385Y-120829249D01*
X123743797Y-120827671D01*
X123743795Y-120827668D01*
X123666109Y-120723893D01*
X123641692Y-120658430D01*
X123656543Y-120590157D01*
X123666110Y-120575271D01*
X123743352Y-120472089D01*
X123743354Y-120472086D01*
X123793596Y-120337379D01*
X123793598Y-120337372D01*
X123799999Y-120277844D01*
X123800000Y-120277827D01*
X123800000Y-119630000D01*
X121095572Y-119630000D01*
X121118682Y-119594040D01*
X121160000Y-119453327D01*
X121160000Y-119306673D01*
X121118682Y-119165960D01*
X121095572Y-119130000D01*
X123800000Y-119130000D01*
X123800000Y-118482172D01*
X123799999Y-118482155D01*
X123793598Y-118422627D01*
X123793596Y-118422620D01*
X123743354Y-118287913D01*
X123743352Y-118287910D01*
X123666110Y-118184729D01*
X123641692Y-118119265D01*
X123656543Y-118050992D01*
X123666105Y-118036111D01*
X123743796Y-117932331D01*
X123794091Y-117797483D01*
X123800500Y-117737873D01*
X123800500Y-117564500D01*
X123820185Y-117497461D01*
X123872989Y-117451706D01*
X123924500Y-117440500D01*
X125682513Y-117440500D01*
X125698697Y-117441560D01*
X125730000Y-117445682D01*
X125730001Y-117445682D01*
X125782254Y-117438802D01*
X125886762Y-117425044D01*
X126032841Y-117364536D01*
X126112172Y-117303663D01*
X126158282Y-117268282D01*
X126177509Y-117243223D01*
X126188190Y-117231043D01*
X170571043Y-72848190D01*
X170583223Y-72837509D01*
X170608282Y-72818282D01*
X170704536Y-72692841D01*
X170765044Y-72546762D01*
X170780500Y-72429361D01*
X170785544Y-72391047D01*
X170813810Y-72327151D01*
X170853286Y-72296986D01*
X170853144Y-72296740D01*
X170855047Y-72295641D01*
X170856083Y-72294849D01*
X170857830Y-72294035D01*
X170858452Y-72293600D01*
X170930501Y-72243150D01*
X171051401Y-72158495D01*
X171218495Y-71991401D01*
X171348730Y-71805405D01*
X171403307Y-71761781D01*
X171472805Y-71754587D01*
X171535160Y-71786110D01*
X171551879Y-71805405D01*
X171681890Y-71991078D01*
X171848917Y-72158105D01*
X172042421Y-72293600D01*
X172256507Y-72393429D01*
X172256516Y-72393433D01*
X172470000Y-72450634D01*
X172470000Y-71555501D01*
X172577685Y-71604680D01*
X172684237Y-71620000D01*
X172755763Y-71620000D01*
X172862315Y-71604680D01*
X172970000Y-71555501D01*
X172970000Y-72450633D01*
G37*
G04 #@! TD.AperFunction*
G04 #@! TA.AperFunction,Conductor*
G36*
X160270000Y-72450633D02*
G01*
X160483483Y-72393433D01*
X160483492Y-72393429D01*
X160697578Y-72293600D01*
X160891082Y-72158105D01*
X161058105Y-71991082D01*
X161188119Y-71805405D01*
X161242696Y-71761781D01*
X161312195Y-71754588D01*
X161374549Y-71786110D01*
X161391269Y-71805405D01*
X161521505Y-71991401D01*
X161688599Y-72158495D01*
X161702347Y-72168121D01*
X161716747Y-72178205D01*
X161760371Y-72232783D01*
X161767563Y-72302282D01*
X161736040Y-72364636D01*
X161733303Y-72367460D01*
X125517584Y-108583181D01*
X125456261Y-108616666D01*
X125429903Y-108619500D01*
X123924499Y-108619500D01*
X123857460Y-108599815D01*
X123811705Y-108547011D01*
X123800499Y-108495500D01*
X123800499Y-108322129D01*
X123800498Y-108322123D01*
X123800497Y-108322116D01*
X123794091Y-108262517D01*
X123744385Y-108129249D01*
X123743797Y-108127671D01*
X123743795Y-108127668D01*
X123666109Y-108023893D01*
X123641692Y-107958430D01*
X123656543Y-107890157D01*
X123666110Y-107875271D01*
X123743352Y-107772089D01*
X123743354Y-107772086D01*
X123793596Y-107637379D01*
X123793598Y-107637372D01*
X123799999Y-107577844D01*
X123800000Y-107577827D01*
X123800000Y-106930000D01*
X121095572Y-106930000D01*
X121118682Y-106894040D01*
X121160000Y-106753327D01*
X121160000Y-106606673D01*
X121118682Y-106465960D01*
X121095572Y-106430000D01*
X123800000Y-106430000D01*
X123800000Y-105782172D01*
X123799999Y-105782155D01*
X123793598Y-105722627D01*
X123793596Y-105722620D01*
X123743354Y-105587913D01*
X123743352Y-105587910D01*
X123666110Y-105484729D01*
X123641692Y-105419265D01*
X123656543Y-105350992D01*
X123666105Y-105336111D01*
X123743796Y-105232331D01*
X123794091Y-105097483D01*
X123800500Y-105037873D01*
X123800500Y-104864500D01*
X123820185Y-104797461D01*
X123872989Y-104751706D01*
X123924500Y-104740500D01*
X125682513Y-104740500D01*
X125698697Y-104741560D01*
X125730000Y-104745682D01*
X125730001Y-104745682D01*
X125782254Y-104738802D01*
X125886762Y-104725044D01*
X126032841Y-104664536D01*
X126112172Y-104603663D01*
X126158282Y-104568282D01*
X126177509Y-104543223D01*
X126188190Y-104531043D01*
X157871043Y-72848190D01*
X157883223Y-72837509D01*
X157908282Y-72818282D01*
X158004536Y-72692841D01*
X158065044Y-72546762D01*
X158080500Y-72429361D01*
X158085544Y-72391047D01*
X158113810Y-72327151D01*
X158153286Y-72296986D01*
X158153144Y-72296740D01*
X158155047Y-72295641D01*
X158156083Y-72294849D01*
X158157830Y-72294035D01*
X158158452Y-72293600D01*
X158230501Y-72243150D01*
X158351401Y-72158495D01*
X158518495Y-71991401D01*
X158648730Y-71805405D01*
X158703307Y-71761781D01*
X158772805Y-71754587D01*
X158835160Y-71786110D01*
X158851879Y-71805405D01*
X158981890Y-71991078D01*
X159148917Y-72158105D01*
X159342421Y-72293600D01*
X159556507Y-72393429D01*
X159556516Y-72393433D01*
X159770000Y-72450634D01*
X159770000Y-71555501D01*
X159877685Y-71604680D01*
X159984237Y-71620000D01*
X160055763Y-71620000D01*
X160162315Y-71604680D01*
X160270000Y-71555501D01*
X160270000Y-72450633D01*
G37*
G04 #@! TD.AperFunction*
G04 #@! TA.AperFunction,Conductor*
G36*
X147570000Y-72450634D02*
G01*
X147783483Y-72393433D01*
X147783492Y-72393429D01*
X147997578Y-72293600D01*
X148191082Y-72158105D01*
X148358105Y-71991082D01*
X148488119Y-71805405D01*
X148542696Y-71761781D01*
X148612195Y-71754588D01*
X148674549Y-71786110D01*
X148691269Y-71805405D01*
X148821505Y-71991401D01*
X148988599Y-72158495D01*
X149002347Y-72168121D01*
X149016747Y-72178205D01*
X149060371Y-72232783D01*
X149067563Y-72302282D01*
X149036040Y-72364636D01*
X149033303Y-72367460D01*
X125517584Y-95883181D01*
X125456261Y-95916666D01*
X125429903Y-95919500D01*
X123924499Y-95919500D01*
X123857460Y-95899815D01*
X123811705Y-95847011D01*
X123800499Y-95795500D01*
X123800499Y-95622129D01*
X123800498Y-95622123D01*
X123800497Y-95622116D01*
X123794091Y-95562517D01*
X123744385Y-95429249D01*
X123743797Y-95427671D01*
X123743795Y-95427668D01*
X123666109Y-95323893D01*
X123641692Y-95258430D01*
X123656543Y-95190157D01*
X123666110Y-95175271D01*
X123743352Y-95072089D01*
X123743354Y-95072086D01*
X123793596Y-94937379D01*
X123793598Y-94937372D01*
X123799999Y-94877844D01*
X123800000Y-94877827D01*
X123800000Y-94230000D01*
X121095572Y-94230000D01*
X121118682Y-94194040D01*
X121160000Y-94053327D01*
X121160000Y-93906673D01*
X121118682Y-93765960D01*
X121095572Y-93730000D01*
X123800000Y-93730000D01*
X123800000Y-93082172D01*
X123799999Y-93082155D01*
X123793598Y-93022627D01*
X123793596Y-93022620D01*
X123743354Y-92887913D01*
X123743352Y-92887910D01*
X123666110Y-92784729D01*
X123641692Y-92719265D01*
X123656543Y-92650992D01*
X123666105Y-92636111D01*
X123743796Y-92532331D01*
X123794091Y-92397483D01*
X123800500Y-92337873D01*
X123800500Y-92164500D01*
X123820185Y-92097461D01*
X123872989Y-92051706D01*
X123924500Y-92040500D01*
X126008199Y-92040500D01*
X126024383Y-92041560D01*
X126055686Y-92045682D01*
X126055687Y-92045682D01*
X126107940Y-92038802D01*
X126212448Y-92025044D01*
X126358527Y-91964536D01*
X126437858Y-91903663D01*
X126483968Y-91868282D01*
X126503195Y-91843223D01*
X126513876Y-91831043D01*
X145171043Y-73173876D01*
X145183223Y-73163195D01*
X145208282Y-73143968D01*
X145304536Y-73018527D01*
X145365044Y-72872448D01*
X145380500Y-72755047D01*
X145385682Y-72715686D01*
X145382674Y-72692841D01*
X145381561Y-72684383D01*
X145380500Y-72668198D01*
X145380500Y-72409090D01*
X145400185Y-72342051D01*
X145452101Y-72296706D01*
X145457830Y-72294035D01*
X145651401Y-72158495D01*
X145818495Y-71991401D01*
X145948730Y-71805405D01*
X146003307Y-71761781D01*
X146072805Y-71754587D01*
X146135160Y-71786110D01*
X146151879Y-71805405D01*
X146281890Y-71991078D01*
X146448917Y-72158105D01*
X146642421Y-72293600D01*
X146856507Y-72393429D01*
X146856516Y-72393433D01*
X147070000Y-72450634D01*
X147070000Y-71555501D01*
X147177685Y-71604680D01*
X147284237Y-71620000D01*
X147355763Y-71620000D01*
X147462315Y-71604680D01*
X147570000Y-71555501D01*
X147570000Y-72450634D01*
G37*
G04 #@! TD.AperFunction*
G04 #@! TA.AperFunction,Conductor*
G36*
X134870000Y-72450634D02*
G01*
X135083483Y-72393433D01*
X135083492Y-72393429D01*
X135297578Y-72293600D01*
X135491082Y-72158105D01*
X135658105Y-71991082D01*
X135788119Y-71805405D01*
X135842696Y-71761781D01*
X135912195Y-71754588D01*
X135974549Y-71786110D01*
X135991269Y-71805405D01*
X136121505Y-71991401D01*
X136288599Y-72158495D01*
X136302347Y-72168121D01*
X136316747Y-72178205D01*
X136360371Y-72232783D01*
X136367563Y-72302282D01*
X136336040Y-72364636D01*
X136333303Y-72367460D01*
X125517584Y-83183181D01*
X125456261Y-83216666D01*
X125429903Y-83219500D01*
X123924499Y-83219500D01*
X123857460Y-83199815D01*
X123811705Y-83147011D01*
X123800499Y-83095500D01*
X123800499Y-82922129D01*
X123800498Y-82922123D01*
X123800497Y-82922116D01*
X123794091Y-82862517D01*
X123744385Y-82729249D01*
X123743797Y-82727671D01*
X123743795Y-82727668D01*
X123666109Y-82623893D01*
X123641692Y-82558430D01*
X123656543Y-82490157D01*
X123666110Y-82475271D01*
X123743352Y-82372089D01*
X123743354Y-82372086D01*
X123793596Y-82237379D01*
X123793598Y-82237372D01*
X123799999Y-82177844D01*
X123800000Y-82177827D01*
X123800000Y-81530000D01*
X121095572Y-81530000D01*
X121118682Y-81494040D01*
X121160000Y-81353327D01*
X121160000Y-81206673D01*
X121118682Y-81065960D01*
X121095572Y-81030000D01*
X123800000Y-81030000D01*
X123800000Y-80382172D01*
X123799999Y-80382155D01*
X123793598Y-80322627D01*
X123793596Y-80322620D01*
X123743354Y-80187913D01*
X123743352Y-80187910D01*
X123666110Y-80084729D01*
X123641692Y-80019265D01*
X123656543Y-79950992D01*
X123666105Y-79936111D01*
X123743796Y-79832331D01*
X123794091Y-79697483D01*
X123800500Y-79637873D01*
X123800500Y-79614500D01*
X123820185Y-79547461D01*
X123872989Y-79501706D01*
X123924500Y-79490500D01*
X125666295Y-79490500D01*
X125684265Y-79491809D01*
X125708023Y-79495289D01*
X125757369Y-79490971D01*
X125768176Y-79490500D01*
X125773704Y-79490500D01*
X125773709Y-79490500D01*
X125804556Y-79486893D01*
X125808030Y-79486539D01*
X125882797Y-79479999D01*
X125882805Y-79479996D01*
X125889866Y-79478539D01*
X125889878Y-79478598D01*
X125897243Y-79476965D01*
X125897229Y-79476906D01*
X125904249Y-79475241D01*
X125904255Y-79475241D01*
X125974779Y-79449572D01*
X125978117Y-79448412D01*
X126049334Y-79424814D01*
X126049342Y-79424808D01*
X126055882Y-79421760D01*
X126055908Y-79421816D01*
X126062690Y-79418532D01*
X126062663Y-79418478D01*
X126069113Y-79415238D01*
X126069117Y-79415237D01*
X126131837Y-79373984D01*
X126134732Y-79372140D01*
X126198656Y-79332712D01*
X126198662Y-79332705D01*
X126204325Y-79328229D01*
X126204362Y-79328277D01*
X126210204Y-79323518D01*
X126210164Y-79323471D01*
X126215686Y-79318835D01*
X126215696Y-79318830D01*
X126267185Y-79264253D01*
X126269632Y-79261734D01*
X132565638Y-72965727D01*
X132579267Y-72953950D01*
X132598530Y-72939610D01*
X132630366Y-72901669D01*
X132637683Y-72893684D01*
X132638993Y-72892372D01*
X132641590Y-72889777D01*
X132655293Y-72872446D01*
X132660811Y-72865467D01*
X132663094Y-72862664D01*
X132711301Y-72805215D01*
X132715272Y-72799179D01*
X132715323Y-72799212D01*
X132719372Y-72792856D01*
X132719320Y-72792824D01*
X132723108Y-72786680D01*
X132723111Y-72786677D01*
X132754821Y-72718673D01*
X132756362Y-72715488D01*
X132790040Y-72648433D01*
X132790043Y-72648417D01*
X132792509Y-72641646D01*
X132792567Y-72641667D01*
X132795043Y-72634546D01*
X132794986Y-72634527D01*
X132797256Y-72627677D01*
X132797257Y-72627672D01*
X132812433Y-72554168D01*
X132813194Y-72550734D01*
X132830500Y-72477721D01*
X132830500Y-72477719D01*
X132830501Y-72477715D01*
X132831339Y-72470548D01*
X132831397Y-72470554D01*
X132832164Y-72463056D01*
X132832104Y-72463051D01*
X132832733Y-72455860D01*
X132831561Y-72415589D01*
X132830552Y-72380889D01*
X132830500Y-72377283D01*
X132830500Y-72307700D01*
X132850185Y-72240661D01*
X132883375Y-72206126D01*
X132951401Y-72158495D01*
X133118495Y-71991401D01*
X133248730Y-71805405D01*
X133303307Y-71761781D01*
X133372805Y-71754587D01*
X133435160Y-71786110D01*
X133451879Y-71805405D01*
X133581890Y-71991078D01*
X133748917Y-72158105D01*
X133942421Y-72293600D01*
X134156507Y-72393429D01*
X134156516Y-72393433D01*
X134370000Y-72450634D01*
X134370000Y-71555501D01*
X134477685Y-71604680D01*
X134584237Y-71620000D01*
X134655763Y-71620000D01*
X134762315Y-71604680D01*
X134870000Y-71555501D01*
X134870000Y-72450634D01*
G37*
G04 #@! TD.AperFunction*
G04 #@! TA.AperFunction,Conductor*
G36*
X211398039Y-52724685D02*
G01*
X211443794Y-52777489D01*
X211455000Y-52829000D01*
X211455000Y-147831000D01*
X211435315Y-147898039D01*
X211382511Y-147943794D01*
X211331000Y-147955000D01*
X98549000Y-147955000D01*
X98481961Y-147935315D01*
X98436206Y-147882511D01*
X98425000Y-147831000D01*
X98425000Y-143510002D01*
X99615227Y-143510002D01*
X99634306Y-143861900D01*
X99634308Y-143861917D01*
X99691319Y-144209667D01*
X99691325Y-144209693D01*
X99785600Y-144549243D01*
X99785602Y-144549250D01*
X99916043Y-144876634D01*
X99916052Y-144876652D01*
X100081124Y-145188011D01*
X100278896Y-145479702D01*
X100401914Y-145624532D01*
X101572266Y-144454180D01*
X101735130Y-144644870D01*
X101925819Y-144807733D01*
X100752625Y-145980926D01*
X100752625Y-145980928D01*
X100762900Y-145990660D01*
X101043460Y-146203938D01*
X101043464Y-146203941D01*
X101345445Y-146385635D01*
X101665273Y-146533603D01*
X101999256Y-146646136D01*
X102343437Y-146721896D01*
X102693788Y-146759999D01*
X102693795Y-146760000D01*
X103046205Y-146760000D01*
X103046211Y-146759999D01*
X103396562Y-146721896D01*
X103740743Y-146646136D01*
X104074726Y-146533603D01*
X104394554Y-146385635D01*
X104696535Y-146203941D01*
X104696539Y-146203938D01*
X104977093Y-145990665D01*
X104977105Y-145990654D01*
X104987373Y-145980927D01*
X104987373Y-145980926D01*
X103814180Y-144807733D01*
X104004870Y-144644870D01*
X104167733Y-144454181D01*
X105338084Y-145624532D01*
X105338085Y-145624531D01*
X105461102Y-145479704D01*
X105658875Y-145188011D01*
X105823947Y-144876652D01*
X105823956Y-144876634D01*
X105954397Y-144549250D01*
X105954399Y-144549243D01*
X106048674Y-144209693D01*
X106048680Y-144209667D01*
X106105691Y-143861917D01*
X106105693Y-143861900D01*
X106124773Y-143510002D01*
X203755227Y-143510002D01*
X203774306Y-143861900D01*
X203774308Y-143861917D01*
X203831319Y-144209667D01*
X203831325Y-144209693D01*
X203925600Y-144549243D01*
X203925602Y-144549250D01*
X204056043Y-144876634D01*
X204056052Y-144876652D01*
X204221124Y-145188011D01*
X204418896Y-145479702D01*
X204541914Y-145624532D01*
X205712266Y-144454180D01*
X205875130Y-144644870D01*
X206065819Y-144807733D01*
X204892625Y-145980926D01*
X204892625Y-145980928D01*
X204902900Y-145990660D01*
X205183460Y-146203938D01*
X205183464Y-146203941D01*
X205485445Y-146385635D01*
X205805273Y-146533603D01*
X206139256Y-146646136D01*
X206483437Y-146721896D01*
X206833788Y-146759999D01*
X206833795Y-146760000D01*
X207186205Y-146760000D01*
X207186211Y-146759999D01*
X207536562Y-146721896D01*
X207880743Y-146646136D01*
X208214726Y-146533603D01*
X208534554Y-146385635D01*
X208836535Y-146203941D01*
X208836539Y-146203938D01*
X209117093Y-145990665D01*
X209117105Y-145990654D01*
X209127373Y-145980927D01*
X209127373Y-145980926D01*
X207954180Y-144807733D01*
X208144870Y-144644870D01*
X208307733Y-144454181D01*
X209478084Y-145624532D01*
X209478085Y-145624531D01*
X209601102Y-145479704D01*
X209798875Y-145188011D01*
X209963947Y-144876652D01*
X209963956Y-144876634D01*
X210094397Y-144549250D01*
X210094399Y-144549243D01*
X210188674Y-144209693D01*
X210188680Y-144209667D01*
X210245691Y-143861917D01*
X210245693Y-143861900D01*
X210264773Y-143510002D01*
X210264773Y-143509997D01*
X210245693Y-143158099D01*
X210245691Y-143158082D01*
X210188680Y-142810332D01*
X210188674Y-142810306D01*
X210094399Y-142470756D01*
X210094397Y-142470749D01*
X209963956Y-142143365D01*
X209963947Y-142143347D01*
X209798875Y-141831988D01*
X209601099Y-141540291D01*
X209478085Y-141395467D01*
X209478084Y-141395466D01*
X208307732Y-142565818D01*
X208144870Y-142375130D01*
X207954180Y-142212266D01*
X209127374Y-141039073D01*
X209127373Y-141039072D01*
X209117099Y-141029340D01*
X209117087Y-141029330D01*
X208836539Y-140816061D01*
X208836535Y-140816058D01*
X208534554Y-140634364D01*
X208214726Y-140486396D01*
X207880743Y-140373863D01*
X207536562Y-140298103D01*
X207186211Y-140260000D01*
X206833788Y-140260000D01*
X206483437Y-140298103D01*
X206139256Y-140373863D01*
X205805273Y-140486396D01*
X205485445Y-140634364D01*
X205183464Y-140816058D01*
X205183460Y-140816061D01*
X204902906Y-141029334D01*
X204892625Y-141039071D01*
X204892625Y-141039073D01*
X206065819Y-142212266D01*
X205875130Y-142375130D01*
X205712266Y-142565818D01*
X204541914Y-141395466D01*
X204541913Y-141395466D01*
X204418896Y-141540296D01*
X204221124Y-141831988D01*
X204056052Y-142143347D01*
X204056043Y-142143365D01*
X203925602Y-142470749D01*
X203925600Y-142470756D01*
X203831325Y-142810306D01*
X203831319Y-142810332D01*
X203774308Y-143158082D01*
X203774306Y-143158099D01*
X203755227Y-143509997D01*
X203755227Y-143510002D01*
X106124773Y-143510002D01*
X106124773Y-143509997D01*
X106105693Y-143158099D01*
X106105691Y-143158082D01*
X106048680Y-142810332D01*
X106048674Y-142810306D01*
X105954399Y-142470756D01*
X105954397Y-142470749D01*
X105823956Y-142143365D01*
X105823947Y-142143347D01*
X105658875Y-141831988D01*
X105542265Y-141660001D01*
X112234843Y-141660001D01*
X112255430Y-141895315D01*
X112255432Y-141895326D01*
X112316566Y-142123483D01*
X112316570Y-142123492D01*
X112416400Y-142337579D01*
X112416402Y-142337583D01*
X112475072Y-142421373D01*
X112475073Y-142421373D01*
X113106923Y-141789523D01*
X113130507Y-141869844D01*
X113208239Y-141990798D01*
X113316900Y-142084952D01*
X113447685Y-142144680D01*
X113457466Y-142146086D01*
X112828625Y-142774925D01*
X112912421Y-142833599D01*
X113126507Y-142933429D01*
X113126516Y-142933433D01*
X113354673Y-142994567D01*
X113354684Y-142994569D01*
X113589998Y-143015157D01*
X113590002Y-143015157D01*
X113825315Y-142994569D01*
X113825326Y-142994567D01*
X114053483Y-142933433D01*
X114053492Y-142933429D01*
X114267578Y-142833600D01*
X114267582Y-142833598D01*
X114351373Y-142774926D01*
X114351373Y-142774925D01*
X113722533Y-142146086D01*
X113732315Y-142144680D01*
X113863100Y-142084952D01*
X113971761Y-141990798D01*
X114049493Y-141869844D01*
X114073076Y-141789524D01*
X114704925Y-142421373D01*
X114704926Y-142421373D01*
X114763598Y-142337582D01*
X114763600Y-142337578D01*
X114863429Y-142123492D01*
X114863433Y-142123483D01*
X114924567Y-141895326D01*
X114924569Y-141895315D01*
X114945157Y-141660001D01*
X118734843Y-141660001D01*
X118755430Y-141895315D01*
X118755432Y-141895326D01*
X118816566Y-142123483D01*
X118816570Y-142123492D01*
X118916400Y-142337579D01*
X118916402Y-142337583D01*
X118975072Y-142421373D01*
X118975073Y-142421373D01*
X119606923Y-141789523D01*
X119630507Y-141869844D01*
X119708239Y-141990798D01*
X119816900Y-142084952D01*
X119947685Y-142144680D01*
X119957466Y-142146086D01*
X119328625Y-142774925D01*
X119412421Y-142833599D01*
X119626507Y-142933429D01*
X119626516Y-142933433D01*
X119854673Y-142994567D01*
X119854684Y-142994569D01*
X120089998Y-143015157D01*
X120090002Y-143015157D01*
X120325315Y-142994569D01*
X120325326Y-142994567D01*
X120553483Y-142933433D01*
X120553492Y-142933429D01*
X120767578Y-142833600D01*
X120767582Y-142833598D01*
X120851373Y-142774926D01*
X120851373Y-142774925D01*
X120222533Y-142146086D01*
X120232315Y-142144680D01*
X120363100Y-142084952D01*
X120471761Y-141990798D01*
X120549493Y-141869844D01*
X120573076Y-141789524D01*
X121204925Y-142421373D01*
X121204926Y-142421373D01*
X121263598Y-142337582D01*
X121263600Y-142337578D01*
X121363429Y-142123492D01*
X121363433Y-142123483D01*
X121424567Y-141895326D01*
X121424569Y-141895315D01*
X121445157Y-141660001D01*
X121445157Y-141659998D01*
X121424569Y-141424684D01*
X121424567Y-141424673D01*
X121363433Y-141196516D01*
X121363429Y-141196507D01*
X121263600Y-140982423D01*
X121263599Y-140982421D01*
X121204925Y-140898626D01*
X121204925Y-140898625D01*
X120573076Y-141530475D01*
X120549493Y-141450156D01*
X120471761Y-141329202D01*
X120363100Y-141235048D01*
X120232315Y-141175320D01*
X120222533Y-141173913D01*
X120851373Y-140545073D01*
X120851373Y-140545072D01*
X120767583Y-140486402D01*
X120767579Y-140486400D01*
X120553492Y-140386570D01*
X120553483Y-140386566D01*
X120325326Y-140325432D01*
X120325315Y-140325430D01*
X120090002Y-140304843D01*
X120089998Y-140304843D01*
X119854684Y-140325430D01*
X119854673Y-140325432D01*
X119626516Y-140386566D01*
X119626507Y-140386570D01*
X119412419Y-140486401D01*
X119328625Y-140545072D01*
X119957466Y-141173913D01*
X119947685Y-141175320D01*
X119816900Y-141235048D01*
X119708239Y-141329202D01*
X119630507Y-141450156D01*
X119606923Y-141530476D01*
X118975072Y-140898625D01*
X118916401Y-140982419D01*
X118816570Y-141196507D01*
X118816566Y-141196516D01*
X118755432Y-141424673D01*
X118755430Y-141424684D01*
X118734843Y-141659998D01*
X118734843Y-141660001D01*
X114945157Y-141660001D01*
X114945157Y-141659998D01*
X114924569Y-141424684D01*
X114924567Y-141424673D01*
X114863433Y-141196516D01*
X114863429Y-141196507D01*
X114763600Y-140982423D01*
X114763599Y-140982421D01*
X114704925Y-140898626D01*
X114704925Y-140898625D01*
X114073076Y-141530475D01*
X114049493Y-141450156D01*
X113971761Y-141329202D01*
X113863100Y-141235048D01*
X113732315Y-141175320D01*
X113722533Y-141173913D01*
X114351373Y-140545073D01*
X114351373Y-140545072D01*
X114267583Y-140486402D01*
X114267579Y-140486400D01*
X114053492Y-140386570D01*
X114053483Y-140386566D01*
X113825326Y-140325432D01*
X113825315Y-140325430D01*
X113590002Y-140304843D01*
X113589998Y-140304843D01*
X113354684Y-140325430D01*
X113354673Y-140325432D01*
X113126516Y-140386566D01*
X113126507Y-140386570D01*
X112912419Y-140486401D01*
X112828625Y-140545072D01*
X113457466Y-141173913D01*
X113447685Y-141175320D01*
X113316900Y-141235048D01*
X113208239Y-141329202D01*
X113130507Y-141450156D01*
X113106923Y-141530476D01*
X112475072Y-140898625D01*
X112416401Y-140982419D01*
X112316570Y-141196507D01*
X112316566Y-141196516D01*
X112255432Y-141424673D01*
X112255430Y-141424684D01*
X112234843Y-141659998D01*
X112234843Y-141660001D01*
X105542265Y-141660001D01*
X105461099Y-141540291D01*
X105338085Y-141395467D01*
X105338084Y-141395466D01*
X104167732Y-142565818D01*
X104004870Y-142375130D01*
X103814180Y-142212266D01*
X104987374Y-141039073D01*
X104987373Y-141039072D01*
X104977099Y-141029340D01*
X104977087Y-141029330D01*
X104696539Y-140816061D01*
X104696535Y-140816058D01*
X104394554Y-140634364D01*
X104074726Y-140486396D01*
X103740743Y-140373863D01*
X103396562Y-140298103D01*
X103046211Y-140260000D01*
X102693788Y-140260000D01*
X102343437Y-140298103D01*
X101999256Y-140373863D01*
X101665273Y-140486396D01*
X101345445Y-140634364D01*
X101043464Y-140816058D01*
X101043460Y-140816061D01*
X100762906Y-141029334D01*
X100752625Y-141039071D01*
X100752625Y-141039073D01*
X101925819Y-142212266D01*
X101735130Y-142375130D01*
X101572266Y-142565818D01*
X100401914Y-141395466D01*
X100401913Y-141395466D01*
X100278896Y-141540296D01*
X100081124Y-141831988D01*
X99916052Y-142143347D01*
X99916043Y-142143365D01*
X99785602Y-142470749D01*
X99785600Y-142470756D01*
X99691325Y-142810306D01*
X99691319Y-142810332D01*
X99634308Y-143158082D01*
X99634306Y-143158099D01*
X99615227Y-143509997D01*
X99615227Y-143510002D01*
X98425000Y-143510002D01*
X98425000Y-138057870D01*
X112239500Y-138057870D01*
X112239501Y-138057876D01*
X112245908Y-138117483D01*
X112296202Y-138252328D01*
X112296206Y-138252335D01*
X112382452Y-138367544D01*
X112382455Y-138367547D01*
X112497664Y-138453793D01*
X112497671Y-138453797D01*
X112632517Y-138504091D01*
X112632516Y-138504091D01*
X112639444Y-138504835D01*
X112692127Y-138510500D01*
X114487872Y-138510499D01*
X114547483Y-138504091D01*
X114682331Y-138453796D01*
X114797546Y-138367546D01*
X114883796Y-138252331D01*
X114934091Y-138117483D01*
X114940500Y-138057873D01*
X114940500Y-137884500D01*
X114960185Y-137817461D01*
X115012989Y-137771706D01*
X115064500Y-137760500D01*
X118800909Y-137760500D01*
X118867948Y-137780185D01*
X118913292Y-137832097D01*
X118915965Y-137837830D01*
X119051505Y-138031401D01*
X119218599Y-138198495D01*
X119315384Y-138266265D01*
X119412165Y-138334032D01*
X119412167Y-138334033D01*
X119412170Y-138334035D01*
X119626337Y-138433903D01*
X119854592Y-138495063D01*
X120031034Y-138510500D01*
X120089999Y-138515659D01*
X120090000Y-138515659D01*
X120090001Y-138515659D01*
X120148966Y-138510500D01*
X120325408Y-138495063D01*
X120553663Y-138433903D01*
X120767830Y-138334035D01*
X120961401Y-138198495D01*
X121128495Y-138031401D01*
X121264035Y-137837830D01*
X121363903Y-137623663D01*
X121425063Y-137395408D01*
X121445659Y-137160000D01*
X121425063Y-136924592D01*
X121363903Y-136696337D01*
X121264035Y-136482171D01*
X121264034Y-136482169D01*
X121128494Y-136288597D01*
X120961402Y-136121506D01*
X120961395Y-136121501D01*
X120767834Y-135985967D01*
X120767830Y-135985965D01*
X120767828Y-135985964D01*
X120553663Y-135886097D01*
X120553659Y-135886096D01*
X120553655Y-135886094D01*
X120325413Y-135824938D01*
X120325403Y-135824936D01*
X120090001Y-135804341D01*
X120089999Y-135804341D01*
X119854596Y-135824936D01*
X119854586Y-135824938D01*
X119626344Y-135886094D01*
X119626335Y-135886098D01*
X119412171Y-135985964D01*
X119412169Y-135985965D01*
X119218597Y-136121505D01*
X119051506Y-136288596D01*
X118915965Y-136482170D01*
X118915962Y-136482175D01*
X118913289Y-136487909D01*
X118867115Y-136540346D01*
X118800909Y-136559500D01*
X115064499Y-136559500D01*
X114997460Y-136539815D01*
X114951705Y-136487011D01*
X114940499Y-136435500D01*
X114940499Y-136262129D01*
X114940498Y-136262123D01*
X114940497Y-136262116D01*
X114934091Y-136202517D01*
X114883796Y-136067669D01*
X114883795Y-136067668D01*
X114883793Y-136067664D01*
X114797547Y-135952455D01*
X114797544Y-135952452D01*
X114682335Y-135866206D01*
X114682328Y-135866202D01*
X114547482Y-135815908D01*
X114547483Y-135815908D01*
X114487883Y-135809501D01*
X114487881Y-135809500D01*
X114487873Y-135809500D01*
X114487864Y-135809500D01*
X112692129Y-135809500D01*
X112692123Y-135809501D01*
X112632516Y-135815908D01*
X112497671Y-135866202D01*
X112497664Y-135866206D01*
X112382455Y-135952452D01*
X112382452Y-135952455D01*
X112296206Y-136067664D01*
X112296202Y-136067671D01*
X112245908Y-136202517D01*
X112239501Y-136262116D01*
X112239501Y-136262123D01*
X112239500Y-136262135D01*
X112239500Y-138057870D01*
X98425000Y-138057870D01*
X98425000Y-125357870D01*
X99719500Y-125357870D01*
X99719501Y-125357876D01*
X99725908Y-125417483D01*
X99776202Y-125552328D01*
X99776206Y-125552335D01*
X99862452Y-125667544D01*
X99862455Y-125667547D01*
X99977664Y-125753793D01*
X99977671Y-125753797D01*
X100112517Y-125804091D01*
X100112516Y-125804091D01*
X100119444Y-125804835D01*
X100172127Y-125810500D01*
X102805611Y-125810499D01*
X102816419Y-125810971D01*
X102869999Y-125815659D01*
X102870000Y-125815659D01*
X102870001Y-125815659D01*
X102923580Y-125810971D01*
X102934388Y-125810499D01*
X103767871Y-125810499D01*
X103767872Y-125810499D01*
X103827483Y-125804091D01*
X103962331Y-125753796D01*
X104077546Y-125667546D01*
X104163796Y-125552331D01*
X104214091Y-125417483D01*
X104220500Y-125357873D01*
X104220499Y-124524383D01*
X104220971Y-124513576D01*
X104225659Y-124460000D01*
X104225659Y-124459999D01*
X104220971Y-124406421D01*
X104220499Y-124395613D01*
X104220499Y-124230001D01*
X107864341Y-124230001D01*
X107869028Y-124283574D01*
X107869500Y-124294381D01*
X107869500Y-126927870D01*
X107869501Y-126927876D01*
X107875908Y-126987483D01*
X107926202Y-127122328D01*
X107926206Y-127122335D01*
X108012452Y-127237544D01*
X108012455Y-127237547D01*
X108127664Y-127323793D01*
X108127671Y-127323797D01*
X108262517Y-127374091D01*
X108262516Y-127374091D01*
X108269444Y-127374835D01*
X108322127Y-127380500D01*
X110117872Y-127380499D01*
X110177483Y-127374091D01*
X110312331Y-127323796D01*
X110416106Y-127246109D01*
X110481570Y-127221692D01*
X110549843Y-127236543D01*
X110564729Y-127246110D01*
X110667910Y-127323352D01*
X110667913Y-127323354D01*
X110802620Y-127373596D01*
X110802627Y-127373598D01*
X110862155Y-127379999D01*
X110862172Y-127380000D01*
X111510000Y-127380000D01*
X111510000Y-124676494D01*
X111614839Y-124724373D01*
X111723527Y-124740000D01*
X111796473Y-124740000D01*
X111905161Y-124724373D01*
X112010000Y-124676494D01*
X112010000Y-127380000D01*
X112305500Y-127380000D01*
X112372539Y-127399685D01*
X112418294Y-127452489D01*
X112429500Y-127504000D01*
X112429500Y-130862587D01*
X112409815Y-130929626D01*
X112402450Y-130939896D01*
X112400186Y-130942734D01*
X112304211Y-131095476D01*
X112244631Y-131265745D01*
X112244630Y-131265750D01*
X112224435Y-131444996D01*
X112224435Y-131445003D01*
X112244630Y-131624249D01*
X112244631Y-131624254D01*
X112304211Y-131794523D01*
X112400184Y-131947262D01*
X112527738Y-132074816D01*
X112680478Y-132170789D01*
X112850745Y-132230368D01*
X112850750Y-132230369D01*
X113029996Y-132250565D01*
X113030000Y-132250565D01*
X113030004Y-132250565D01*
X113209249Y-132230369D01*
X113209252Y-132230368D01*
X113209255Y-132230368D01*
X113379522Y-132170789D01*
X113532262Y-132074816D01*
X113659816Y-131947262D01*
X113755789Y-131794522D01*
X113815368Y-131624255D01*
X113835565Y-131445000D01*
X113815368Y-131265745D01*
X113755789Y-131095478D01*
X113659816Y-130942738D01*
X113659814Y-130942736D01*
X113659813Y-130942734D01*
X113657550Y-130939896D01*
X113656659Y-130937715D01*
X113656111Y-130936842D01*
X113656264Y-130936745D01*
X113631144Y-130875209D01*
X113630500Y-130862587D01*
X113630500Y-130437870D01*
X128189500Y-130437870D01*
X128189501Y-130437876D01*
X128195908Y-130497483D01*
X128246202Y-130632328D01*
X128246206Y-130632335D01*
X128332452Y-130747544D01*
X128332455Y-130747547D01*
X128447664Y-130833793D01*
X128447671Y-130833797D01*
X128582517Y-130884091D01*
X128582516Y-130884091D01*
X128589444Y-130884835D01*
X128642127Y-130890500D01*
X130437872Y-130890499D01*
X130497483Y-130884091D01*
X130632331Y-130833796D01*
X130747546Y-130747546D01*
X130833796Y-130632331D01*
X130882810Y-130500916D01*
X130924681Y-130444984D01*
X130990145Y-130420566D01*
X131058418Y-130435417D01*
X131086673Y-130456569D01*
X131208599Y-130578495D01*
X131305384Y-130646265D01*
X131402165Y-130714032D01*
X131402167Y-130714033D01*
X131402170Y-130714035D01*
X131616337Y-130813903D01*
X131844592Y-130875063D01*
X132021034Y-130890500D01*
X132079999Y-130895659D01*
X132080000Y-130895659D01*
X132080001Y-130895659D01*
X132138966Y-130890500D01*
X132315408Y-130875063D01*
X132543663Y-130813903D01*
X132757830Y-130714035D01*
X132951401Y-130578495D01*
X133118495Y-130411401D01*
X133248730Y-130225405D01*
X133303307Y-130181781D01*
X133372805Y-130174587D01*
X133435160Y-130206110D01*
X133451879Y-130225405D01*
X133581890Y-130411078D01*
X133748917Y-130578105D01*
X133942421Y-130713600D01*
X134156507Y-130813429D01*
X134156516Y-130813433D01*
X134370000Y-130870634D01*
X134370000Y-129975501D01*
X134477685Y-130024680D01*
X134584237Y-130040000D01*
X134655763Y-130040000D01*
X134762315Y-130024680D01*
X134870000Y-129975501D01*
X134870000Y-130870633D01*
X135083483Y-130813433D01*
X135083492Y-130813429D01*
X135297578Y-130713600D01*
X135491082Y-130578105D01*
X135658105Y-130411082D01*
X135788119Y-130225405D01*
X135842696Y-130181781D01*
X135912195Y-130174588D01*
X135974549Y-130206110D01*
X135991269Y-130225405D01*
X136121505Y-130411401D01*
X136288599Y-130578495D01*
X136385384Y-130646265D01*
X136482165Y-130714032D01*
X136482167Y-130714033D01*
X136482170Y-130714035D01*
X136696337Y-130813903D01*
X136924592Y-130875063D01*
X137101034Y-130890500D01*
X137159999Y-130895659D01*
X137160000Y-130895659D01*
X137160001Y-130895659D01*
X137218966Y-130890500D01*
X137395408Y-130875063D01*
X137623663Y-130813903D01*
X137837830Y-130714035D01*
X138031401Y-130578495D01*
X138198495Y-130411401D01*
X138328425Y-130225842D01*
X138383002Y-130182217D01*
X138452500Y-130175023D01*
X138514855Y-130206546D01*
X138531575Y-130225842D01*
X138661500Y-130411395D01*
X138661505Y-130411401D01*
X138828599Y-130578495D01*
X138925384Y-130646265D01*
X139022165Y-130714032D01*
X139022167Y-130714033D01*
X139022170Y-130714035D01*
X139236337Y-130813903D01*
X139464592Y-130875063D01*
X139641034Y-130890500D01*
X139699999Y-130895659D01*
X139700000Y-130895659D01*
X139700001Y-130895659D01*
X139758966Y-130890500D01*
X139935408Y-130875063D01*
X140163663Y-130813903D01*
X140377830Y-130714035D01*
X140571401Y-130578495D01*
X140738495Y-130411401D01*
X140868425Y-130225842D01*
X140923002Y-130182217D01*
X140992500Y-130175023D01*
X141054855Y-130206546D01*
X141071575Y-130225842D01*
X141201500Y-130411395D01*
X141201505Y-130411401D01*
X141368599Y-130578495D01*
X141465384Y-130646265D01*
X141562165Y-130714032D01*
X141562167Y-130714033D01*
X141562170Y-130714035D01*
X141776337Y-130813903D01*
X142004592Y-130875063D01*
X142181034Y-130890500D01*
X142239999Y-130895659D01*
X142240000Y-130895659D01*
X142240001Y-130895659D01*
X142298966Y-130890500D01*
X142475408Y-130875063D01*
X142703663Y-130813903D01*
X142917830Y-130714035D01*
X143111401Y-130578495D01*
X143278495Y-130411401D01*
X143408425Y-130225842D01*
X143463002Y-130182217D01*
X143532500Y-130175023D01*
X143594855Y-130206546D01*
X143611575Y-130225842D01*
X143741500Y-130411395D01*
X143741505Y-130411401D01*
X143908599Y-130578495D01*
X144005384Y-130646265D01*
X144102165Y-130714032D01*
X144102167Y-130714033D01*
X144102170Y-130714035D01*
X144316337Y-130813903D01*
X144544592Y-130875063D01*
X144721034Y-130890500D01*
X144779999Y-130895659D01*
X144780000Y-130895659D01*
X144780001Y-130895659D01*
X144838966Y-130890500D01*
X145015408Y-130875063D01*
X145243663Y-130813903D01*
X145457830Y-130714035D01*
X145651401Y-130578495D01*
X145818495Y-130411401D01*
X145948730Y-130225405D01*
X146003307Y-130181781D01*
X146072805Y-130174587D01*
X146135160Y-130206110D01*
X146151879Y-130225405D01*
X146281890Y-130411078D01*
X146448917Y-130578105D01*
X146642421Y-130713600D01*
X146856507Y-130813429D01*
X146856516Y-130813433D01*
X147070000Y-130870634D01*
X147070000Y-129975501D01*
X147177685Y-130024680D01*
X147284237Y-130040000D01*
X147355763Y-130040000D01*
X147462315Y-130024680D01*
X147570000Y-129975501D01*
X147570000Y-130870633D01*
X147783483Y-130813433D01*
X147783492Y-130813429D01*
X147997578Y-130713600D01*
X148191082Y-130578105D01*
X148358105Y-130411082D01*
X148488119Y-130225405D01*
X148542696Y-130181781D01*
X148612195Y-130174588D01*
X148674549Y-130206110D01*
X148691269Y-130225405D01*
X148821505Y-130411401D01*
X148988599Y-130578495D01*
X149085384Y-130646265D01*
X149182165Y-130714032D01*
X149182167Y-130714033D01*
X149182170Y-130714035D01*
X149396337Y-130813903D01*
X149624592Y-130875063D01*
X149801034Y-130890500D01*
X149859999Y-130895659D01*
X149860000Y-130895659D01*
X149860001Y-130895659D01*
X149918966Y-130890500D01*
X150095408Y-130875063D01*
X150323663Y-130813903D01*
X150537830Y-130714035D01*
X150731401Y-130578495D01*
X150898495Y-130411401D01*
X151028425Y-130225842D01*
X151083002Y-130182217D01*
X151152500Y-130175023D01*
X151214855Y-130206546D01*
X151231575Y-130225842D01*
X151361500Y-130411395D01*
X151361505Y-130411401D01*
X151528599Y-130578495D01*
X151625384Y-130646265D01*
X151722165Y-130714032D01*
X151722167Y-130714033D01*
X151722170Y-130714035D01*
X151936337Y-130813903D01*
X152164592Y-130875063D01*
X152341034Y-130890500D01*
X152399999Y-130895659D01*
X152400000Y-130895659D01*
X152400001Y-130895659D01*
X152458966Y-130890500D01*
X152635408Y-130875063D01*
X152863663Y-130813903D01*
X153077830Y-130714035D01*
X153271401Y-130578495D01*
X153438495Y-130411401D01*
X153568425Y-130225842D01*
X153623002Y-130182217D01*
X153692500Y-130175023D01*
X153754855Y-130206546D01*
X153771575Y-130225842D01*
X153901500Y-130411395D01*
X153901505Y-130411401D01*
X154068599Y-130578495D01*
X154165384Y-130646265D01*
X154262165Y-130714032D01*
X154262167Y-130714033D01*
X154262170Y-130714035D01*
X154476337Y-130813903D01*
X154704592Y-130875063D01*
X154881034Y-130890500D01*
X154939999Y-130895659D01*
X154940000Y-130895659D01*
X154940001Y-130895659D01*
X154998966Y-130890500D01*
X155175408Y-130875063D01*
X155403663Y-130813903D01*
X155617830Y-130714035D01*
X155811401Y-130578495D01*
X155978495Y-130411401D01*
X156108425Y-130225842D01*
X156163002Y-130182217D01*
X156232500Y-130175023D01*
X156294855Y-130206546D01*
X156311575Y-130225842D01*
X156441500Y-130411395D01*
X156441505Y-130411401D01*
X156608599Y-130578495D01*
X156705384Y-130646265D01*
X156802165Y-130714032D01*
X156802167Y-130714033D01*
X156802170Y-130714035D01*
X157016337Y-130813903D01*
X157244592Y-130875063D01*
X157421034Y-130890500D01*
X157479999Y-130895659D01*
X157480000Y-130895659D01*
X157480001Y-130895659D01*
X157538966Y-130890500D01*
X157715408Y-130875063D01*
X157943663Y-130813903D01*
X158157830Y-130714035D01*
X158351401Y-130578495D01*
X158518495Y-130411401D01*
X158648730Y-130225405D01*
X158703307Y-130181781D01*
X158772805Y-130174587D01*
X158835160Y-130206110D01*
X158851879Y-130225405D01*
X158981890Y-130411078D01*
X159148917Y-130578105D01*
X159342421Y-130713600D01*
X159556507Y-130813429D01*
X159556516Y-130813433D01*
X159770000Y-130870634D01*
X159770000Y-129975501D01*
X159877685Y-130024680D01*
X159984237Y-130040000D01*
X160055763Y-130040000D01*
X160162315Y-130024680D01*
X160270000Y-129975501D01*
X160270000Y-130870634D01*
X160483483Y-130813433D01*
X160483492Y-130813429D01*
X160697578Y-130713600D01*
X160891082Y-130578105D01*
X161058105Y-130411082D01*
X161188119Y-130225405D01*
X161242696Y-130181781D01*
X161312195Y-130174588D01*
X161374549Y-130206110D01*
X161391269Y-130225405D01*
X161521505Y-130411401D01*
X161688599Y-130578495D01*
X161785384Y-130646265D01*
X161882165Y-130714032D01*
X161882167Y-130714033D01*
X161882170Y-130714035D01*
X162096337Y-130813903D01*
X162324592Y-130875063D01*
X162501034Y-130890500D01*
X162559999Y-130895659D01*
X162560000Y-130895659D01*
X162560001Y-130895659D01*
X162618966Y-130890500D01*
X162795408Y-130875063D01*
X163023663Y-130813903D01*
X163237830Y-130714035D01*
X163431401Y-130578495D01*
X163598495Y-130411401D01*
X163728425Y-130225842D01*
X163783002Y-130182217D01*
X163852500Y-130175023D01*
X163914855Y-130206546D01*
X163931575Y-130225842D01*
X164061500Y-130411395D01*
X164061505Y-130411401D01*
X164228599Y-130578495D01*
X164325384Y-130646265D01*
X164422165Y-130714032D01*
X164422167Y-130714033D01*
X164422170Y-130714035D01*
X164636337Y-130813903D01*
X164864592Y-130875063D01*
X165041034Y-130890500D01*
X165099999Y-130895659D01*
X165100000Y-130895659D01*
X165100001Y-130895659D01*
X165158966Y-130890500D01*
X165335408Y-130875063D01*
X165563663Y-130813903D01*
X165777830Y-130714035D01*
X165971401Y-130578495D01*
X166138495Y-130411401D01*
X166268425Y-130225842D01*
X166323002Y-130182217D01*
X166392500Y-130175023D01*
X166454855Y-130206546D01*
X166471575Y-130225842D01*
X166601500Y-130411395D01*
X166601505Y-130411401D01*
X166768599Y-130578495D01*
X166865384Y-130646265D01*
X166962165Y-130714032D01*
X166962167Y-130714033D01*
X166962170Y-130714035D01*
X167176337Y-130813903D01*
X167404592Y-130875063D01*
X167581034Y-130890500D01*
X167639999Y-130895659D01*
X167640000Y-130895659D01*
X167640001Y-130895659D01*
X167698966Y-130890500D01*
X167875408Y-130875063D01*
X168103663Y-130813903D01*
X168317830Y-130714035D01*
X168511401Y-130578495D01*
X168678495Y-130411401D01*
X168808425Y-130225842D01*
X168863002Y-130182217D01*
X168932500Y-130175023D01*
X168994855Y-130206546D01*
X169011575Y-130225842D01*
X169141500Y-130411395D01*
X169141505Y-130411401D01*
X169308599Y-130578495D01*
X169405384Y-130646265D01*
X169502165Y-130714032D01*
X169502167Y-130714033D01*
X169502170Y-130714035D01*
X169716337Y-130813903D01*
X169944592Y-130875063D01*
X170121034Y-130890500D01*
X170179999Y-130895659D01*
X170180000Y-130895659D01*
X170180001Y-130895659D01*
X170238966Y-130890500D01*
X170415408Y-130875063D01*
X170643663Y-130813903D01*
X170857830Y-130714035D01*
X171051401Y-130578495D01*
X171218495Y-130411401D01*
X171348730Y-130225405D01*
X171403307Y-130181781D01*
X171472805Y-130174587D01*
X171535160Y-130206110D01*
X171551879Y-130225405D01*
X171681890Y-130411078D01*
X171848917Y-130578105D01*
X172042421Y-130713600D01*
X172256507Y-130813429D01*
X172256516Y-130813433D01*
X172470000Y-130870634D01*
X172470000Y-129975501D01*
X172577685Y-130024680D01*
X172684237Y-130040000D01*
X172755763Y-130040000D01*
X172862315Y-130024680D01*
X172970000Y-129975501D01*
X172970000Y-130870634D01*
X173183483Y-130813433D01*
X173183492Y-130813429D01*
X173397578Y-130713600D01*
X173591082Y-130578105D01*
X173758105Y-130411082D01*
X173888119Y-130225405D01*
X173942696Y-130181781D01*
X174012195Y-130174588D01*
X174074549Y-130206110D01*
X174091269Y-130225405D01*
X174221505Y-130411401D01*
X174388599Y-130578495D01*
X174485384Y-130646265D01*
X174582165Y-130714032D01*
X174582167Y-130714033D01*
X174582170Y-130714035D01*
X174796337Y-130813903D01*
X175024592Y-130875063D01*
X175201034Y-130890500D01*
X175259999Y-130895659D01*
X175260000Y-130895659D01*
X175260001Y-130895659D01*
X175318966Y-130890500D01*
X175495408Y-130875063D01*
X175723663Y-130813903D01*
X175937830Y-130714035D01*
X176131401Y-130578495D01*
X176298495Y-130411401D01*
X176428425Y-130225842D01*
X176483002Y-130182217D01*
X176552500Y-130175023D01*
X176614855Y-130206546D01*
X176631575Y-130225842D01*
X176761500Y-130411395D01*
X176761505Y-130411401D01*
X176928599Y-130578495D01*
X177025384Y-130646265D01*
X177122165Y-130714032D01*
X177122167Y-130714033D01*
X177122170Y-130714035D01*
X177336337Y-130813903D01*
X177564592Y-130875063D01*
X177741034Y-130890500D01*
X177799999Y-130895659D01*
X177800000Y-130895659D01*
X177800001Y-130895659D01*
X177858966Y-130890500D01*
X178035408Y-130875063D01*
X178263663Y-130813903D01*
X178477830Y-130714035D01*
X178671401Y-130578495D01*
X178838495Y-130411401D01*
X178974035Y-130217830D01*
X179073903Y-130003663D01*
X179135063Y-129775408D01*
X179155659Y-129540000D01*
X179135063Y-129304592D01*
X179073903Y-129076337D01*
X178974035Y-128862171D01*
X178968731Y-128854595D01*
X178838494Y-128668597D01*
X178671404Y-128501508D01*
X178671396Y-128501501D01*
X178643252Y-128481795D01*
X178599627Y-128427219D01*
X178592433Y-128357720D01*
X178623955Y-128295365D01*
X178626662Y-128292571D01*
X182898535Y-124020698D01*
X182959856Y-123987215D01*
X182972311Y-123985163D01*
X183059255Y-123975368D01*
X183229522Y-123915789D01*
X183382262Y-123819816D01*
X183509816Y-123692262D01*
X183605789Y-123539522D01*
X183665368Y-123369255D01*
X183665369Y-123369249D01*
X183685565Y-123190003D01*
X183685565Y-123189996D01*
X183665369Y-123010750D01*
X183665368Y-123010745D01*
X183621686Y-122885909D01*
X183605789Y-122840478D01*
X183594831Y-122823039D01*
X183509815Y-122687737D01*
X183382262Y-122560184D01*
X183229523Y-122464211D01*
X183059254Y-122404631D01*
X183059249Y-122404630D01*
X182880004Y-122384435D01*
X182879996Y-122384435D01*
X182700750Y-122404630D01*
X182700745Y-122404631D01*
X182530476Y-122464211D01*
X182377737Y-122560184D01*
X182250184Y-122687737D01*
X182154210Y-122840478D01*
X182094630Y-123010750D01*
X182084837Y-123097668D01*
X182057770Y-123162082D01*
X182049298Y-123171465D01*
X177408965Y-127811798D01*
X177396774Y-127822490D01*
X177371718Y-127841717D01*
X177347549Y-127873213D01*
X177347550Y-127873214D01*
X177275464Y-127967158D01*
X177275461Y-127967163D01*
X177214957Y-128113234D01*
X177214956Y-128113239D01*
X177194455Y-128268952D01*
X177166188Y-128332848D01*
X177126719Y-128363012D01*
X177126861Y-128363257D01*
X177124974Y-128364346D01*
X177123932Y-128365143D01*
X177122175Y-128365962D01*
X177122169Y-128365965D01*
X176928597Y-128501505D01*
X176761505Y-128668597D01*
X176631575Y-128854158D01*
X176576998Y-128897783D01*
X176507500Y-128904977D01*
X176445145Y-128873454D01*
X176428425Y-128854158D01*
X176298494Y-128668597D01*
X176131404Y-128501508D01*
X176131396Y-128501501D01*
X176103252Y-128481795D01*
X176059627Y-128427219D01*
X176052433Y-128357720D01*
X176083955Y-128295365D01*
X176086662Y-128292571D01*
X182898535Y-121480698D01*
X182959856Y-121447215D01*
X182972311Y-121445163D01*
X183059255Y-121435368D01*
X183229522Y-121375789D01*
X183382262Y-121279816D01*
X183509816Y-121152262D01*
X183605789Y-120999522D01*
X183665368Y-120829255D01*
X183665369Y-120829249D01*
X183685565Y-120650003D01*
X183685565Y-120649996D01*
X183665369Y-120470750D01*
X183665368Y-120470745D01*
X183605788Y-120300476D01*
X183509815Y-120147737D01*
X183382262Y-120020184D01*
X183229523Y-119924211D01*
X183059254Y-119864631D01*
X183059249Y-119864630D01*
X182880004Y-119844435D01*
X182879996Y-119844435D01*
X182700750Y-119864630D01*
X182700745Y-119864631D01*
X182530476Y-119924211D01*
X182377737Y-120020184D01*
X182250184Y-120147737D01*
X182154210Y-120300478D01*
X182094630Y-120470750D01*
X182084837Y-120557668D01*
X182057770Y-120622082D01*
X182049298Y-120631465D01*
X174868965Y-127811798D01*
X174856774Y-127822490D01*
X174831718Y-127841717D01*
X174807549Y-127873213D01*
X174807550Y-127873214D01*
X174735464Y-127967158D01*
X174735461Y-127967163D01*
X174674957Y-128113234D01*
X174674956Y-128113239D01*
X174654455Y-128268952D01*
X174626188Y-128332848D01*
X174586719Y-128363012D01*
X174586861Y-128363257D01*
X174584974Y-128364346D01*
X174583932Y-128365143D01*
X174582175Y-128365962D01*
X174582169Y-128365965D01*
X174388597Y-128501505D01*
X174221508Y-128668594D01*
X174091269Y-128854595D01*
X174036692Y-128898219D01*
X173967193Y-128905412D01*
X173904839Y-128873890D01*
X173888119Y-128854594D01*
X173758113Y-128668926D01*
X173758108Y-128668920D01*
X173591082Y-128501894D01*
X173397578Y-128366399D01*
X173183492Y-128266570D01*
X173183486Y-128266567D01*
X172970000Y-128209364D01*
X172970000Y-129104498D01*
X172862315Y-129055320D01*
X172755763Y-129040000D01*
X172684237Y-129040000D01*
X172577685Y-129055320D01*
X172470000Y-129104498D01*
X172470000Y-128209364D01*
X172469999Y-128209364D01*
X172256513Y-128266567D01*
X172256507Y-128266570D01*
X172042422Y-128366399D01*
X172042420Y-128366400D01*
X171848926Y-128501886D01*
X171848920Y-128501891D01*
X171681891Y-128668920D01*
X171681890Y-128668922D01*
X171551880Y-128854595D01*
X171497303Y-128898219D01*
X171427804Y-128905412D01*
X171365450Y-128873890D01*
X171348730Y-128854594D01*
X171218494Y-128668597D01*
X171051404Y-128501508D01*
X171051396Y-128501501D01*
X171023252Y-128481795D01*
X170979627Y-128427219D01*
X170972433Y-128357720D01*
X171003955Y-128295365D01*
X171006662Y-128292571D01*
X182898535Y-116400698D01*
X182959856Y-116367215D01*
X182972311Y-116365163D01*
X183059255Y-116355368D01*
X183229522Y-116295789D01*
X183382262Y-116199816D01*
X183509816Y-116072262D01*
X183605789Y-115919522D01*
X183665368Y-115749255D01*
X183665369Y-115749249D01*
X183685565Y-115570003D01*
X183685565Y-115569996D01*
X183665369Y-115390750D01*
X183665368Y-115390745D01*
X183605789Y-115220478D01*
X183591583Y-115197870D01*
X183509815Y-115067737D01*
X183382262Y-114940184D01*
X183229523Y-114844211D01*
X183059254Y-114784631D01*
X183059249Y-114784630D01*
X182880004Y-114764435D01*
X182879996Y-114764435D01*
X182700750Y-114784630D01*
X182700745Y-114784631D01*
X182530476Y-114844211D01*
X182377737Y-114940184D01*
X182250184Y-115067737D01*
X182154210Y-115220478D01*
X182094630Y-115390750D01*
X182084837Y-115477668D01*
X182057770Y-115542082D01*
X182049298Y-115551465D01*
X169788965Y-127811798D01*
X169776774Y-127822490D01*
X169751718Y-127841717D01*
X169727549Y-127873213D01*
X169727550Y-127873214D01*
X169655464Y-127967158D01*
X169655461Y-127967163D01*
X169594957Y-128113234D01*
X169594956Y-128113239D01*
X169574455Y-128268952D01*
X169546188Y-128332848D01*
X169506719Y-128363012D01*
X169506861Y-128363257D01*
X169504974Y-128364346D01*
X169503932Y-128365143D01*
X169502175Y-128365962D01*
X169502169Y-128365965D01*
X169308597Y-128501505D01*
X169141505Y-128668597D01*
X169011575Y-128854158D01*
X168956998Y-128897783D01*
X168887500Y-128904977D01*
X168825145Y-128873454D01*
X168808425Y-128854158D01*
X168678494Y-128668597D01*
X168511404Y-128501508D01*
X168511396Y-128501501D01*
X168483252Y-128481795D01*
X168439627Y-128427219D01*
X168432433Y-128357720D01*
X168463955Y-128295365D01*
X168466662Y-128292571D01*
X182898535Y-113860698D01*
X182959856Y-113827215D01*
X182972311Y-113825163D01*
X183059255Y-113815368D01*
X183229522Y-113755789D01*
X183382262Y-113659816D01*
X183509816Y-113532262D01*
X183605789Y-113379522D01*
X183665368Y-113209255D01*
X183665369Y-113209249D01*
X183685565Y-113030003D01*
X183685565Y-113029996D01*
X183665369Y-112850750D01*
X183665368Y-112850745D01*
X183605789Y-112680478D01*
X183591583Y-112657870D01*
X183509815Y-112527737D01*
X183382262Y-112400184D01*
X183229523Y-112304211D01*
X183059254Y-112244631D01*
X183059249Y-112244630D01*
X182880004Y-112224435D01*
X182879996Y-112224435D01*
X182700750Y-112244630D01*
X182700745Y-112244631D01*
X182530476Y-112304211D01*
X182377737Y-112400184D01*
X182250184Y-112527737D01*
X182154210Y-112680478D01*
X182094630Y-112850750D01*
X182084837Y-112937668D01*
X182057770Y-113002082D01*
X182049298Y-113011465D01*
X167248965Y-127811798D01*
X167236774Y-127822490D01*
X167211718Y-127841717D01*
X167187549Y-127873213D01*
X167187550Y-127873214D01*
X167115464Y-127967158D01*
X167115461Y-127967163D01*
X167054957Y-128113234D01*
X167054956Y-128113239D01*
X167034455Y-128268952D01*
X167006188Y-128332848D01*
X166966719Y-128363012D01*
X166966861Y-128363257D01*
X166964974Y-128364346D01*
X166963932Y-128365143D01*
X166962175Y-128365962D01*
X166962169Y-128365965D01*
X166768597Y-128501505D01*
X166601505Y-128668597D01*
X166471575Y-128854158D01*
X166416998Y-128897783D01*
X166347500Y-128904977D01*
X166285145Y-128873454D01*
X166268425Y-128854158D01*
X166138494Y-128668597D01*
X165971404Y-128501508D01*
X165971396Y-128501501D01*
X165943252Y-128481795D01*
X165899627Y-128427219D01*
X165892433Y-128357720D01*
X165923955Y-128295365D01*
X165926662Y-128292571D01*
X182898535Y-111320698D01*
X182959856Y-111287215D01*
X182972311Y-111285163D01*
X183059255Y-111275368D01*
X183229522Y-111215789D01*
X183382262Y-111119816D01*
X183509816Y-110992262D01*
X183605789Y-110839522D01*
X183665368Y-110669255D01*
X183665369Y-110669249D01*
X183685565Y-110490003D01*
X183685565Y-110489996D01*
X183665369Y-110310750D01*
X183665368Y-110310745D01*
X183605789Y-110140478D01*
X183591583Y-110117870D01*
X183509815Y-109987737D01*
X183382262Y-109860184D01*
X183229523Y-109764211D01*
X183059254Y-109704631D01*
X183059249Y-109704630D01*
X182880004Y-109684435D01*
X182879996Y-109684435D01*
X182700750Y-109704630D01*
X182700745Y-109704631D01*
X182530476Y-109764211D01*
X182377737Y-109860184D01*
X182250184Y-109987737D01*
X182154210Y-110140478D01*
X182094630Y-110310750D01*
X182084837Y-110397668D01*
X182057770Y-110462082D01*
X182049298Y-110471465D01*
X164708965Y-127811798D01*
X164696774Y-127822490D01*
X164671718Y-127841717D01*
X164647549Y-127873213D01*
X164647550Y-127873214D01*
X164575464Y-127967158D01*
X164575461Y-127967163D01*
X164514957Y-128113234D01*
X164514956Y-128113239D01*
X164494455Y-128268952D01*
X164466188Y-128332848D01*
X164426719Y-128363012D01*
X164426861Y-128363257D01*
X164424974Y-128364346D01*
X164423932Y-128365143D01*
X164422175Y-128365962D01*
X164422169Y-128365965D01*
X164228597Y-128501505D01*
X164061505Y-128668597D01*
X163931575Y-128854158D01*
X163876998Y-128897783D01*
X163807500Y-128904977D01*
X163745145Y-128873454D01*
X163728425Y-128854158D01*
X163598494Y-128668597D01*
X163431404Y-128501508D01*
X163431396Y-128501501D01*
X163403252Y-128481795D01*
X163359627Y-128427219D01*
X163352433Y-128357720D01*
X163383955Y-128295365D01*
X163386662Y-128292571D01*
X182898535Y-108780698D01*
X182959856Y-108747215D01*
X182972311Y-108745163D01*
X183059255Y-108735368D01*
X183229522Y-108675789D01*
X183382262Y-108579816D01*
X183509816Y-108452262D01*
X183605789Y-108299522D01*
X183665368Y-108129255D01*
X183665369Y-108129249D01*
X183685565Y-107950003D01*
X183685565Y-107949996D01*
X183665369Y-107770750D01*
X183665368Y-107770745D01*
X183605788Y-107600476D01*
X183509815Y-107447737D01*
X183382262Y-107320184D01*
X183229523Y-107224211D01*
X183059254Y-107164631D01*
X183059249Y-107164630D01*
X182880004Y-107144435D01*
X182879996Y-107144435D01*
X182700750Y-107164630D01*
X182700745Y-107164631D01*
X182530476Y-107224211D01*
X182377737Y-107320184D01*
X182250184Y-107447737D01*
X182154210Y-107600478D01*
X182094630Y-107770750D01*
X182084837Y-107857668D01*
X182057770Y-107922082D01*
X182049298Y-107931465D01*
X162168965Y-127811798D01*
X162156774Y-127822490D01*
X162131718Y-127841717D01*
X162107549Y-127873213D01*
X162107550Y-127873214D01*
X162035464Y-127967158D01*
X162035461Y-127967163D01*
X161974957Y-128113234D01*
X161974956Y-128113239D01*
X161954455Y-128268952D01*
X161926188Y-128332848D01*
X161886719Y-128363012D01*
X161886861Y-128363257D01*
X161884974Y-128364346D01*
X161883932Y-128365143D01*
X161882175Y-128365962D01*
X161882169Y-128365965D01*
X161688597Y-128501505D01*
X161521508Y-128668594D01*
X161391269Y-128854595D01*
X161336692Y-128898219D01*
X161267193Y-128905412D01*
X161204839Y-128873890D01*
X161188119Y-128854594D01*
X161058113Y-128668926D01*
X161058108Y-128668920D01*
X160891082Y-128501894D01*
X160697578Y-128366399D01*
X160483492Y-128266570D01*
X160483486Y-128266567D01*
X160270000Y-128209364D01*
X160270000Y-129104498D01*
X160162315Y-129055320D01*
X160055763Y-129040000D01*
X159984237Y-129040000D01*
X159877685Y-129055320D01*
X159770000Y-129104498D01*
X159770000Y-128209364D01*
X159769999Y-128209364D01*
X159556513Y-128266567D01*
X159556507Y-128266570D01*
X159342422Y-128366399D01*
X159342420Y-128366400D01*
X159148926Y-128501886D01*
X159148920Y-128501891D01*
X158981891Y-128668920D01*
X158981890Y-128668922D01*
X158851880Y-128854595D01*
X158797303Y-128898219D01*
X158727804Y-128905412D01*
X158665450Y-128873890D01*
X158648730Y-128854594D01*
X158518494Y-128668597D01*
X158351404Y-128501508D01*
X158351396Y-128501501D01*
X158323252Y-128481795D01*
X158279627Y-128427219D01*
X158272433Y-128357720D01*
X158303955Y-128295365D01*
X158306662Y-128292571D01*
X182898536Y-103700698D01*
X182959857Y-103667215D01*
X182972310Y-103665163D01*
X183059255Y-103655368D01*
X183229522Y-103595789D01*
X183382262Y-103499816D01*
X183509816Y-103372262D01*
X183605789Y-103219522D01*
X183665368Y-103049255D01*
X183665369Y-103049249D01*
X183685565Y-102870003D01*
X183685565Y-102869996D01*
X183665369Y-102690750D01*
X183665368Y-102690745D01*
X183605789Y-102520478D01*
X183591583Y-102497870D01*
X183509815Y-102367737D01*
X183382262Y-102240184D01*
X183229523Y-102144211D01*
X183059254Y-102084631D01*
X183059249Y-102084630D01*
X182880004Y-102064435D01*
X182879996Y-102064435D01*
X182700750Y-102084630D01*
X182700745Y-102084631D01*
X182530476Y-102144211D01*
X182377737Y-102240184D01*
X182250184Y-102367737D01*
X182154210Y-102520478D01*
X182094630Y-102690750D01*
X182084837Y-102777667D01*
X182057770Y-102842081D01*
X182049298Y-102851464D01*
X157088965Y-127811798D01*
X157076774Y-127822490D01*
X157051718Y-127841717D01*
X157027549Y-127873213D01*
X157027550Y-127873214D01*
X156955464Y-127967158D01*
X156955461Y-127967163D01*
X156894957Y-128113234D01*
X156894956Y-128113239D01*
X156874455Y-128268952D01*
X156846188Y-128332848D01*
X156806719Y-128363012D01*
X156806861Y-128363257D01*
X156804974Y-128364346D01*
X156803932Y-128365143D01*
X156802175Y-128365962D01*
X156802169Y-128365965D01*
X156608597Y-128501505D01*
X156441505Y-128668597D01*
X156311575Y-128854158D01*
X156256998Y-128897783D01*
X156187500Y-128904977D01*
X156125145Y-128873454D01*
X156108425Y-128854158D01*
X155978494Y-128668597D01*
X155811404Y-128501508D01*
X155811396Y-128501501D01*
X155783252Y-128481795D01*
X155739627Y-128427219D01*
X155732433Y-128357720D01*
X155763955Y-128295365D01*
X155766662Y-128292571D01*
X182898535Y-101160698D01*
X182959856Y-101127215D01*
X182972311Y-101125163D01*
X183059255Y-101115368D01*
X183229522Y-101055789D01*
X183382262Y-100959816D01*
X183509816Y-100832262D01*
X183605789Y-100679522D01*
X183665368Y-100509255D01*
X183665369Y-100509249D01*
X183685565Y-100330003D01*
X183685565Y-100329996D01*
X183665369Y-100150750D01*
X183665368Y-100150745D01*
X183605789Y-99980478D01*
X183591583Y-99957870D01*
X183509815Y-99827737D01*
X183382262Y-99700184D01*
X183229523Y-99604211D01*
X183059254Y-99544631D01*
X183059249Y-99544630D01*
X182880004Y-99524435D01*
X182879996Y-99524435D01*
X182700750Y-99544630D01*
X182700745Y-99544631D01*
X182530476Y-99604211D01*
X182377737Y-99700184D01*
X182250184Y-99827737D01*
X182154210Y-99980478D01*
X182094630Y-100150750D01*
X182084837Y-100237668D01*
X182057770Y-100302082D01*
X182049298Y-100311465D01*
X154548965Y-127811798D01*
X154536774Y-127822490D01*
X154511718Y-127841717D01*
X154487549Y-127873213D01*
X154487550Y-127873214D01*
X154415464Y-127967158D01*
X154415461Y-127967163D01*
X154354957Y-128113234D01*
X154354956Y-128113239D01*
X154334455Y-128268952D01*
X154306188Y-128332848D01*
X154266719Y-128363012D01*
X154266861Y-128363257D01*
X154264974Y-128364346D01*
X154263932Y-128365143D01*
X154262175Y-128365962D01*
X154262169Y-128365965D01*
X154068597Y-128501505D01*
X153901505Y-128668597D01*
X153771575Y-128854158D01*
X153716998Y-128897783D01*
X153647500Y-128904977D01*
X153585145Y-128873454D01*
X153568425Y-128854158D01*
X153438494Y-128668597D01*
X153271404Y-128501508D01*
X153271396Y-128501501D01*
X153243252Y-128481795D01*
X153199627Y-128427219D01*
X153192433Y-128357720D01*
X153223955Y-128295365D01*
X153226662Y-128292571D01*
X182898535Y-98620698D01*
X182959856Y-98587215D01*
X182972311Y-98585163D01*
X183059255Y-98575368D01*
X183229522Y-98515789D01*
X183382262Y-98419816D01*
X183509816Y-98292262D01*
X183605789Y-98139522D01*
X183665368Y-97969255D01*
X183665369Y-97969249D01*
X183685565Y-97790003D01*
X183685565Y-97789996D01*
X183665369Y-97610750D01*
X183665368Y-97610745D01*
X183605789Y-97440478D01*
X183591583Y-97417870D01*
X183509815Y-97287737D01*
X183382262Y-97160184D01*
X183229523Y-97064211D01*
X183059254Y-97004631D01*
X183059249Y-97004630D01*
X182880004Y-96984435D01*
X182879996Y-96984435D01*
X182700750Y-97004630D01*
X182700745Y-97004631D01*
X182530476Y-97064211D01*
X182377737Y-97160184D01*
X182250184Y-97287737D01*
X182154210Y-97440478D01*
X182094630Y-97610750D01*
X182084837Y-97697668D01*
X182057770Y-97762082D01*
X182049298Y-97771465D01*
X152008965Y-127811798D01*
X151996774Y-127822490D01*
X151971718Y-127841717D01*
X151947549Y-127873213D01*
X151947550Y-127873214D01*
X151875464Y-127967158D01*
X151875461Y-127967163D01*
X151814957Y-128113234D01*
X151814956Y-128113239D01*
X151794455Y-128268952D01*
X151766188Y-128332848D01*
X151726719Y-128363012D01*
X151726861Y-128363257D01*
X151724974Y-128364346D01*
X151723932Y-128365143D01*
X151722175Y-128365962D01*
X151722169Y-128365965D01*
X151528597Y-128501505D01*
X151361505Y-128668597D01*
X151231575Y-128854158D01*
X151176998Y-128897783D01*
X151107500Y-128904977D01*
X151045145Y-128873454D01*
X151028425Y-128854158D01*
X150898494Y-128668597D01*
X150731404Y-128501508D01*
X150731396Y-128501501D01*
X150703252Y-128481795D01*
X150659627Y-128427219D01*
X150652433Y-128357720D01*
X150683955Y-128295365D01*
X150686662Y-128292571D01*
X182898535Y-96080698D01*
X182959856Y-96047215D01*
X182972311Y-96045163D01*
X183059255Y-96035368D01*
X183229522Y-95975789D01*
X183382262Y-95879816D01*
X183509816Y-95752262D01*
X183605789Y-95599522D01*
X183665368Y-95429255D01*
X183665369Y-95429249D01*
X183685565Y-95250003D01*
X183685565Y-95249996D01*
X183665369Y-95070750D01*
X183665368Y-95070745D01*
X183605788Y-94900476D01*
X183509815Y-94747737D01*
X183382262Y-94620184D01*
X183229523Y-94524211D01*
X183059254Y-94464631D01*
X183059249Y-94464630D01*
X182880004Y-94444435D01*
X182879996Y-94444435D01*
X182700750Y-94464630D01*
X182700745Y-94464631D01*
X182530476Y-94524211D01*
X182377737Y-94620184D01*
X182250184Y-94747737D01*
X182154210Y-94900478D01*
X182094630Y-95070750D01*
X182084837Y-95157668D01*
X182057770Y-95222082D01*
X182049298Y-95231465D01*
X149468965Y-127811798D01*
X149456774Y-127822490D01*
X149431718Y-127841717D01*
X149407549Y-127873213D01*
X149407550Y-127873214D01*
X149335464Y-127967158D01*
X149335461Y-127967163D01*
X149274957Y-128113234D01*
X149274956Y-128113239D01*
X149254455Y-128268952D01*
X149226188Y-128332848D01*
X149186719Y-128363012D01*
X149186861Y-128363257D01*
X149184974Y-128364346D01*
X149183932Y-128365143D01*
X149182175Y-128365962D01*
X149182169Y-128365965D01*
X148988597Y-128501505D01*
X148821508Y-128668594D01*
X148691269Y-128854595D01*
X148636692Y-128898219D01*
X148567193Y-128905412D01*
X148504839Y-128873890D01*
X148488119Y-128854594D01*
X148358113Y-128668926D01*
X148358108Y-128668920D01*
X148191082Y-128501894D01*
X147997578Y-128366399D01*
X147783492Y-128266570D01*
X147783486Y-128266567D01*
X147570000Y-128209364D01*
X147570000Y-129104498D01*
X147462315Y-129055320D01*
X147355763Y-129040000D01*
X147284237Y-129040000D01*
X147177685Y-129055320D01*
X147070000Y-129104498D01*
X147070000Y-128209364D01*
X147069999Y-128209364D01*
X146856513Y-128266567D01*
X146856507Y-128266570D01*
X146642422Y-128366399D01*
X146642420Y-128366400D01*
X146448926Y-128501886D01*
X146448920Y-128501891D01*
X146281891Y-128668920D01*
X146281890Y-128668922D01*
X146151880Y-128854595D01*
X146097303Y-128898219D01*
X146027804Y-128905412D01*
X145965450Y-128873890D01*
X145948730Y-128854594D01*
X145818494Y-128668597D01*
X145651404Y-128501508D01*
X145651396Y-128501501D01*
X145623252Y-128481795D01*
X145579627Y-128427219D01*
X145572433Y-128357720D01*
X145603955Y-128295365D01*
X145606662Y-128292571D01*
X182898535Y-91000698D01*
X182959856Y-90967215D01*
X182972311Y-90965163D01*
X183059255Y-90955368D01*
X183229522Y-90895789D01*
X183382262Y-90799816D01*
X183509816Y-90672262D01*
X183605789Y-90519522D01*
X183665368Y-90349255D01*
X183665369Y-90349249D01*
X183685565Y-90170003D01*
X183685565Y-90169996D01*
X183665369Y-89990750D01*
X183665368Y-89990745D01*
X183605789Y-89820478D01*
X183591583Y-89797870D01*
X183509815Y-89667737D01*
X183382262Y-89540184D01*
X183229523Y-89444211D01*
X183059254Y-89384631D01*
X183059249Y-89384630D01*
X182880004Y-89364435D01*
X182879996Y-89364435D01*
X182700750Y-89384630D01*
X182700745Y-89384631D01*
X182530476Y-89444211D01*
X182377737Y-89540184D01*
X182250184Y-89667737D01*
X182154210Y-89820478D01*
X182094630Y-89990750D01*
X182084837Y-90077668D01*
X182057770Y-90142082D01*
X182049298Y-90151465D01*
X144388965Y-127811798D01*
X144376774Y-127822490D01*
X144351718Y-127841717D01*
X144327549Y-127873213D01*
X144327550Y-127873214D01*
X144255464Y-127967158D01*
X144255461Y-127967163D01*
X144194957Y-128113234D01*
X144194956Y-128113239D01*
X144174455Y-128268952D01*
X144146188Y-128332848D01*
X144106719Y-128363012D01*
X144106861Y-128363257D01*
X144104974Y-128364346D01*
X144103932Y-128365143D01*
X144102175Y-128365962D01*
X144102169Y-128365965D01*
X143908597Y-128501505D01*
X143741505Y-128668597D01*
X143611575Y-128854158D01*
X143556998Y-128897783D01*
X143487500Y-128904977D01*
X143425145Y-128873454D01*
X143408425Y-128854158D01*
X143278494Y-128668597D01*
X143111404Y-128501508D01*
X143111396Y-128501501D01*
X143083252Y-128481795D01*
X143039627Y-128427219D01*
X143032433Y-128357720D01*
X143063955Y-128295365D01*
X143066662Y-128292571D01*
X182898535Y-88460698D01*
X182959856Y-88427215D01*
X182972311Y-88425163D01*
X183059255Y-88415368D01*
X183229522Y-88355789D01*
X183382262Y-88259816D01*
X183509816Y-88132262D01*
X183605789Y-87979522D01*
X183665368Y-87809255D01*
X183665369Y-87809249D01*
X183685565Y-87630003D01*
X183685565Y-87629996D01*
X183665369Y-87450750D01*
X183665368Y-87450745D01*
X183605789Y-87280478D01*
X183591583Y-87257870D01*
X183566582Y-87218080D01*
X183509816Y-87127738D01*
X183382262Y-87000184D01*
X183306711Y-86952712D01*
X183229523Y-86904211D01*
X183059254Y-86844631D01*
X183059249Y-86844630D01*
X182880004Y-86824435D01*
X182879996Y-86824435D01*
X182700750Y-86844630D01*
X182700745Y-86844631D01*
X182530476Y-86904211D01*
X182377737Y-87000184D01*
X182250184Y-87127737D01*
X182154210Y-87280478D01*
X182094630Y-87450750D01*
X182084837Y-87537668D01*
X182057770Y-87602082D01*
X182049298Y-87611465D01*
X141848965Y-127811798D01*
X141836774Y-127822490D01*
X141811718Y-127841717D01*
X141787549Y-127873213D01*
X141787550Y-127873214D01*
X141715464Y-127967158D01*
X141715461Y-127967163D01*
X141654957Y-128113234D01*
X141654956Y-128113239D01*
X141634455Y-128268952D01*
X141606188Y-128332848D01*
X141566719Y-128363012D01*
X141566861Y-128363257D01*
X141564974Y-128364346D01*
X141563932Y-128365143D01*
X141562175Y-128365962D01*
X141562169Y-128365965D01*
X141368597Y-128501505D01*
X141201505Y-128668597D01*
X141071575Y-128854158D01*
X141016998Y-128897783D01*
X140947500Y-128904977D01*
X140885145Y-128873454D01*
X140868425Y-128854158D01*
X140738494Y-128668597D01*
X140571404Y-128501508D01*
X140571396Y-128501501D01*
X140543252Y-128481795D01*
X140499627Y-128427219D01*
X140492433Y-128357720D01*
X140523955Y-128295365D01*
X140526662Y-128292571D01*
X182898535Y-85920698D01*
X182959856Y-85887215D01*
X182972311Y-85885163D01*
X183059255Y-85875368D01*
X183229522Y-85815789D01*
X183382262Y-85719816D01*
X183509816Y-85592262D01*
X183605789Y-85439522D01*
X183665368Y-85269255D01*
X183665369Y-85269249D01*
X183685565Y-85090003D01*
X183685565Y-85089996D01*
X183665369Y-84910750D01*
X183665368Y-84910745D01*
X183605789Y-84740478D01*
X183591583Y-84717870D01*
X183509815Y-84587737D01*
X183382262Y-84460184D01*
X183229523Y-84364211D01*
X183059254Y-84304631D01*
X183059249Y-84304630D01*
X182880004Y-84284435D01*
X182879996Y-84284435D01*
X182700750Y-84304630D01*
X182700745Y-84304631D01*
X182530476Y-84364211D01*
X182377737Y-84460184D01*
X182250184Y-84587737D01*
X182154210Y-84740478D01*
X182094630Y-84910750D01*
X182084837Y-84997668D01*
X182057770Y-85062082D01*
X182049298Y-85071465D01*
X139308965Y-127811798D01*
X139296774Y-127822490D01*
X139271718Y-127841717D01*
X139247549Y-127873213D01*
X139247550Y-127873214D01*
X139175464Y-127967158D01*
X139175461Y-127967163D01*
X139114957Y-128113234D01*
X139114956Y-128113239D01*
X139094455Y-128268952D01*
X139066188Y-128332848D01*
X139026719Y-128363012D01*
X139026861Y-128363257D01*
X139024974Y-128364346D01*
X139023932Y-128365143D01*
X139022175Y-128365962D01*
X139022169Y-128365965D01*
X138828597Y-128501505D01*
X138661505Y-128668597D01*
X138531575Y-128854158D01*
X138476998Y-128897783D01*
X138407500Y-128904977D01*
X138345145Y-128873454D01*
X138328425Y-128854158D01*
X138198494Y-128668597D01*
X138031404Y-128501508D01*
X138031396Y-128501501D01*
X138003252Y-128481795D01*
X137959627Y-128427219D01*
X137952433Y-128357720D01*
X137983955Y-128295365D01*
X137986662Y-128292571D01*
X182898535Y-83380698D01*
X182959856Y-83347215D01*
X182972311Y-83345163D01*
X183059255Y-83335368D01*
X183229522Y-83275789D01*
X183382262Y-83179816D01*
X183509816Y-83052262D01*
X183605789Y-82899522D01*
X183665368Y-82729255D01*
X183665369Y-82729249D01*
X183685565Y-82550003D01*
X183685565Y-82549996D01*
X183665369Y-82370750D01*
X183665368Y-82370745D01*
X183605788Y-82200476D01*
X183509815Y-82047737D01*
X183382262Y-81920184D01*
X183229523Y-81824211D01*
X183059254Y-81764631D01*
X183059249Y-81764630D01*
X182880004Y-81744435D01*
X182879996Y-81744435D01*
X182700750Y-81764630D01*
X182700745Y-81764631D01*
X182530476Y-81824211D01*
X182377737Y-81920184D01*
X182250184Y-82047737D01*
X182154210Y-82200478D01*
X182094630Y-82370750D01*
X182084837Y-82457668D01*
X182057770Y-82522082D01*
X182049298Y-82531465D01*
X136768965Y-127811798D01*
X136756774Y-127822490D01*
X136731718Y-127841717D01*
X136707549Y-127873213D01*
X136707550Y-127873214D01*
X136635464Y-127967158D01*
X136635461Y-127967163D01*
X136574957Y-128113234D01*
X136574956Y-128113239D01*
X136554455Y-128268952D01*
X136526188Y-128332848D01*
X136486719Y-128363012D01*
X136486861Y-128363257D01*
X136484974Y-128364346D01*
X136483932Y-128365143D01*
X136482175Y-128365962D01*
X136482169Y-128365965D01*
X136288597Y-128501505D01*
X136121508Y-128668594D01*
X135991269Y-128854595D01*
X135936692Y-128898219D01*
X135867193Y-128905412D01*
X135804839Y-128873890D01*
X135788119Y-128854594D01*
X135658113Y-128668926D01*
X135658108Y-128668920D01*
X135491082Y-128501894D01*
X135297578Y-128366399D01*
X135083492Y-128266570D01*
X135083486Y-128266567D01*
X134870000Y-128209364D01*
X134870000Y-129104498D01*
X134762315Y-129055320D01*
X134655763Y-129040000D01*
X134584237Y-129040000D01*
X134477685Y-129055320D01*
X134370000Y-129104498D01*
X134370000Y-128209364D01*
X134369999Y-128209364D01*
X134156513Y-128266567D01*
X134156507Y-128266570D01*
X133942422Y-128366399D01*
X133942420Y-128366400D01*
X133748926Y-128501886D01*
X133748920Y-128501891D01*
X133581891Y-128668920D01*
X133581890Y-128668922D01*
X133451880Y-128854595D01*
X133397303Y-128898219D01*
X133327804Y-128905412D01*
X133265450Y-128873890D01*
X133248730Y-128854594D01*
X133118494Y-128668597D01*
X132951404Y-128501508D01*
X132951396Y-128501501D01*
X132923252Y-128481795D01*
X132879627Y-128427219D01*
X132872433Y-128357720D01*
X132903955Y-128295365D01*
X132906662Y-128292571D01*
X182898535Y-78300698D01*
X182959856Y-78267215D01*
X182972311Y-78265163D01*
X183059255Y-78255368D01*
X183229522Y-78195789D01*
X183382262Y-78099816D01*
X183509816Y-77972262D01*
X183605789Y-77819522D01*
X183665368Y-77649255D01*
X183665369Y-77649249D01*
X183685565Y-77470003D01*
X183685565Y-77469996D01*
X183665369Y-77290750D01*
X183665368Y-77290745D01*
X183621646Y-77165794D01*
X183605789Y-77120478D01*
X183591583Y-77097870D01*
X183553106Y-77036634D01*
X183509816Y-76967738D01*
X183382262Y-76840184D01*
X183306711Y-76792712D01*
X183229523Y-76744211D01*
X183059254Y-76684631D01*
X183059249Y-76684630D01*
X182880004Y-76664435D01*
X182879996Y-76664435D01*
X182700750Y-76684630D01*
X182700745Y-76684631D01*
X182530476Y-76744211D01*
X182377737Y-76840184D01*
X182250184Y-76967737D01*
X182154210Y-77120478D01*
X182094630Y-77290750D01*
X182084837Y-77377668D01*
X182057770Y-77442082D01*
X182049298Y-77451465D01*
X131688965Y-127811798D01*
X131676774Y-127822490D01*
X131651718Y-127841717D01*
X131627549Y-127873213D01*
X131627550Y-127873214D01*
X131555464Y-127967158D01*
X131555461Y-127967163D01*
X131494957Y-128113234D01*
X131494956Y-128113239D01*
X131474455Y-128268952D01*
X131446188Y-128332848D01*
X131406719Y-128363012D01*
X131406861Y-128363257D01*
X131404974Y-128364346D01*
X131403932Y-128365143D01*
X131402175Y-128365962D01*
X131402169Y-128365965D01*
X131208600Y-128501503D01*
X131086673Y-128623430D01*
X131025350Y-128656914D01*
X130955658Y-128651930D01*
X130899725Y-128610058D01*
X130882810Y-128579081D01*
X130833797Y-128447671D01*
X130833793Y-128447664D01*
X130747547Y-128332455D01*
X130747544Y-128332452D01*
X130625231Y-128240888D01*
X130626682Y-128238949D01*
X130586462Y-128198731D01*
X130571609Y-128130459D01*
X130596024Y-128064994D01*
X130607605Y-128051628D01*
X182898535Y-75760698D01*
X182959856Y-75727215D01*
X182972311Y-75725163D01*
X183059255Y-75715368D01*
X183229522Y-75655789D01*
X183382262Y-75559816D01*
X183509816Y-75432262D01*
X183605789Y-75279522D01*
X183665368Y-75109255D01*
X183665369Y-75109249D01*
X183685565Y-74930003D01*
X183685565Y-74929996D01*
X183665369Y-74750750D01*
X183665368Y-74750745D01*
X183605788Y-74580476D01*
X183509815Y-74427737D01*
X183382262Y-74300184D01*
X183229523Y-74204211D01*
X183059254Y-74144631D01*
X183059249Y-74144630D01*
X182880004Y-74124435D01*
X182879996Y-74124435D01*
X182700750Y-74144630D01*
X182700745Y-74144631D01*
X182530476Y-74204211D01*
X182377737Y-74300184D01*
X182250184Y-74427737D01*
X182154210Y-74580478D01*
X182094630Y-74750750D01*
X182084837Y-74837668D01*
X182057770Y-74902082D01*
X182049298Y-74911465D01*
X129148965Y-127811798D01*
X129136774Y-127822490D01*
X129111718Y-127841717D01*
X129087549Y-127873213D01*
X129087550Y-127873214D01*
X129015464Y-127967158D01*
X129015462Y-127967161D01*
X128955074Y-128112953D01*
X128911233Y-128167356D01*
X128844939Y-128189421D01*
X128840514Y-128189500D01*
X128642130Y-128189500D01*
X128642123Y-128189501D01*
X128582516Y-128195908D01*
X128447671Y-128246202D01*
X128447664Y-128246206D01*
X128332455Y-128332452D01*
X128332452Y-128332455D01*
X128246206Y-128447664D01*
X128246202Y-128447671D01*
X128195908Y-128582517D01*
X128189501Y-128642116D01*
X128189500Y-128642135D01*
X128189500Y-130437870D01*
X113630500Y-130437870D01*
X113630500Y-127504499D01*
X113650185Y-127437460D01*
X113702989Y-127391705D01*
X113754500Y-127380499D01*
X115197871Y-127380499D01*
X115197872Y-127380499D01*
X115257483Y-127374091D01*
X115392331Y-127323796D01*
X115507546Y-127237546D01*
X115593796Y-127122331D01*
X115644091Y-126987483D01*
X115650500Y-126927873D01*
X115650499Y-124460002D01*
X119294341Y-124460002D01*
X119299028Y-124513576D01*
X119299500Y-124524383D01*
X119299500Y-125357870D01*
X119299501Y-125357876D01*
X119305908Y-125417483D01*
X119356202Y-125552328D01*
X119356206Y-125552335D01*
X119442452Y-125667544D01*
X119442455Y-125667547D01*
X119557664Y-125753793D01*
X119557671Y-125753797D01*
X119692517Y-125804091D01*
X119692516Y-125804091D01*
X119699444Y-125804835D01*
X119752127Y-125810500D01*
X120585616Y-125810499D01*
X120596425Y-125810971D01*
X120650000Y-125815659D01*
X120703575Y-125810971D01*
X120714384Y-125810499D01*
X123347871Y-125810499D01*
X123347872Y-125810499D01*
X123407483Y-125804091D01*
X123542331Y-125753796D01*
X123657546Y-125667546D01*
X123743796Y-125552331D01*
X123794091Y-125417483D01*
X123800500Y-125357873D01*
X123800500Y-125184500D01*
X123820185Y-125117461D01*
X123872989Y-125071706D01*
X123924500Y-125060500D01*
X125682513Y-125060500D01*
X125698697Y-125061560D01*
X125730000Y-125065682D01*
X125730001Y-125065682D01*
X125782254Y-125058802D01*
X125886762Y-125045044D01*
X126032841Y-124984536D01*
X126112172Y-124923663D01*
X126158282Y-124888282D01*
X126177509Y-124863223D01*
X126188190Y-124851043D01*
X178191043Y-72848190D01*
X178203223Y-72837509D01*
X178228282Y-72818282D01*
X178324536Y-72692841D01*
X178385044Y-72546762D01*
X178400500Y-72429361D01*
X178405544Y-72391047D01*
X178433810Y-72327151D01*
X178473286Y-72296986D01*
X178473144Y-72296740D01*
X178475047Y-72295641D01*
X178476083Y-72294849D01*
X178477830Y-72294035D01*
X178478452Y-72293600D01*
X178550501Y-72243150D01*
X178671401Y-72158495D01*
X178838495Y-71991401D01*
X178974035Y-71797830D01*
X179073903Y-71583663D01*
X179135063Y-71355408D01*
X179155659Y-71120000D01*
X179135063Y-70884592D01*
X179073903Y-70656337D01*
X178974035Y-70442171D01*
X178968731Y-70434595D01*
X178838494Y-70248597D01*
X178671402Y-70081506D01*
X178671395Y-70081501D01*
X178477834Y-69945967D01*
X178477830Y-69945965D01*
X178448521Y-69932298D01*
X178263663Y-69846097D01*
X178263659Y-69846096D01*
X178263655Y-69846094D01*
X178035413Y-69784938D01*
X178035403Y-69784936D01*
X177800001Y-69764341D01*
X177799999Y-69764341D01*
X177564596Y-69784936D01*
X177564586Y-69784938D01*
X177336344Y-69846094D01*
X177336335Y-69846098D01*
X177122171Y-69945964D01*
X177122169Y-69945965D01*
X176928597Y-70081505D01*
X176761505Y-70248597D01*
X176631575Y-70434158D01*
X176576998Y-70477783D01*
X176507500Y-70484977D01*
X176445145Y-70453454D01*
X176428425Y-70434158D01*
X176298494Y-70248597D01*
X176131402Y-70081506D01*
X176131395Y-70081501D01*
X175937834Y-69945967D01*
X175937830Y-69945965D01*
X175908521Y-69932298D01*
X175723663Y-69846097D01*
X175723659Y-69846096D01*
X175723655Y-69846094D01*
X175495413Y-69784938D01*
X175495403Y-69784936D01*
X175260001Y-69764341D01*
X175259999Y-69764341D01*
X175024596Y-69784936D01*
X175024586Y-69784938D01*
X174796344Y-69846094D01*
X174796335Y-69846098D01*
X174582171Y-69945964D01*
X174582169Y-69945965D01*
X174388597Y-70081505D01*
X174221508Y-70248594D01*
X174091269Y-70434595D01*
X174036692Y-70478219D01*
X173967193Y-70485412D01*
X173904839Y-70453890D01*
X173888119Y-70434594D01*
X173758113Y-70248926D01*
X173758108Y-70248920D01*
X173591082Y-70081894D01*
X173397578Y-69946399D01*
X173183492Y-69846570D01*
X173183486Y-69846567D01*
X172970000Y-69789364D01*
X172970000Y-70684498D01*
X172862315Y-70635320D01*
X172755763Y-70620000D01*
X172684237Y-70620000D01*
X172577685Y-70635320D01*
X172470000Y-70684498D01*
X172470000Y-69789364D01*
X172469999Y-69789364D01*
X172256513Y-69846567D01*
X172256507Y-69846570D01*
X172042422Y-69946399D01*
X172042420Y-69946400D01*
X171848926Y-70081886D01*
X171848920Y-70081891D01*
X171681891Y-70248920D01*
X171681890Y-70248922D01*
X171551880Y-70434595D01*
X171497303Y-70478219D01*
X171427804Y-70485412D01*
X171365450Y-70453890D01*
X171348730Y-70434594D01*
X171218494Y-70248597D01*
X171051402Y-70081506D01*
X171051395Y-70081501D01*
X170857834Y-69945967D01*
X170857830Y-69945965D01*
X170828521Y-69932298D01*
X170643663Y-69846097D01*
X170643659Y-69846096D01*
X170643655Y-69846094D01*
X170415413Y-69784938D01*
X170415403Y-69784936D01*
X170180001Y-69764341D01*
X170179999Y-69764341D01*
X169944596Y-69784936D01*
X169944586Y-69784938D01*
X169716344Y-69846094D01*
X169716335Y-69846098D01*
X169502171Y-69945964D01*
X169502169Y-69945965D01*
X169308597Y-70081505D01*
X169141505Y-70248597D01*
X169011575Y-70434158D01*
X168956998Y-70477783D01*
X168887500Y-70484977D01*
X168825145Y-70453454D01*
X168808425Y-70434158D01*
X168678494Y-70248597D01*
X168511402Y-70081506D01*
X168511395Y-70081501D01*
X168317834Y-69945967D01*
X168317830Y-69945965D01*
X168288521Y-69932298D01*
X168103663Y-69846097D01*
X168103659Y-69846096D01*
X168103655Y-69846094D01*
X167875413Y-69784938D01*
X167875403Y-69784936D01*
X167640001Y-69764341D01*
X167639999Y-69764341D01*
X167404596Y-69784936D01*
X167404586Y-69784938D01*
X167176344Y-69846094D01*
X167176335Y-69846098D01*
X166962171Y-69945964D01*
X166962169Y-69945965D01*
X166768597Y-70081505D01*
X166601505Y-70248597D01*
X166471575Y-70434158D01*
X166416998Y-70477783D01*
X166347500Y-70484977D01*
X166285145Y-70453454D01*
X166268425Y-70434158D01*
X166138494Y-70248597D01*
X165971402Y-70081506D01*
X165971395Y-70081501D01*
X165777834Y-69945967D01*
X165777830Y-69945965D01*
X165748521Y-69932298D01*
X165563663Y-69846097D01*
X165563659Y-69846096D01*
X165563655Y-69846094D01*
X165335413Y-69784938D01*
X165335403Y-69784936D01*
X165100001Y-69764341D01*
X165099999Y-69764341D01*
X164864596Y-69784936D01*
X164864586Y-69784938D01*
X164636344Y-69846094D01*
X164636335Y-69846098D01*
X164422171Y-69945964D01*
X164422169Y-69945965D01*
X164228597Y-70081505D01*
X164061505Y-70248597D01*
X163931575Y-70434158D01*
X163876998Y-70477783D01*
X163807500Y-70484977D01*
X163745145Y-70453454D01*
X163728425Y-70434158D01*
X163598494Y-70248597D01*
X163431402Y-70081506D01*
X163431395Y-70081501D01*
X163237834Y-69945967D01*
X163237830Y-69945965D01*
X163208521Y-69932298D01*
X163023663Y-69846097D01*
X163023659Y-69846096D01*
X163023655Y-69846094D01*
X162795413Y-69784938D01*
X162795403Y-69784936D01*
X162560001Y-69764341D01*
X162559999Y-69764341D01*
X162324596Y-69784936D01*
X162324586Y-69784938D01*
X162096344Y-69846094D01*
X162096335Y-69846098D01*
X161882171Y-69945964D01*
X161882169Y-69945965D01*
X161688597Y-70081505D01*
X161521508Y-70248594D01*
X161391269Y-70434595D01*
X161336692Y-70478219D01*
X161267193Y-70485412D01*
X161204839Y-70453890D01*
X161188119Y-70434594D01*
X161058113Y-70248926D01*
X161058108Y-70248920D01*
X160891082Y-70081894D01*
X160697578Y-69946399D01*
X160483492Y-69846570D01*
X160483486Y-69846567D01*
X160270000Y-69789364D01*
X160270000Y-70684498D01*
X160162315Y-70635320D01*
X160055763Y-70620000D01*
X159984237Y-70620000D01*
X159877685Y-70635320D01*
X159770000Y-70684498D01*
X159770000Y-69789364D01*
X159769999Y-69789364D01*
X159556513Y-69846567D01*
X159556507Y-69846570D01*
X159342422Y-69946399D01*
X159342420Y-69946400D01*
X159148926Y-70081886D01*
X159148920Y-70081891D01*
X158981891Y-70248920D01*
X158981890Y-70248922D01*
X158851880Y-70434595D01*
X158797303Y-70478219D01*
X158727804Y-70485412D01*
X158665450Y-70453890D01*
X158648730Y-70434594D01*
X158518494Y-70248597D01*
X158351402Y-70081506D01*
X158351395Y-70081501D01*
X158157834Y-69945967D01*
X158157830Y-69945965D01*
X158128521Y-69932298D01*
X157943663Y-69846097D01*
X157943659Y-69846096D01*
X157943655Y-69846094D01*
X157715413Y-69784938D01*
X157715403Y-69784936D01*
X157480001Y-69764341D01*
X157479999Y-69764341D01*
X157244596Y-69784936D01*
X157244586Y-69784938D01*
X157016344Y-69846094D01*
X157016335Y-69846098D01*
X156802171Y-69945964D01*
X156802169Y-69945965D01*
X156608597Y-70081505D01*
X156441505Y-70248597D01*
X156311575Y-70434158D01*
X156256998Y-70477783D01*
X156187500Y-70484977D01*
X156125145Y-70453454D01*
X156108425Y-70434158D01*
X155978494Y-70248597D01*
X155811402Y-70081506D01*
X155811395Y-70081501D01*
X155617834Y-69945967D01*
X155617830Y-69945965D01*
X155588521Y-69932298D01*
X155403663Y-69846097D01*
X155403659Y-69846096D01*
X155403655Y-69846094D01*
X155175413Y-69784938D01*
X155175403Y-69784936D01*
X154940001Y-69764341D01*
X154939999Y-69764341D01*
X154704596Y-69784936D01*
X154704586Y-69784938D01*
X154476344Y-69846094D01*
X154476335Y-69846098D01*
X154262171Y-69945964D01*
X154262169Y-69945965D01*
X154068597Y-70081505D01*
X153901505Y-70248597D01*
X153771575Y-70434158D01*
X153716998Y-70477783D01*
X153647500Y-70484977D01*
X153585145Y-70453454D01*
X153568425Y-70434158D01*
X153438494Y-70248597D01*
X153271402Y-70081506D01*
X153271395Y-70081501D01*
X153077834Y-69945967D01*
X153077830Y-69945965D01*
X153048521Y-69932298D01*
X152863663Y-69846097D01*
X152863659Y-69846096D01*
X152863655Y-69846094D01*
X152635413Y-69784938D01*
X152635403Y-69784936D01*
X152400001Y-69764341D01*
X152399999Y-69764341D01*
X152164596Y-69784936D01*
X152164586Y-69784938D01*
X151936344Y-69846094D01*
X151936335Y-69846098D01*
X151722171Y-69945964D01*
X151722169Y-69945965D01*
X151528597Y-70081505D01*
X151361505Y-70248597D01*
X151231575Y-70434158D01*
X151176998Y-70477783D01*
X151107500Y-70484977D01*
X151045145Y-70453454D01*
X151028425Y-70434158D01*
X150898494Y-70248597D01*
X150731402Y-70081506D01*
X150731395Y-70081501D01*
X150537834Y-69945967D01*
X150537830Y-69945965D01*
X150508521Y-69932298D01*
X150323663Y-69846097D01*
X150323659Y-69846096D01*
X150323655Y-69846094D01*
X150095413Y-69784938D01*
X150095403Y-69784936D01*
X149860001Y-69764341D01*
X149859999Y-69764341D01*
X149624596Y-69784936D01*
X149624586Y-69784938D01*
X149396344Y-69846094D01*
X149396335Y-69846098D01*
X149182171Y-69945964D01*
X149182169Y-69945965D01*
X148988597Y-70081505D01*
X148821508Y-70248594D01*
X148691269Y-70434595D01*
X148636692Y-70478219D01*
X148567193Y-70485412D01*
X148504839Y-70453890D01*
X148488119Y-70434594D01*
X148358113Y-70248926D01*
X148358108Y-70248920D01*
X148191082Y-70081894D01*
X147997578Y-69946399D01*
X147783492Y-69846570D01*
X147783486Y-69846567D01*
X147570000Y-69789364D01*
X147570000Y-70684498D01*
X147462315Y-70635320D01*
X147355763Y-70620000D01*
X147284237Y-70620000D01*
X147177685Y-70635320D01*
X147070000Y-70684498D01*
X147070000Y-69789364D01*
X147069999Y-69789364D01*
X146856513Y-69846567D01*
X146856507Y-69846570D01*
X146642422Y-69946399D01*
X146642420Y-69946400D01*
X146448926Y-70081886D01*
X146448920Y-70081891D01*
X146281891Y-70248920D01*
X146281890Y-70248922D01*
X146151880Y-70434595D01*
X146097303Y-70478219D01*
X146027804Y-70485412D01*
X145965450Y-70453890D01*
X145948730Y-70434594D01*
X145818494Y-70248597D01*
X145651402Y-70081506D01*
X145651395Y-70081501D01*
X145457834Y-69945967D01*
X145457830Y-69945965D01*
X145428521Y-69932298D01*
X145243663Y-69846097D01*
X145243659Y-69846096D01*
X145243655Y-69846094D01*
X145015413Y-69784938D01*
X145015403Y-69784936D01*
X144780001Y-69764341D01*
X144779999Y-69764341D01*
X144544596Y-69784936D01*
X144544586Y-69784938D01*
X144316344Y-69846094D01*
X144316335Y-69846098D01*
X144102171Y-69945964D01*
X144102169Y-69945965D01*
X143908597Y-70081505D01*
X143741505Y-70248597D01*
X143611575Y-70434158D01*
X143556998Y-70477783D01*
X143487500Y-70484977D01*
X143425145Y-70453454D01*
X143408425Y-70434158D01*
X143278494Y-70248597D01*
X143111402Y-70081506D01*
X143111395Y-70081501D01*
X142917834Y-69945967D01*
X142917830Y-69945965D01*
X142888521Y-69932298D01*
X142703663Y-69846097D01*
X142703659Y-69846096D01*
X142703655Y-69846094D01*
X142475413Y-69784938D01*
X142475403Y-69784936D01*
X142240001Y-69764341D01*
X142239999Y-69764341D01*
X142004596Y-69784936D01*
X142004586Y-69784938D01*
X141776344Y-69846094D01*
X141776335Y-69846098D01*
X141562171Y-69945964D01*
X141562169Y-69945965D01*
X141368597Y-70081505D01*
X141201505Y-70248597D01*
X141071575Y-70434158D01*
X141016998Y-70477783D01*
X140947500Y-70484977D01*
X140885145Y-70453454D01*
X140868425Y-70434158D01*
X140738494Y-70248597D01*
X140571404Y-70081507D01*
X140503375Y-70033872D01*
X140459751Y-69979294D01*
X140450500Y-69932298D01*
X140450500Y-66103705D01*
X140451809Y-66085735D01*
X140455289Y-66061974D01*
X140450972Y-66012635D01*
X140450500Y-66001826D01*
X140450500Y-65996296D01*
X140450500Y-65996291D01*
X140446894Y-65965443D01*
X140446534Y-65961916D01*
X140439999Y-65887209D01*
X140438538Y-65880135D01*
X140438598Y-65880122D01*
X140436966Y-65872764D01*
X140436908Y-65872778D01*
X140435242Y-65865750D01*
X140435241Y-65865748D01*
X140435241Y-65865745D01*
X140409567Y-65795206D01*
X140408420Y-65791908D01*
X140384814Y-65720666D01*
X140384811Y-65720662D01*
X140381762Y-65714121D01*
X140381815Y-65714095D01*
X140378531Y-65707311D01*
X140378479Y-65707338D01*
X140375236Y-65700882D01*
X140334025Y-65638222D01*
X140332088Y-65635181D01*
X140292714Y-65571347D01*
X140288234Y-65565681D01*
X140288280Y-65565643D01*
X140283519Y-65559799D01*
X140283474Y-65559838D01*
X140278831Y-65554305D01*
X140224290Y-65502848D01*
X140221703Y-65500335D01*
X139119212Y-64397844D01*
X184070000Y-64397844D01*
X184076401Y-64457372D01*
X184076403Y-64457379D01*
X184126645Y-64592086D01*
X184126649Y-64592093D01*
X184212809Y-64707187D01*
X184212812Y-64707190D01*
X184327906Y-64793350D01*
X184327913Y-64793354D01*
X184462620Y-64843596D01*
X184462627Y-64843598D01*
X184522155Y-64849999D01*
X184522172Y-64850000D01*
X185170000Y-64850000D01*
X185170000Y-63935501D01*
X185277685Y-63984680D01*
X185384237Y-64000000D01*
X185455763Y-64000000D01*
X185562315Y-63984680D01*
X185670000Y-63935501D01*
X185670000Y-64850000D01*
X186317828Y-64850000D01*
X186317844Y-64849999D01*
X186377372Y-64843598D01*
X186377379Y-64843596D01*
X186512086Y-64793354D01*
X186512093Y-64793350D01*
X186627187Y-64707190D01*
X186627190Y-64707187D01*
X186713350Y-64592093D01*
X186713354Y-64592086D01*
X186762422Y-64460529D01*
X186804293Y-64404595D01*
X186869757Y-64380178D01*
X186938030Y-64395030D01*
X186966285Y-64416181D01*
X187088599Y-64538495D01*
X187160348Y-64588734D01*
X187282165Y-64674032D01*
X187282167Y-64674033D01*
X187282170Y-64674035D01*
X187496337Y-64773903D01*
X187724592Y-64835063D01*
X187895319Y-64850000D01*
X187959999Y-64855659D01*
X187960000Y-64855659D01*
X187960001Y-64855659D01*
X188024681Y-64850000D01*
X188195408Y-64835063D01*
X188423663Y-64773903D01*
X188637830Y-64674035D01*
X188831401Y-64538495D01*
X188998495Y-64371401D01*
X189128425Y-64185842D01*
X189183002Y-64142217D01*
X189252500Y-64135023D01*
X189314855Y-64166546D01*
X189331575Y-64185842D01*
X189461500Y-64371395D01*
X189461505Y-64371401D01*
X189628599Y-64538495D01*
X189700348Y-64588734D01*
X189822165Y-64674032D01*
X189822167Y-64674033D01*
X189822170Y-64674035D01*
X190036337Y-64773903D01*
X190264592Y-64835063D01*
X190435319Y-64850000D01*
X190499999Y-64855659D01*
X190500000Y-64855659D01*
X190500001Y-64855659D01*
X190564681Y-64850000D01*
X190735408Y-64835063D01*
X190963663Y-64773903D01*
X191177830Y-64674035D01*
X191371401Y-64538495D01*
X191538495Y-64371401D01*
X191668425Y-64185842D01*
X191723002Y-64142217D01*
X191792500Y-64135023D01*
X191854855Y-64166546D01*
X191871575Y-64185842D01*
X192001500Y-64371395D01*
X192001505Y-64371401D01*
X192168599Y-64538495D01*
X192240348Y-64588734D01*
X192362165Y-64674032D01*
X192362167Y-64674033D01*
X192362170Y-64674035D01*
X192367898Y-64676706D01*
X192420339Y-64722872D01*
X192439500Y-64789090D01*
X192439500Y-76887587D01*
X192419815Y-76954626D01*
X192412450Y-76964896D01*
X192410186Y-76967734D01*
X192314211Y-77120476D01*
X192254631Y-77290745D01*
X192254630Y-77290750D01*
X192234435Y-77469996D01*
X192234435Y-77470003D01*
X192254630Y-77649249D01*
X192254631Y-77649254D01*
X192314211Y-77819523D01*
X192375467Y-77917011D01*
X192410184Y-77972262D01*
X192537738Y-78099816D01*
X192690478Y-78195789D01*
X192846667Y-78250442D01*
X192860745Y-78255368D01*
X192860750Y-78255369D01*
X193039996Y-78275565D01*
X193040000Y-78275565D01*
X193040004Y-78275565D01*
X193219249Y-78255369D01*
X193219252Y-78255368D01*
X193219255Y-78255368D01*
X193389522Y-78195789D01*
X193542262Y-78099816D01*
X193669816Y-77972262D01*
X193765789Y-77819522D01*
X193825368Y-77649255D01*
X193825369Y-77649249D01*
X193845565Y-77470003D01*
X193845565Y-77469996D01*
X193825369Y-77290750D01*
X193825368Y-77290745D01*
X193781646Y-77165794D01*
X193765789Y-77120478D01*
X193751583Y-77097870D01*
X193713106Y-77036634D01*
X193669816Y-76967738D01*
X193669814Y-76967736D01*
X193669813Y-76967734D01*
X193667550Y-76964896D01*
X193666659Y-76962715D01*
X193666111Y-76961842D01*
X193666264Y-76961745D01*
X193641144Y-76900209D01*
X193640500Y-76887587D01*
X193640500Y-64789090D01*
X193660185Y-64722051D01*
X193712101Y-64676706D01*
X193717830Y-64674035D01*
X193911401Y-64538495D01*
X194078495Y-64371401D01*
X194208425Y-64185842D01*
X194263002Y-64142217D01*
X194332500Y-64135023D01*
X194394855Y-64166546D01*
X194411575Y-64185842D01*
X194541500Y-64371395D01*
X194541505Y-64371401D01*
X194708599Y-64538495D01*
X194780348Y-64588734D01*
X194902165Y-64674032D01*
X194902167Y-64674033D01*
X194902170Y-64674035D01*
X194907898Y-64676706D01*
X194960339Y-64722872D01*
X194979500Y-64789090D01*
X194979500Y-74347587D01*
X194959815Y-74414626D01*
X194952450Y-74424896D01*
X194950186Y-74427734D01*
X194854211Y-74580476D01*
X194794631Y-74750745D01*
X194794630Y-74750750D01*
X194774435Y-74929996D01*
X194774435Y-74930003D01*
X194794630Y-75109249D01*
X194794631Y-75109254D01*
X194854211Y-75279523D01*
X194938195Y-75413181D01*
X194950184Y-75432262D01*
X195077738Y-75559816D01*
X195230478Y-75655789D01*
X195400742Y-75715367D01*
X195400745Y-75715368D01*
X195400750Y-75715369D01*
X195579996Y-75735565D01*
X195580000Y-75735565D01*
X195580004Y-75735565D01*
X195759249Y-75715369D01*
X195759252Y-75715368D01*
X195759255Y-75715368D01*
X195929522Y-75655789D01*
X196082262Y-75559816D01*
X196209816Y-75432262D01*
X196305789Y-75279522D01*
X196365368Y-75109255D01*
X196365369Y-75109249D01*
X196385565Y-74930003D01*
X196385565Y-74929996D01*
X196365369Y-74750750D01*
X196365368Y-74750745D01*
X196305788Y-74580476D01*
X196209813Y-74427734D01*
X196207550Y-74424896D01*
X196206659Y-74422715D01*
X196206111Y-74421842D01*
X196206264Y-74421745D01*
X196181144Y-74360209D01*
X196180500Y-74347587D01*
X196180500Y-64789090D01*
X196200185Y-64722051D01*
X196252101Y-64676706D01*
X196257830Y-64674035D01*
X196451401Y-64538495D01*
X196618495Y-64371401D01*
X196748425Y-64185842D01*
X196803002Y-64142217D01*
X196872500Y-64135023D01*
X196934855Y-64166546D01*
X196951575Y-64185842D01*
X197081500Y-64371395D01*
X197081505Y-64371401D01*
X197248599Y-64538495D01*
X197320348Y-64588734D01*
X197442165Y-64674032D01*
X197442167Y-64674033D01*
X197442170Y-64674035D01*
X197656337Y-64773903D01*
X197884592Y-64835063D01*
X198055319Y-64850000D01*
X198119999Y-64855659D01*
X198120000Y-64855659D01*
X198120001Y-64855659D01*
X198184681Y-64850000D01*
X198355408Y-64835063D01*
X198583663Y-64773903D01*
X198797830Y-64674035D01*
X198991401Y-64538495D01*
X199158495Y-64371401D01*
X199294035Y-64177830D01*
X199393903Y-63963663D01*
X199455063Y-63735408D01*
X199475659Y-63500000D01*
X199455063Y-63264592D01*
X199404275Y-63075048D01*
X199393905Y-63036344D01*
X199393904Y-63036343D01*
X199393903Y-63036337D01*
X199294035Y-62822171D01*
X199288425Y-62814158D01*
X199158494Y-62628597D01*
X198991402Y-62461506D01*
X198991395Y-62461501D01*
X198797834Y-62325967D01*
X198797830Y-62325965D01*
X198726727Y-62292809D01*
X198583663Y-62226097D01*
X198583659Y-62226096D01*
X198583655Y-62226094D01*
X198355413Y-62164938D01*
X198355403Y-62164936D01*
X198120001Y-62144341D01*
X198119999Y-62144341D01*
X197884596Y-62164936D01*
X197884586Y-62164938D01*
X197656344Y-62226094D01*
X197656335Y-62226098D01*
X197442171Y-62325964D01*
X197442169Y-62325965D01*
X197248597Y-62461505D01*
X197081505Y-62628597D01*
X196951575Y-62814158D01*
X196896998Y-62857783D01*
X196827500Y-62864977D01*
X196765145Y-62833454D01*
X196748425Y-62814158D01*
X196618494Y-62628597D01*
X196451402Y-62461506D01*
X196451395Y-62461501D01*
X196257834Y-62325967D01*
X196257830Y-62325965D01*
X196186727Y-62292809D01*
X196043663Y-62226097D01*
X196043659Y-62226096D01*
X196043655Y-62226094D01*
X195815413Y-62164938D01*
X195815403Y-62164936D01*
X195580001Y-62144341D01*
X195579999Y-62144341D01*
X195344596Y-62164936D01*
X195344586Y-62164938D01*
X195116344Y-62226094D01*
X195116335Y-62226098D01*
X194902171Y-62325964D01*
X194902169Y-62325965D01*
X194708597Y-62461505D01*
X194541505Y-62628597D01*
X194411575Y-62814158D01*
X194356998Y-62857783D01*
X194287500Y-62864977D01*
X194225145Y-62833454D01*
X194208425Y-62814158D01*
X194078494Y-62628597D01*
X193911402Y-62461506D01*
X193911395Y-62461501D01*
X193717834Y-62325967D01*
X193717830Y-62325965D01*
X193646727Y-62292809D01*
X193503663Y-62226097D01*
X193503659Y-62226096D01*
X193503655Y-62226094D01*
X193275413Y-62164938D01*
X193275403Y-62164936D01*
X193040001Y-62144341D01*
X193039999Y-62144341D01*
X192804596Y-62164936D01*
X192804586Y-62164938D01*
X192576344Y-62226094D01*
X192576335Y-62226098D01*
X192362171Y-62325964D01*
X192362169Y-62325965D01*
X192168597Y-62461505D01*
X192001505Y-62628597D01*
X191871575Y-62814158D01*
X191816998Y-62857783D01*
X191747500Y-62864977D01*
X191685145Y-62833454D01*
X191668425Y-62814158D01*
X191538494Y-62628597D01*
X191371402Y-62461506D01*
X191371395Y-62461501D01*
X191177834Y-62325967D01*
X191177830Y-62325965D01*
X191106727Y-62292809D01*
X190963663Y-62226097D01*
X190963659Y-62226096D01*
X190963655Y-62226094D01*
X190735413Y-62164938D01*
X190735403Y-62164936D01*
X190500001Y-62144341D01*
X190499999Y-62144341D01*
X190264596Y-62164936D01*
X190264586Y-62164938D01*
X190036344Y-62226094D01*
X190036335Y-62226098D01*
X189822171Y-62325964D01*
X189822169Y-62325965D01*
X189628597Y-62461505D01*
X189461505Y-62628597D01*
X189331575Y-62814158D01*
X189276998Y-62857783D01*
X189207500Y-62864977D01*
X189145145Y-62833454D01*
X189128425Y-62814158D01*
X188998494Y-62628597D01*
X188831402Y-62461506D01*
X188831395Y-62461501D01*
X188637834Y-62325967D01*
X188637830Y-62325965D01*
X188566727Y-62292809D01*
X188423663Y-62226097D01*
X188423659Y-62226096D01*
X188423655Y-62226094D01*
X188195413Y-62164938D01*
X188195403Y-62164936D01*
X187960001Y-62144341D01*
X187959999Y-62144341D01*
X187724596Y-62164936D01*
X187724586Y-62164938D01*
X187496344Y-62226094D01*
X187496335Y-62226098D01*
X187282171Y-62325964D01*
X187282169Y-62325965D01*
X187088600Y-62461503D01*
X186966284Y-62583819D01*
X186904961Y-62617303D01*
X186835269Y-62612319D01*
X186779336Y-62570447D01*
X186762421Y-62539470D01*
X186713354Y-62407913D01*
X186713350Y-62407906D01*
X186627190Y-62292812D01*
X186627187Y-62292809D01*
X186512093Y-62206649D01*
X186512086Y-62206645D01*
X186377379Y-62156403D01*
X186377372Y-62156401D01*
X186317844Y-62150000D01*
X185670000Y-62150000D01*
X185670000Y-63064498D01*
X185562315Y-63015320D01*
X185455763Y-63000000D01*
X185384237Y-63000000D01*
X185277685Y-63015320D01*
X185170000Y-63064498D01*
X185170000Y-62150000D01*
X184522155Y-62150000D01*
X184462627Y-62156401D01*
X184462620Y-62156403D01*
X184327913Y-62206645D01*
X184327906Y-62206649D01*
X184212812Y-62292809D01*
X184212809Y-62292812D01*
X184126649Y-62407906D01*
X184126645Y-62407913D01*
X184076403Y-62542620D01*
X184076401Y-62542627D01*
X184070000Y-62602155D01*
X184070000Y-63250000D01*
X184986314Y-63250000D01*
X184960507Y-63290156D01*
X184920000Y-63428111D01*
X184920000Y-63571889D01*
X184960507Y-63709844D01*
X184986314Y-63750000D01*
X184070000Y-63750000D01*
X184070000Y-64397844D01*
X139119212Y-64397844D01*
X138706819Y-63985451D01*
X138673334Y-63924128D01*
X138670500Y-63897770D01*
X138670500Y-59206728D01*
X138678318Y-59163394D01*
X138714091Y-59067483D01*
X138720500Y-59007873D01*
X138720500Y-58535000D01*
X139170000Y-58535000D01*
X139170000Y-59460000D01*
X139267828Y-59460000D01*
X139267844Y-59459999D01*
X139327372Y-59453598D01*
X139327379Y-59453596D01*
X139462086Y-59403354D01*
X139462093Y-59403350D01*
X139577187Y-59317190D01*
X139577190Y-59317187D01*
X139663350Y-59202093D01*
X139663354Y-59202086D01*
X139713596Y-59067379D01*
X139713598Y-59067372D01*
X139719999Y-59007844D01*
X139720000Y-59007827D01*
X139720000Y-58535000D01*
X139170000Y-58535000D01*
X138720500Y-58535000D01*
X138720499Y-57562128D01*
X138714091Y-57502517D01*
X138713867Y-57501917D01*
X138677818Y-57405263D01*
X138670000Y-57361930D01*
X138670000Y-57110000D01*
X139170000Y-57110000D01*
X139170000Y-58035000D01*
X139720000Y-58035000D01*
X139720000Y-57562172D01*
X139719999Y-57562155D01*
X139713598Y-57502627D01*
X139713596Y-57502620D01*
X139663354Y-57367913D01*
X139663350Y-57367906D01*
X139577190Y-57252812D01*
X139577187Y-57252809D01*
X139462093Y-57166649D01*
X139462086Y-57166645D01*
X139417463Y-57150002D01*
X203755227Y-57150002D01*
X203774306Y-57501900D01*
X203774308Y-57501917D01*
X203831319Y-57849667D01*
X203831325Y-57849693D01*
X203925600Y-58189243D01*
X203925602Y-58189250D01*
X204056043Y-58516634D01*
X204056052Y-58516652D01*
X204221124Y-58828011D01*
X204418896Y-59119702D01*
X204541914Y-59264532D01*
X205712266Y-58094180D01*
X205875130Y-58284870D01*
X206065819Y-58447733D01*
X204892625Y-59620926D01*
X204892625Y-59620928D01*
X204902900Y-59630660D01*
X205183460Y-59843938D01*
X205183464Y-59843941D01*
X205485445Y-60025635D01*
X205805273Y-60173603D01*
X206139256Y-60286136D01*
X206483437Y-60361896D01*
X206833788Y-60399999D01*
X206833795Y-60400000D01*
X207186205Y-60400000D01*
X207186211Y-60399999D01*
X207536562Y-60361896D01*
X207880743Y-60286136D01*
X208214726Y-60173603D01*
X208534554Y-60025635D01*
X208836535Y-59843941D01*
X208836539Y-59843938D01*
X209117093Y-59630665D01*
X209117105Y-59630654D01*
X209127373Y-59620927D01*
X209127373Y-59620926D01*
X207954180Y-58447733D01*
X208144870Y-58284870D01*
X208307733Y-58094181D01*
X209478084Y-59264532D01*
X209478085Y-59264531D01*
X209601102Y-59119704D01*
X209798875Y-58828011D01*
X209963947Y-58516652D01*
X209963956Y-58516634D01*
X210094397Y-58189250D01*
X210094399Y-58189243D01*
X210188674Y-57849693D01*
X210188680Y-57849667D01*
X210245691Y-57501917D01*
X210245693Y-57501900D01*
X210264773Y-57150002D01*
X210264773Y-57149997D01*
X210245693Y-56798099D01*
X210245691Y-56798082D01*
X210188680Y-56450332D01*
X210188674Y-56450306D01*
X210094399Y-56110756D01*
X210094397Y-56110749D01*
X209963956Y-55783365D01*
X209963947Y-55783347D01*
X209798875Y-55471988D01*
X209601099Y-55180291D01*
X209478085Y-55035467D01*
X209478084Y-55035466D01*
X208307732Y-56205818D01*
X208144870Y-56015130D01*
X207954180Y-55852266D01*
X209127374Y-54679073D01*
X209127373Y-54679072D01*
X209117099Y-54669340D01*
X209117087Y-54669330D01*
X208836539Y-54456061D01*
X208836535Y-54456058D01*
X208534554Y-54274364D01*
X208214726Y-54126396D01*
X207880743Y-54013863D01*
X207536562Y-53938103D01*
X207186211Y-53900000D01*
X206833788Y-53900000D01*
X206483437Y-53938103D01*
X206139256Y-54013863D01*
X205805273Y-54126396D01*
X205485445Y-54274364D01*
X205183464Y-54456058D01*
X205183460Y-54456061D01*
X204902906Y-54669334D01*
X204892625Y-54679071D01*
X204892625Y-54679073D01*
X206065819Y-55852266D01*
X205875130Y-56015130D01*
X205712266Y-56205818D01*
X204541914Y-55035466D01*
X204541913Y-55035466D01*
X204418896Y-55180296D01*
X204221124Y-55471988D01*
X204056052Y-55783347D01*
X204056043Y-55783365D01*
X203925602Y-56110749D01*
X203925600Y-56110756D01*
X203831325Y-56450306D01*
X203831319Y-56450332D01*
X203774308Y-56798082D01*
X203774306Y-56798099D01*
X203755227Y-57149997D01*
X203755227Y-57150002D01*
X139417463Y-57150002D01*
X139327379Y-57116403D01*
X139327372Y-57116401D01*
X139267844Y-57110000D01*
X139170000Y-57110000D01*
X138670000Y-57110000D01*
X138572155Y-57110000D01*
X138512627Y-57116401D01*
X138512623Y-57116402D01*
X138464046Y-57134520D01*
X138394354Y-57139503D01*
X138377382Y-57134519D01*
X138327488Y-57115910D01*
X138327484Y-57115909D01*
X138327483Y-57115909D01*
X138267873Y-57109500D01*
X138267863Y-57109500D01*
X137572129Y-57109500D01*
X137572123Y-57109501D01*
X137512516Y-57115908D01*
X137463332Y-57134253D01*
X137393640Y-57139237D01*
X137376667Y-57134253D01*
X137327486Y-57115910D01*
X137327485Y-57115909D01*
X137327483Y-57115909D01*
X137267873Y-57109500D01*
X137267863Y-57109500D01*
X136572129Y-57109500D01*
X136572123Y-57109501D01*
X136512516Y-57115908D01*
X136463332Y-57134253D01*
X136393640Y-57139237D01*
X136376667Y-57134253D01*
X136327486Y-57115910D01*
X136327485Y-57115909D01*
X136327483Y-57115909D01*
X136267873Y-57109500D01*
X136267863Y-57109500D01*
X135572129Y-57109500D01*
X135572123Y-57109501D01*
X135512516Y-57115908D01*
X135377671Y-57166202D01*
X135377664Y-57166206D01*
X135262455Y-57252452D01*
X135262452Y-57252455D01*
X135176206Y-57367664D01*
X135176202Y-57367671D01*
X135125908Y-57502517D01*
X135121140Y-57546872D01*
X135119501Y-57562123D01*
X135119500Y-57562135D01*
X135119500Y-59007870D01*
X135119501Y-59007876D01*
X135125908Y-59067483D01*
X135176202Y-59202328D01*
X135176203Y-59202329D01*
X135176204Y-59202331D01*
X135262454Y-59317546D01*
X135269808Y-59323051D01*
X135311681Y-59378983D01*
X135319500Y-59422320D01*
X135319500Y-61617060D01*
X135299815Y-61684099D01*
X135283181Y-61704741D01*
X135260184Y-61727737D01*
X135164211Y-61880476D01*
X135104631Y-62050745D01*
X135104630Y-62050750D01*
X135084435Y-62229996D01*
X135084435Y-62230003D01*
X135104630Y-62409249D01*
X135104631Y-62409254D01*
X135164211Y-62579523D01*
X135195048Y-62628599D01*
X135260184Y-62732262D01*
X135387738Y-62859816D01*
X135540478Y-62955789D01*
X135666826Y-63000000D01*
X135710745Y-63015368D01*
X135710750Y-63015369D01*
X135889996Y-63035565D01*
X135890000Y-63035565D01*
X135890004Y-63035565D01*
X136069249Y-63015369D01*
X136069252Y-63015368D01*
X136069255Y-63015368D01*
X136239522Y-62955789D01*
X136392262Y-62859816D01*
X136519816Y-62732262D01*
X136615789Y-62579522D01*
X136654381Y-62469231D01*
X136695103Y-62412456D01*
X136760055Y-62386708D01*
X136785304Y-62386965D01*
X136853360Y-62394633D01*
X136905998Y-62400565D01*
X136906000Y-62400565D01*
X136906004Y-62400565D01*
X137031617Y-62386412D01*
X137100438Y-62398467D01*
X137151818Y-62445816D01*
X137169500Y-62509632D01*
X137169500Y-64196294D01*
X137168191Y-64214263D01*
X137164710Y-64238025D01*
X137169028Y-64287368D01*
X137169500Y-64298176D01*
X137169500Y-64303711D01*
X137173098Y-64334495D01*
X137173464Y-64338083D01*
X137180000Y-64412791D01*
X137181461Y-64419867D01*
X137181403Y-64419878D01*
X137183034Y-64427237D01*
X137183092Y-64427224D01*
X137184757Y-64434249D01*
X137210400Y-64504705D01*
X137211582Y-64508107D01*
X137235182Y-64579326D01*
X137238236Y-64585874D01*
X137238182Y-64585898D01*
X137241470Y-64592688D01*
X137241521Y-64592663D01*
X137244761Y-64599114D01*
X137285979Y-64661784D01*
X137287889Y-64664782D01*
X137315839Y-64710094D01*
X137327289Y-64728658D01*
X137331766Y-64734319D01*
X137331719Y-64734356D01*
X137336482Y-64740202D01*
X137336528Y-64740164D01*
X137341173Y-64745699D01*
X137395708Y-64797150D01*
X137398296Y-64799664D01*
X138169979Y-65571347D01*
X138913181Y-66314548D01*
X138946666Y-66375871D01*
X138949500Y-66402229D01*
X138949500Y-69932298D01*
X138929815Y-69999337D01*
X138896625Y-70033872D01*
X138828595Y-70081507D01*
X138661505Y-70248597D01*
X138531575Y-70434158D01*
X138476998Y-70477783D01*
X138407500Y-70484977D01*
X138345145Y-70453454D01*
X138328425Y-70434158D01*
X138198494Y-70248597D01*
X138031402Y-70081506D01*
X138031395Y-70081501D01*
X137837834Y-69945967D01*
X137837830Y-69945965D01*
X137808521Y-69932298D01*
X137623663Y-69846097D01*
X137623659Y-69846096D01*
X137623655Y-69846094D01*
X137395413Y-69784938D01*
X137395403Y-69784936D01*
X137160001Y-69764341D01*
X137159999Y-69764341D01*
X136924596Y-69784936D01*
X136924586Y-69784938D01*
X136696344Y-69846094D01*
X136696335Y-69846098D01*
X136482171Y-69945964D01*
X136482169Y-69945965D01*
X136288597Y-70081505D01*
X136121508Y-70248594D01*
X135991269Y-70434595D01*
X135936692Y-70478219D01*
X135867193Y-70485412D01*
X135804839Y-70453890D01*
X135788119Y-70434594D01*
X135658113Y-70248926D01*
X135658108Y-70248920D01*
X135491082Y-70081894D01*
X135297578Y-69946399D01*
X135083492Y-69846570D01*
X135083486Y-69846567D01*
X134870000Y-69789364D01*
X134870000Y-70684498D01*
X134762315Y-70635320D01*
X134655763Y-70620000D01*
X134584237Y-70620000D01*
X134477685Y-70635320D01*
X134370000Y-70684498D01*
X134370000Y-69789364D01*
X134369999Y-69789364D01*
X134156513Y-69846567D01*
X134156507Y-69846570D01*
X133942422Y-69946399D01*
X133942420Y-69946400D01*
X133748926Y-70081886D01*
X133748920Y-70081891D01*
X133581891Y-70248920D01*
X133581890Y-70248922D01*
X133451880Y-70434595D01*
X133397303Y-70478219D01*
X133327804Y-70485412D01*
X133265450Y-70453890D01*
X133248730Y-70434594D01*
X133118494Y-70248597D01*
X132951402Y-70081506D01*
X132951395Y-70081501D01*
X132757834Y-69945967D01*
X132757830Y-69945965D01*
X132728521Y-69932298D01*
X132543663Y-69846097D01*
X132543659Y-69846096D01*
X132543655Y-69846094D01*
X132315413Y-69784938D01*
X132315403Y-69784936D01*
X132080001Y-69764341D01*
X132079999Y-69764341D01*
X131844596Y-69784936D01*
X131844586Y-69784938D01*
X131616344Y-69846094D01*
X131616335Y-69846098D01*
X131402171Y-69945964D01*
X131402169Y-69945965D01*
X131208600Y-70081503D01*
X131086673Y-70203430D01*
X131025350Y-70236914D01*
X130955658Y-70231930D01*
X130899725Y-70190058D01*
X130882810Y-70159081D01*
X130833797Y-70027671D01*
X130833793Y-70027664D01*
X130747547Y-69912455D01*
X130747544Y-69912452D01*
X130632335Y-69826206D01*
X130632328Y-69826202D01*
X130497482Y-69775908D01*
X130497483Y-69775908D01*
X130437883Y-69769501D01*
X130437881Y-69769500D01*
X130437873Y-69769500D01*
X130437865Y-69769500D01*
X130414500Y-69769500D01*
X130347461Y-69749815D01*
X130301706Y-69697011D01*
X130290500Y-69645500D01*
X130290500Y-66103705D01*
X130291809Y-66085735D01*
X130295289Y-66061974D01*
X130290972Y-66012635D01*
X130290500Y-66001826D01*
X130290500Y-65996296D01*
X130290500Y-65996291D01*
X130286894Y-65965443D01*
X130286534Y-65961916D01*
X130279999Y-65887209D01*
X130278538Y-65880135D01*
X130278598Y-65880122D01*
X130276965Y-65872757D01*
X130276906Y-65872772D01*
X130275241Y-65865751D01*
X130275241Y-65865745D01*
X130249569Y-65795211D01*
X130248422Y-65791913D01*
X130224814Y-65720665D01*
X130224809Y-65720658D01*
X130221761Y-65714118D01*
X130221815Y-65714092D01*
X130218533Y-65707312D01*
X130218480Y-65707340D01*
X130215238Y-65700885D01*
X130215236Y-65700882D01*
X130174024Y-65638222D01*
X130172107Y-65635212D01*
X130132714Y-65571347D01*
X130128234Y-65565681D01*
X130128280Y-65565643D01*
X130123519Y-65559799D01*
X130123474Y-65559838D01*
X130118831Y-65554305D01*
X130064290Y-65502848D01*
X130061703Y-65500335D01*
X128845729Y-64284361D01*
X128833949Y-64270730D01*
X128819610Y-64251470D01*
X128781651Y-64219619D01*
X128773686Y-64212318D01*
X128769780Y-64208411D01*
X128745443Y-64189168D01*
X128742647Y-64186890D01*
X128685214Y-64138698D01*
X128679180Y-64134729D01*
X128679212Y-64134680D01*
X128672853Y-64130628D01*
X128672822Y-64130679D01*
X128666680Y-64126891D01*
X128666678Y-64126890D01*
X128666677Y-64126889D01*
X128598688Y-64095184D01*
X128595447Y-64093615D01*
X128564530Y-64078088D01*
X128528433Y-64059960D01*
X128528431Y-64059959D01*
X128528430Y-64059959D01*
X128521645Y-64057489D01*
X128521665Y-64057433D01*
X128514549Y-64054959D01*
X128514531Y-64055015D01*
X128507674Y-64052743D01*
X128434210Y-64037573D01*
X128430693Y-64036793D01*
X128357718Y-64019499D01*
X128350547Y-64018661D01*
X128350553Y-64018601D01*
X128343055Y-64017835D01*
X128343050Y-64017895D01*
X128335860Y-64017265D01*
X128260870Y-64019448D01*
X128257263Y-64019500D01*
X126092229Y-64019500D01*
X126025190Y-63999815D01*
X126004548Y-63983181D01*
X124786819Y-62765451D01*
X124753334Y-62704128D01*
X124750500Y-62677770D01*
X124750500Y-59500273D01*
X124770185Y-59433234D01*
X124803380Y-59398696D01*
X124814620Y-59390826D01*
X124912320Y-59293125D01*
X124973641Y-59259642D01*
X125043333Y-59264626D01*
X125087681Y-59293127D01*
X125185380Y-59390826D01*
X125185382Y-59390827D01*
X125185384Y-59390829D01*
X125230358Y-59422320D01*
X125346623Y-59503729D01*
X125390248Y-59558306D01*
X125399500Y-59605304D01*
X125399500Y-60996060D01*
X125379815Y-61063099D01*
X125363181Y-61083741D01*
X125354184Y-61092737D01*
X125258211Y-61245476D01*
X125198631Y-61415745D01*
X125198630Y-61415750D01*
X125178435Y-61594996D01*
X125178435Y-61595003D01*
X125198630Y-61774249D01*
X125198631Y-61774254D01*
X125258211Y-61944523D01*
X125354184Y-62097262D01*
X125481738Y-62224816D01*
X125634478Y-62320789D01*
X125720499Y-62350889D01*
X125804745Y-62380368D01*
X125804750Y-62380369D01*
X125983996Y-62400565D01*
X125984000Y-62400565D01*
X125984004Y-62400565D01*
X126163249Y-62380369D01*
X126163252Y-62380368D01*
X126163255Y-62380368D01*
X126333522Y-62320789D01*
X126486262Y-62224816D01*
X126613816Y-62097262D01*
X126709789Y-61944522D01*
X126769368Y-61774255D01*
X126774609Y-61727738D01*
X126789565Y-61595003D01*
X126789565Y-61594996D01*
X126769369Y-61415750D01*
X126769368Y-61415745D01*
X126709788Y-61245476D01*
X126619506Y-61101793D01*
X126600500Y-61035821D01*
X126600500Y-59605304D01*
X126620185Y-59538265D01*
X126653376Y-59503730D01*
X126686367Y-59480629D01*
X126752572Y-59458301D01*
X126820340Y-59475311D01*
X126856757Y-59507891D01*
X126875551Y-59532997D01*
X126880455Y-59539547D01*
X126995664Y-59625793D01*
X126995671Y-59625797D01*
X127008694Y-59630654D01*
X127130517Y-59676091D01*
X127190127Y-59682500D01*
X127275501Y-59682499D01*
X127342538Y-59702183D01*
X127388294Y-59754986D01*
X127399500Y-59806499D01*
X127399500Y-61647587D01*
X127379815Y-61714626D01*
X127372450Y-61724896D01*
X127370186Y-61727734D01*
X127274211Y-61880476D01*
X127214631Y-62050745D01*
X127214630Y-62050750D01*
X127194435Y-62229996D01*
X127194435Y-62230003D01*
X127214630Y-62409249D01*
X127214631Y-62409254D01*
X127274211Y-62579523D01*
X127305048Y-62628599D01*
X127370184Y-62732262D01*
X127497738Y-62859816D01*
X127650478Y-62955789D01*
X127776826Y-63000000D01*
X127820745Y-63015368D01*
X127820750Y-63015369D01*
X127999996Y-63035565D01*
X128000000Y-63035565D01*
X128000004Y-63035565D01*
X128179249Y-63015369D01*
X128179252Y-63015368D01*
X128179255Y-63015368D01*
X128349522Y-62955789D01*
X128502262Y-62859816D01*
X128629816Y-62732262D01*
X128725789Y-62579522D01*
X128785368Y-62409255D01*
X128785369Y-62409249D01*
X128805565Y-62230003D01*
X128805565Y-62229996D01*
X128785369Y-62050750D01*
X128785368Y-62050745D01*
X128725788Y-61880476D01*
X128692645Y-61827730D01*
X128629816Y-61727738D01*
X128629814Y-61727736D01*
X128629813Y-61727734D01*
X128627550Y-61724896D01*
X128626659Y-61722715D01*
X128626111Y-61721842D01*
X128626264Y-61721745D01*
X128601144Y-61660209D01*
X128600500Y-61647587D01*
X128600500Y-59806499D01*
X128620185Y-59739460D01*
X128672989Y-59693705D01*
X128724500Y-59682499D01*
X128809871Y-59682499D01*
X128809872Y-59682499D01*
X128869483Y-59676091D01*
X129004331Y-59625796D01*
X129119546Y-59539546D01*
X129205796Y-59424331D01*
X129256091Y-59289483D01*
X129262500Y-59229873D01*
X129262499Y-57610128D01*
X129256091Y-57550517D01*
X129238229Y-57502627D01*
X129205797Y-57415671D01*
X129205793Y-57415664D01*
X129119547Y-57300455D01*
X129119544Y-57300452D01*
X129004335Y-57214206D01*
X129004328Y-57214202D01*
X128869482Y-57163908D01*
X128869483Y-57163908D01*
X128809883Y-57157501D01*
X128809881Y-57157500D01*
X128809873Y-57157500D01*
X128809864Y-57157500D01*
X127190129Y-57157500D01*
X127190123Y-57157501D01*
X127130516Y-57163908D01*
X126995671Y-57214202D01*
X126995664Y-57214206D01*
X126880455Y-57300452D01*
X126880453Y-57300454D01*
X126856756Y-57332109D01*
X126800821Y-57373979D01*
X126731130Y-57378962D01*
X126686369Y-57359372D01*
X126633662Y-57322466D01*
X126433450Y-57229106D01*
X126433447Y-57229105D01*
X126433445Y-57229104D01*
X126220070Y-57171930D01*
X126220062Y-57171929D01*
X126000002Y-57152677D01*
X125999998Y-57152677D01*
X125779937Y-57171929D01*
X125779929Y-57171930D01*
X125566554Y-57229104D01*
X125566548Y-57229107D01*
X125366340Y-57322465D01*
X125366338Y-57322466D01*
X125185381Y-57449172D01*
X125087680Y-57546873D01*
X125026356Y-57580357D01*
X124956665Y-57575373D01*
X124912318Y-57546872D01*
X124814621Y-57449175D01*
X124814615Y-57449170D01*
X124633666Y-57322468D01*
X124633662Y-57322466D01*
X124586457Y-57300454D01*
X124433450Y-57229106D01*
X124433447Y-57229105D01*
X124433445Y-57229104D01*
X124220070Y-57171930D01*
X124220062Y-57171929D01*
X124000002Y-57152677D01*
X123999998Y-57152677D01*
X123779937Y-57171929D01*
X123779929Y-57171930D01*
X123566554Y-57229104D01*
X123566548Y-57229107D01*
X123366340Y-57322465D01*
X123366338Y-57322466D01*
X123185377Y-57449175D01*
X123029175Y-57605377D01*
X122902465Y-57786339D01*
X122837657Y-57925320D01*
X122812956Y-57960595D01*
X122384903Y-58388648D01*
X122384949Y-58388102D01*
X122353734Y-58264838D01*
X122284187Y-58158388D01*
X122183843Y-58080287D01*
X122063578Y-58039000D01*
X122027448Y-58039000D01*
X122698188Y-57368259D01*
X122698187Y-57368258D01*
X122633411Y-57322901D01*
X122633405Y-57322898D01*
X122433284Y-57229580D01*
X122433270Y-57229575D01*
X122219986Y-57172426D01*
X122219976Y-57172424D01*
X122000001Y-57153179D01*
X121999999Y-57153179D01*
X121780023Y-57172424D01*
X121780013Y-57172426D01*
X121566729Y-57229575D01*
X121566720Y-57229579D01*
X121366590Y-57322901D01*
X121301811Y-57368258D01*
X121972553Y-58039000D01*
X121968431Y-58039000D01*
X121874579Y-58054661D01*
X121762749Y-58115180D01*
X121676629Y-58208731D01*
X121625552Y-58325177D01*
X121619894Y-58393447D01*
X120948258Y-57721811D01*
X120902901Y-57786590D01*
X120809579Y-57986720D01*
X120809575Y-57986729D01*
X120752426Y-58200013D01*
X120752424Y-58200023D01*
X120733179Y-58419999D01*
X120733179Y-58420000D01*
X120752424Y-58639976D01*
X120752426Y-58639986D01*
X120809575Y-58853270D01*
X120809580Y-58853284D01*
X120902898Y-59053405D01*
X120902901Y-59053411D01*
X120948258Y-59118187D01*
X120948259Y-59118188D01*
X121615096Y-58451350D01*
X121615051Y-58451898D01*
X121646266Y-58575162D01*
X121715813Y-58681612D01*
X121816157Y-58759713D01*
X121936422Y-58801000D01*
X121972553Y-58801000D01*
X121301810Y-59471740D01*
X121366590Y-59517099D01*
X121366592Y-59517100D01*
X121566715Y-59610419D01*
X121566729Y-59610424D01*
X121780013Y-59667573D01*
X121780023Y-59667575D01*
X121999999Y-59686821D01*
X122000001Y-59686821D01*
X122219976Y-59667575D01*
X122219986Y-59667573D01*
X122433270Y-59610424D01*
X122433284Y-59610419D01*
X122633407Y-59517100D01*
X122633417Y-59517094D01*
X122698188Y-59471741D01*
X122027448Y-58801000D01*
X122031569Y-58801000D01*
X122125421Y-58785339D01*
X122237251Y-58724820D01*
X122323371Y-58631269D01*
X122374448Y-58514823D01*
X122380105Y-58446552D01*
X122812956Y-58879403D01*
X122837657Y-58914679D01*
X122902466Y-59053662D01*
X122902468Y-59053666D01*
X123025850Y-59229873D01*
X123029174Y-59234620D01*
X123185380Y-59390826D01*
X123196620Y-59398696D01*
X123240247Y-59453271D01*
X123249500Y-59500273D01*
X123249500Y-62976294D01*
X123248191Y-62994263D01*
X123244710Y-63018025D01*
X123249028Y-63067368D01*
X123249500Y-63078176D01*
X123249500Y-63083711D01*
X123253098Y-63114495D01*
X123253464Y-63118083D01*
X123260000Y-63192791D01*
X123261461Y-63199867D01*
X123261403Y-63199878D01*
X123263034Y-63207237D01*
X123263092Y-63207224D01*
X123264757Y-63214249D01*
X123264758Y-63214254D01*
X123264759Y-63214255D01*
X123283079Y-63264592D01*
X123290400Y-63284705D01*
X123291582Y-63288107D01*
X123315182Y-63359326D01*
X123318236Y-63365874D01*
X123318182Y-63365898D01*
X123321470Y-63372688D01*
X123321521Y-63372663D01*
X123324761Y-63379114D01*
X123365979Y-63441784D01*
X123367889Y-63444782D01*
X123398972Y-63495174D01*
X123407289Y-63508658D01*
X123411766Y-63514319D01*
X123411719Y-63514356D01*
X123416482Y-63520202D01*
X123416528Y-63520164D01*
X123421173Y-63525699D01*
X123475708Y-63577150D01*
X123478296Y-63579664D01*
X124318510Y-64419878D01*
X125154267Y-65255634D01*
X125166048Y-65269266D01*
X125180390Y-65288530D01*
X125218343Y-65320376D01*
X125226319Y-65327686D01*
X125230222Y-65331590D01*
X125230223Y-65331591D01*
X125254538Y-65350816D01*
X125257293Y-65353059D01*
X125314786Y-65401302D01*
X125314790Y-65401304D01*
X125320823Y-65405272D01*
X125320789Y-65405322D01*
X125327144Y-65409370D01*
X125327177Y-65409318D01*
X125333315Y-65413104D01*
X125333323Y-65413110D01*
X125401291Y-65444804D01*
X125404452Y-65446333D01*
X125471567Y-65480040D01*
X125471572Y-65480041D01*
X125478355Y-65482510D01*
X125478334Y-65482567D01*
X125485451Y-65485040D01*
X125485470Y-65484984D01*
X125492324Y-65487255D01*
X125492325Y-65487255D01*
X125492327Y-65487256D01*
X125565848Y-65502436D01*
X125569209Y-65503181D01*
X125642279Y-65520500D01*
X125642285Y-65520500D01*
X125649452Y-65521338D01*
X125649445Y-65521397D01*
X125656946Y-65522163D01*
X125656952Y-65522104D01*
X125664141Y-65522733D01*
X125664143Y-65522732D01*
X125664144Y-65522733D01*
X125739111Y-65520552D01*
X125742717Y-65520500D01*
X127907770Y-65520500D01*
X127974809Y-65540185D01*
X127995451Y-65556819D01*
X128753181Y-66314548D01*
X128786666Y-66375871D01*
X128789500Y-66402229D01*
X128789500Y-69645500D01*
X128769815Y-69712539D01*
X128717011Y-69758294D01*
X128665505Y-69769500D01*
X128642132Y-69769500D01*
X128642123Y-69769501D01*
X128582516Y-69775908D01*
X128447671Y-69826202D01*
X128447664Y-69826206D01*
X128332455Y-69912452D01*
X128332452Y-69912455D01*
X128246206Y-70027664D01*
X128246202Y-70027671D01*
X128195908Y-70162517D01*
X128189501Y-70222116D01*
X128189500Y-70222135D01*
X128189500Y-72017870D01*
X128189501Y-72017876D01*
X128195908Y-72077483D01*
X128246202Y-72212328D01*
X128246206Y-72212335D01*
X128332452Y-72327544D01*
X128332453Y-72327544D01*
X128332454Y-72327546D01*
X128337205Y-72331102D01*
X128379078Y-72387032D01*
X128384065Y-72456724D01*
X128350583Y-72518048D01*
X128350579Y-72518052D01*
X125455451Y-75413181D01*
X125394128Y-75446666D01*
X125367770Y-75449500D01*
X123924499Y-75449500D01*
X123857460Y-75429815D01*
X123811705Y-75377011D01*
X123800499Y-75325500D01*
X123800499Y-75302129D01*
X123800498Y-75302123D01*
X123800497Y-75302116D01*
X123794091Y-75242517D01*
X123791817Y-75236421D01*
X123743797Y-75107671D01*
X123743793Y-75107664D01*
X123657547Y-74992455D01*
X123657544Y-74992452D01*
X123542335Y-74906206D01*
X123542328Y-74906202D01*
X123407482Y-74855908D01*
X123407483Y-74855908D01*
X123347883Y-74849501D01*
X123347881Y-74849500D01*
X123347873Y-74849500D01*
X123347865Y-74849500D01*
X120714385Y-74849500D01*
X120703578Y-74849028D01*
X120650001Y-74844341D01*
X120649997Y-74844341D01*
X120596419Y-74849028D01*
X120585613Y-74849500D01*
X119752129Y-74849500D01*
X119752123Y-74849501D01*
X119692516Y-74855908D01*
X119557671Y-74906202D01*
X119557664Y-74906206D01*
X119442455Y-74992452D01*
X119442452Y-74992455D01*
X119356206Y-75107664D01*
X119356202Y-75107671D01*
X119305908Y-75242517D01*
X119299877Y-75298621D01*
X119299501Y-75302123D01*
X119299500Y-75302135D01*
X119299500Y-76135616D01*
X119299028Y-76146423D01*
X119294341Y-76199997D01*
X119294341Y-76200002D01*
X119299028Y-76253576D01*
X119299500Y-76264383D01*
X119299500Y-77097870D01*
X119299501Y-77097876D01*
X119305908Y-77157483D01*
X119356202Y-77292328D01*
X119356203Y-77292330D01*
X119433578Y-77395689D01*
X119457995Y-77461153D01*
X119443144Y-77529426D01*
X119433578Y-77544309D01*
X119423168Y-77558216D01*
X119356203Y-77647669D01*
X119356202Y-77647671D01*
X119305908Y-77782517D01*
X119301930Y-77819522D01*
X119299501Y-77842123D01*
X119299500Y-77842135D01*
X119299500Y-78675616D01*
X119299028Y-78686423D01*
X119294341Y-78739997D01*
X119294341Y-78740002D01*
X119299028Y-78793576D01*
X119299500Y-78804383D01*
X119299500Y-79637870D01*
X119299501Y-79637876D01*
X119305908Y-79697483D01*
X119356202Y-79832328D01*
X119356206Y-79832335D01*
X119433889Y-79936105D01*
X119458307Y-80001569D01*
X119443456Y-80069842D01*
X119433890Y-80084727D01*
X119356647Y-80187910D01*
X119356645Y-80187913D01*
X119306403Y-80322620D01*
X119306401Y-80322627D01*
X119300000Y-80382155D01*
X119300000Y-81030000D01*
X120204428Y-81030000D01*
X120181318Y-81065960D01*
X120140000Y-81206673D01*
X120140000Y-81353327D01*
X120181318Y-81494040D01*
X120204428Y-81530000D01*
X119300000Y-81530000D01*
X119300000Y-82177844D01*
X119306401Y-82237372D01*
X119306403Y-82237379D01*
X119356645Y-82372086D01*
X119356646Y-82372088D01*
X119433890Y-82475272D01*
X119458307Y-82540736D01*
X119443456Y-82609009D01*
X119433890Y-82623894D01*
X119356204Y-82727669D01*
X119356202Y-82727671D01*
X119305908Y-82862517D01*
X119301930Y-82899522D01*
X119299501Y-82922123D01*
X119299500Y-82922135D01*
X119299500Y-83755616D01*
X119299028Y-83766423D01*
X119294341Y-83819997D01*
X119294341Y-83820002D01*
X119299028Y-83873576D01*
X119299500Y-83884383D01*
X119299500Y-84717870D01*
X119299501Y-84717876D01*
X119305908Y-84777483D01*
X119356202Y-84912328D01*
X119356203Y-84912330D01*
X119433578Y-85015689D01*
X119457995Y-85081153D01*
X119443144Y-85149426D01*
X119433578Y-85164311D01*
X119356203Y-85267669D01*
X119356202Y-85267671D01*
X119305908Y-85402517D01*
X119301930Y-85439522D01*
X119299501Y-85462123D01*
X119299500Y-85462135D01*
X119299500Y-86295616D01*
X119299028Y-86306423D01*
X119294341Y-86359997D01*
X119294341Y-86360002D01*
X119299028Y-86413576D01*
X119299500Y-86424383D01*
X119299500Y-87257870D01*
X119299501Y-87257876D01*
X119305908Y-87317483D01*
X119356202Y-87452328D01*
X119356203Y-87452330D01*
X119433578Y-87555689D01*
X119457995Y-87621153D01*
X119443144Y-87689426D01*
X119433578Y-87704311D01*
X119356203Y-87807669D01*
X119356202Y-87807671D01*
X119305908Y-87942517D01*
X119301930Y-87979522D01*
X119299501Y-88002123D01*
X119299500Y-88002135D01*
X119299500Y-88835616D01*
X119299028Y-88846423D01*
X119294341Y-88899997D01*
X119294341Y-88900002D01*
X119299028Y-88953576D01*
X119299500Y-88964383D01*
X119299500Y-89797870D01*
X119299501Y-89797876D01*
X119305908Y-89857483D01*
X119356202Y-89992328D01*
X119356203Y-89992330D01*
X119433578Y-90095689D01*
X119457995Y-90161153D01*
X119443144Y-90229426D01*
X119433578Y-90244311D01*
X119356203Y-90347669D01*
X119356202Y-90347671D01*
X119305908Y-90482517D01*
X119301930Y-90519522D01*
X119299501Y-90542123D01*
X119299500Y-90542135D01*
X119299500Y-91375616D01*
X119299028Y-91386423D01*
X119294341Y-91439997D01*
X119294341Y-91440002D01*
X119299028Y-91493576D01*
X119299500Y-91504383D01*
X119299500Y-92337870D01*
X119299501Y-92337876D01*
X119305908Y-92397483D01*
X119356202Y-92532328D01*
X119356206Y-92532335D01*
X119433889Y-92636105D01*
X119458307Y-92701569D01*
X119443456Y-92769842D01*
X119433890Y-92784727D01*
X119356647Y-92887910D01*
X119356645Y-92887913D01*
X119306403Y-93022620D01*
X119306401Y-93022627D01*
X119300000Y-93082155D01*
X119300000Y-93730000D01*
X120204428Y-93730000D01*
X120181318Y-93765960D01*
X120140000Y-93906673D01*
X120140000Y-94053327D01*
X120181318Y-94194040D01*
X120204428Y-94230000D01*
X119300000Y-94230000D01*
X119300000Y-94877844D01*
X119306401Y-94937372D01*
X119306403Y-94937379D01*
X119356645Y-95072086D01*
X119356646Y-95072088D01*
X119433890Y-95175272D01*
X119458307Y-95240736D01*
X119443456Y-95309009D01*
X119433890Y-95323894D01*
X119356204Y-95427669D01*
X119356202Y-95427671D01*
X119305908Y-95562517D01*
X119301930Y-95599522D01*
X119299501Y-95622123D01*
X119299500Y-95622135D01*
X119299500Y-96455616D01*
X119299028Y-96466423D01*
X119294341Y-96519997D01*
X119294341Y-96520002D01*
X119299028Y-96573576D01*
X119299500Y-96584383D01*
X119299500Y-97417870D01*
X119299501Y-97417876D01*
X119305908Y-97477483D01*
X119356202Y-97612328D01*
X119356203Y-97612330D01*
X119433578Y-97715689D01*
X119457995Y-97781153D01*
X119443144Y-97849426D01*
X119433578Y-97864311D01*
X119356203Y-97967669D01*
X119356202Y-97967671D01*
X119305908Y-98102517D01*
X119301930Y-98139522D01*
X119299501Y-98162123D01*
X119299500Y-98162135D01*
X119299500Y-98995616D01*
X119299028Y-99006423D01*
X119294341Y-99059997D01*
X119294341Y-99060002D01*
X119299028Y-99113576D01*
X119299500Y-99124383D01*
X119299500Y-99957870D01*
X119299501Y-99957876D01*
X119305908Y-100017483D01*
X119356202Y-100152328D01*
X119356203Y-100152330D01*
X119433578Y-100255689D01*
X119457995Y-100321153D01*
X119443144Y-100389426D01*
X119433578Y-100404311D01*
X119356203Y-100507669D01*
X119356202Y-100507671D01*
X119305908Y-100642517D01*
X119301930Y-100679522D01*
X119299501Y-100702123D01*
X119299500Y-100702135D01*
X119299500Y-101535616D01*
X119299028Y-101546423D01*
X119294341Y-101599997D01*
X119294341Y-101600002D01*
X119299028Y-101653576D01*
X119299500Y-101664383D01*
X119299500Y-102497870D01*
X119299501Y-102497876D01*
X119305908Y-102557483D01*
X119356202Y-102692328D01*
X119356203Y-102692330D01*
X119433578Y-102795689D01*
X119457995Y-102861153D01*
X119443144Y-102929426D01*
X119433578Y-102944311D01*
X119356203Y-103047669D01*
X119356202Y-103047671D01*
X119305908Y-103182517D01*
X119301930Y-103219522D01*
X119299501Y-103242123D01*
X119299500Y-103242135D01*
X119299500Y-104075616D01*
X119299028Y-104086423D01*
X119294341Y-104139997D01*
X119294341Y-104140002D01*
X119299028Y-104193576D01*
X119299500Y-104204383D01*
X119299500Y-105037870D01*
X119299501Y-105037876D01*
X119305908Y-105097483D01*
X119356202Y-105232328D01*
X119356206Y-105232335D01*
X119433889Y-105336105D01*
X119458307Y-105401569D01*
X119443456Y-105469842D01*
X119433890Y-105484727D01*
X119356647Y-105587910D01*
X119356645Y-105587913D01*
X119306403Y-105722620D01*
X119306401Y-105722627D01*
X119300000Y-105782155D01*
X119300000Y-106430000D01*
X120204428Y-106430000D01*
X120181318Y-106465960D01*
X120140000Y-106606673D01*
X120140000Y-106753327D01*
X120181318Y-106894040D01*
X120204428Y-106930000D01*
X119300000Y-106930000D01*
X119300000Y-107577844D01*
X119306401Y-107637372D01*
X119306403Y-107637379D01*
X119356645Y-107772086D01*
X119356646Y-107772088D01*
X119433890Y-107875272D01*
X119458307Y-107940736D01*
X119443456Y-108009009D01*
X119433890Y-108023894D01*
X119356204Y-108127669D01*
X119356202Y-108127671D01*
X119305908Y-108262517D01*
X119301930Y-108299522D01*
X119299501Y-108322123D01*
X119299500Y-108322135D01*
X119299500Y-109155616D01*
X119299028Y-109166423D01*
X119294341Y-109219997D01*
X119294341Y-109220002D01*
X119299028Y-109273576D01*
X119299500Y-109284383D01*
X119299500Y-110117870D01*
X119299501Y-110117876D01*
X119305908Y-110177483D01*
X119356202Y-110312328D01*
X119356203Y-110312330D01*
X119433578Y-110415689D01*
X119457995Y-110481153D01*
X119443144Y-110549426D01*
X119433578Y-110564311D01*
X119356203Y-110667669D01*
X119356202Y-110667671D01*
X119305908Y-110802517D01*
X119301930Y-110839522D01*
X119299501Y-110862123D01*
X119299500Y-110862135D01*
X119299500Y-111695616D01*
X119299028Y-111706423D01*
X119294341Y-111759997D01*
X119294341Y-111760002D01*
X119299028Y-111813576D01*
X119299500Y-111824383D01*
X119299500Y-112657870D01*
X119299501Y-112657876D01*
X119305908Y-112717483D01*
X119356202Y-112852328D01*
X119356203Y-112852330D01*
X119433578Y-112955689D01*
X119457995Y-113021153D01*
X119443144Y-113089426D01*
X119433578Y-113104311D01*
X119356203Y-113207669D01*
X119356202Y-113207671D01*
X119305908Y-113342517D01*
X119301930Y-113379522D01*
X119299501Y-113402123D01*
X119299500Y-113402135D01*
X119299500Y-114235616D01*
X119299028Y-114246423D01*
X119294341Y-114299997D01*
X119294341Y-114300002D01*
X119299028Y-114353576D01*
X119299500Y-114364383D01*
X119299500Y-115197870D01*
X119299501Y-115197876D01*
X119305908Y-115257483D01*
X119356202Y-115392328D01*
X119356203Y-115392330D01*
X119433578Y-115495689D01*
X119457995Y-115561153D01*
X119443144Y-115629426D01*
X119433578Y-115644311D01*
X119356203Y-115747669D01*
X119356202Y-115747671D01*
X119305908Y-115882517D01*
X119301930Y-115919522D01*
X119299501Y-115942123D01*
X119299500Y-115942135D01*
X119299500Y-116775616D01*
X119299028Y-116786423D01*
X119294341Y-116839997D01*
X119294341Y-116840002D01*
X119299028Y-116893576D01*
X119299500Y-116904383D01*
X119299500Y-117737870D01*
X119299501Y-117737876D01*
X119305908Y-117797483D01*
X119356202Y-117932328D01*
X119356206Y-117932335D01*
X119433889Y-118036105D01*
X119458307Y-118101569D01*
X119443456Y-118169842D01*
X119433890Y-118184727D01*
X119356647Y-118287910D01*
X119356645Y-118287913D01*
X119306403Y-118422620D01*
X119306401Y-118422627D01*
X119300000Y-118482155D01*
X119300000Y-119130000D01*
X120204428Y-119130000D01*
X120181318Y-119165960D01*
X120140000Y-119306673D01*
X120140000Y-119453327D01*
X120181318Y-119594040D01*
X120204428Y-119630000D01*
X119300000Y-119630000D01*
X119300000Y-120277844D01*
X119306401Y-120337372D01*
X119306403Y-120337379D01*
X119356645Y-120472086D01*
X119356646Y-120472088D01*
X119433890Y-120575272D01*
X119458307Y-120640736D01*
X119443456Y-120709009D01*
X119433890Y-120723894D01*
X119356204Y-120827669D01*
X119356202Y-120827671D01*
X119305908Y-120962517D01*
X119301930Y-120999522D01*
X119299501Y-121022123D01*
X119299500Y-121022135D01*
X119299500Y-121855616D01*
X119299028Y-121866423D01*
X119294341Y-121919997D01*
X119294341Y-121920002D01*
X119299028Y-121973576D01*
X119299500Y-121984383D01*
X119299500Y-122817870D01*
X119299501Y-122817876D01*
X119305908Y-122877483D01*
X119356202Y-123012328D01*
X119356203Y-123012330D01*
X119433578Y-123115689D01*
X119457995Y-123181153D01*
X119443144Y-123249426D01*
X119433578Y-123264311D01*
X119356203Y-123367669D01*
X119356202Y-123367671D01*
X119305908Y-123502517D01*
X119301930Y-123539522D01*
X119299501Y-123562123D01*
X119299500Y-123562135D01*
X119299500Y-124395616D01*
X119299028Y-124406423D01*
X119294341Y-124459997D01*
X119294341Y-124460002D01*
X115650499Y-124460002D01*
X115650499Y-124294381D01*
X115650971Y-124283578D01*
X115655659Y-124230000D01*
X115655659Y-124229999D01*
X115650971Y-124176418D01*
X115650499Y-124165610D01*
X115650499Y-123332129D01*
X115650498Y-123332123D01*
X115650497Y-123332116D01*
X115644091Y-123272517D01*
X115641030Y-123264311D01*
X115593797Y-123137671D01*
X115593793Y-123137664D01*
X115507547Y-123022455D01*
X115507544Y-123022452D01*
X115392335Y-122936206D01*
X115392328Y-122936202D01*
X115257482Y-122885908D01*
X115257483Y-122885908D01*
X115197883Y-122879501D01*
X115197881Y-122879500D01*
X115197873Y-122879500D01*
X115197865Y-122879500D01*
X114364383Y-122879500D01*
X114353576Y-122879028D01*
X114300002Y-122874341D01*
X114299999Y-122874341D01*
X114264865Y-122877414D01*
X114246421Y-122879028D01*
X114235616Y-122879500D01*
X113754500Y-122879500D01*
X113687461Y-122859815D01*
X113641706Y-122807011D01*
X113630500Y-122755500D01*
X113630500Y-102182412D01*
X113650185Y-102115373D01*
X113657555Y-102105097D01*
X113659810Y-102102267D01*
X113659816Y-102102262D01*
X113755789Y-101949522D01*
X113815368Y-101779255D01*
X113828921Y-101658971D01*
X113835565Y-101600003D01*
X113835565Y-101599996D01*
X113815369Y-101420750D01*
X113815368Y-101420745D01*
X113755788Y-101250476D01*
X113699378Y-101160700D01*
X113659816Y-101097738D01*
X113532262Y-100970184D01*
X113521117Y-100963181D01*
X113379523Y-100874211D01*
X113209254Y-100814631D01*
X113209249Y-100814630D01*
X113030004Y-100794435D01*
X113029996Y-100794435D01*
X112850750Y-100814630D01*
X112850745Y-100814631D01*
X112680476Y-100874211D01*
X112527737Y-100970184D01*
X112400184Y-101097737D01*
X112304211Y-101250476D01*
X112244631Y-101420745D01*
X112244630Y-101420750D01*
X112224435Y-101599996D01*
X112224435Y-101600003D01*
X112244630Y-101779249D01*
X112244631Y-101779254D01*
X112304211Y-101949523D01*
X112353699Y-102028282D01*
X112389106Y-102084632D01*
X112400185Y-102102263D01*
X112402445Y-102105097D01*
X112403334Y-102107275D01*
X112403889Y-102108158D01*
X112403734Y-102108255D01*
X112428855Y-102169783D01*
X112429500Y-102182412D01*
X112429500Y-122756000D01*
X112409815Y-122823039D01*
X112357011Y-122868794D01*
X112305500Y-122880000D01*
X112010000Y-122880000D01*
X112010000Y-123783505D01*
X111905161Y-123735627D01*
X111796473Y-123720000D01*
X111723527Y-123720000D01*
X111614839Y-123735627D01*
X111510000Y-123783505D01*
X111510000Y-122880000D01*
X110862155Y-122880000D01*
X110802627Y-122886401D01*
X110802620Y-122886403D01*
X110667913Y-122936645D01*
X110667910Y-122936647D01*
X110564727Y-123013890D01*
X110499262Y-123038307D01*
X110430989Y-123023455D01*
X110416105Y-123013889D01*
X110312335Y-122936206D01*
X110312328Y-122936202D01*
X110177482Y-122885908D01*
X110177483Y-122885908D01*
X110117883Y-122879501D01*
X110117881Y-122879500D01*
X110117873Y-122879500D01*
X110117865Y-122879500D01*
X109284383Y-122879500D01*
X109273576Y-122879028D01*
X109220002Y-122874341D01*
X109219999Y-122874341D01*
X109184865Y-122877414D01*
X109166421Y-122879028D01*
X109155616Y-122879500D01*
X108322129Y-122879500D01*
X108322123Y-122879501D01*
X108262516Y-122885908D01*
X108127671Y-122936202D01*
X108127664Y-122936206D01*
X108012455Y-123022452D01*
X108012452Y-123022455D01*
X107926206Y-123137664D01*
X107926202Y-123137671D01*
X107875908Y-123272517D01*
X107869501Y-123332116D01*
X107869501Y-123332123D01*
X107869500Y-123332135D01*
X107869500Y-124165618D01*
X107869028Y-124176425D01*
X107864341Y-124229997D01*
X107864341Y-124230001D01*
X104220499Y-124230001D01*
X104220499Y-123562129D01*
X104220498Y-123562123D01*
X104220497Y-123562116D01*
X104214091Y-123502517D01*
X104164385Y-123369249D01*
X104163797Y-123367671D01*
X104163795Y-123367668D01*
X104137195Y-123332135D01*
X104086421Y-123264309D01*
X104062004Y-123198848D01*
X104076855Y-123130575D01*
X104086416Y-123115696D01*
X104163796Y-123012331D01*
X104214091Y-122877483D01*
X104220500Y-122817873D01*
X104220499Y-121984383D01*
X104220971Y-121973576D01*
X104225659Y-121920000D01*
X104225659Y-121919999D01*
X104220971Y-121866421D01*
X104220499Y-121855613D01*
X104220499Y-121022129D01*
X104220498Y-121022123D01*
X104220497Y-121022116D01*
X104214091Y-120962517D01*
X104164385Y-120829249D01*
X104163797Y-120827671D01*
X104163795Y-120827668D01*
X104086109Y-120723893D01*
X104061692Y-120658430D01*
X104076543Y-120590157D01*
X104086110Y-120575271D01*
X104163352Y-120472089D01*
X104163354Y-120472086D01*
X104213596Y-120337379D01*
X104213598Y-120337372D01*
X104219999Y-120277844D01*
X104220000Y-120277827D01*
X104220000Y-119630000D01*
X103315572Y-119630000D01*
X103338682Y-119594040D01*
X103380000Y-119453327D01*
X103380000Y-119306673D01*
X103338682Y-119165960D01*
X103315572Y-119130000D01*
X104220000Y-119130000D01*
X104220000Y-118482172D01*
X104219999Y-118482155D01*
X104213598Y-118422627D01*
X104213596Y-118422620D01*
X104163354Y-118287913D01*
X104163352Y-118287910D01*
X104086110Y-118184729D01*
X104061692Y-118119265D01*
X104076543Y-118050992D01*
X104086105Y-118036111D01*
X104163796Y-117932331D01*
X104214091Y-117797483D01*
X104220500Y-117737873D01*
X104220499Y-116904383D01*
X104220971Y-116893576D01*
X104225659Y-116840000D01*
X104225659Y-116839999D01*
X104220971Y-116786421D01*
X104220499Y-116775613D01*
X104220499Y-115942129D01*
X104220498Y-115942123D01*
X104220497Y-115942116D01*
X104214091Y-115882517D01*
X104164385Y-115749249D01*
X104163797Y-115747671D01*
X104163795Y-115747668D01*
X104086421Y-115644309D01*
X104062004Y-115578848D01*
X104076855Y-115510575D01*
X104086416Y-115495696D01*
X104163796Y-115392331D01*
X104214091Y-115257483D01*
X104220500Y-115197873D01*
X104220499Y-114364383D01*
X104220971Y-114353576D01*
X104225659Y-114300000D01*
X104225659Y-114299999D01*
X104220971Y-114246421D01*
X104220499Y-114235613D01*
X104220499Y-113402129D01*
X104220498Y-113402123D01*
X104220497Y-113402116D01*
X104214091Y-113342517D01*
X104164385Y-113209249D01*
X104163797Y-113207671D01*
X104163795Y-113207668D01*
X104086421Y-113104309D01*
X104062004Y-113038848D01*
X104076855Y-112970575D01*
X104086416Y-112955696D01*
X104163796Y-112852331D01*
X104214091Y-112717483D01*
X104220500Y-112657873D01*
X104220499Y-111824383D01*
X104220971Y-111813576D01*
X104225659Y-111760000D01*
X104225659Y-111759999D01*
X104220971Y-111706421D01*
X104220499Y-111695613D01*
X104220499Y-110862129D01*
X104220498Y-110862123D01*
X104220497Y-110862116D01*
X104214091Y-110802517D01*
X104164385Y-110669249D01*
X104163797Y-110667671D01*
X104163795Y-110667668D01*
X104086421Y-110564309D01*
X104062004Y-110498848D01*
X104076855Y-110430575D01*
X104086416Y-110415696D01*
X104163796Y-110312331D01*
X104214091Y-110177483D01*
X104220500Y-110117873D01*
X104220499Y-109284383D01*
X104220971Y-109273576D01*
X104225659Y-109220000D01*
X104225659Y-109219999D01*
X104220971Y-109166421D01*
X104220499Y-109155613D01*
X104220499Y-108322129D01*
X104220498Y-108322123D01*
X104220497Y-108322116D01*
X104214091Y-108262517D01*
X104164385Y-108129249D01*
X104163797Y-108127671D01*
X104163795Y-108127668D01*
X104086109Y-108023893D01*
X104061692Y-107958430D01*
X104076543Y-107890157D01*
X104086110Y-107875271D01*
X104163352Y-107772089D01*
X104163354Y-107772086D01*
X104213596Y-107637379D01*
X104213598Y-107637372D01*
X104219999Y-107577844D01*
X104220000Y-107577827D01*
X104220000Y-106930000D01*
X103315572Y-106930000D01*
X103338682Y-106894040D01*
X103380000Y-106753327D01*
X103380000Y-106606673D01*
X103338682Y-106465960D01*
X103315572Y-106430000D01*
X104220000Y-106430000D01*
X104220000Y-105782172D01*
X104219999Y-105782155D01*
X104213598Y-105722627D01*
X104213596Y-105722620D01*
X104163354Y-105587913D01*
X104163352Y-105587910D01*
X104086110Y-105484729D01*
X104061692Y-105419265D01*
X104076543Y-105350992D01*
X104086105Y-105336111D01*
X104163796Y-105232331D01*
X104214091Y-105097483D01*
X104220500Y-105037873D01*
X104220499Y-104204383D01*
X104220971Y-104193576D01*
X104225659Y-104140000D01*
X104225659Y-104139999D01*
X104220971Y-104086421D01*
X104220499Y-104075613D01*
X104220499Y-103242129D01*
X104220498Y-103242123D01*
X104220497Y-103242116D01*
X104214091Y-103182517D01*
X104164385Y-103049249D01*
X104163797Y-103047671D01*
X104163795Y-103047668D01*
X104086421Y-102944309D01*
X104062004Y-102878848D01*
X104076855Y-102810575D01*
X104086416Y-102795696D01*
X104163796Y-102692331D01*
X104214091Y-102557483D01*
X104220500Y-102497873D01*
X104220499Y-101664383D01*
X104220971Y-101653576D01*
X104225659Y-101600000D01*
X104225659Y-101599999D01*
X104220971Y-101546421D01*
X104220499Y-101535613D01*
X104220499Y-100702129D01*
X104220498Y-100702123D01*
X104220497Y-100702116D01*
X104214091Y-100642517D01*
X104164385Y-100509249D01*
X104163797Y-100507671D01*
X104163795Y-100507668D01*
X104086421Y-100404309D01*
X104062004Y-100338848D01*
X104076855Y-100270575D01*
X104086416Y-100255696D01*
X104163796Y-100152331D01*
X104214091Y-100017483D01*
X104220500Y-99957873D01*
X104220499Y-99124383D01*
X104220971Y-99113576D01*
X104225659Y-99060000D01*
X104225659Y-99059999D01*
X104220971Y-99006421D01*
X104220499Y-98995613D01*
X104220499Y-98162129D01*
X104220498Y-98162123D01*
X104220497Y-98162116D01*
X104214091Y-98102517D01*
X104164385Y-97969249D01*
X104163797Y-97967671D01*
X104163795Y-97967668D01*
X104086421Y-97864309D01*
X104062004Y-97798848D01*
X104076855Y-97730575D01*
X104086416Y-97715696D01*
X104163796Y-97612331D01*
X104214091Y-97477483D01*
X104220500Y-97417873D01*
X104220499Y-96584383D01*
X104220971Y-96573576D01*
X104225659Y-96520000D01*
X104225659Y-96519999D01*
X104220971Y-96466421D01*
X104220499Y-96455613D01*
X104220499Y-95622129D01*
X104220498Y-95622123D01*
X104220497Y-95622116D01*
X104214091Y-95562517D01*
X104164385Y-95429249D01*
X104163797Y-95427671D01*
X104163795Y-95427668D01*
X104086109Y-95323893D01*
X104061692Y-95258430D01*
X104076543Y-95190157D01*
X104086110Y-95175271D01*
X104163352Y-95072089D01*
X104163354Y-95072086D01*
X104213596Y-94937379D01*
X104213598Y-94937372D01*
X104219999Y-94877844D01*
X104220000Y-94877827D01*
X104220000Y-94230000D01*
X103315572Y-94230000D01*
X103338682Y-94194040D01*
X103380000Y-94053327D01*
X103380000Y-93906673D01*
X103338682Y-93765960D01*
X103315572Y-93730000D01*
X104220000Y-93730000D01*
X104220000Y-93082172D01*
X104219999Y-93082155D01*
X104213598Y-93022627D01*
X104213596Y-93022620D01*
X104163354Y-92887913D01*
X104163352Y-92887910D01*
X104086110Y-92784729D01*
X104061692Y-92719265D01*
X104076543Y-92650992D01*
X104086105Y-92636111D01*
X104163796Y-92532331D01*
X104214091Y-92397483D01*
X104220500Y-92337873D01*
X104220499Y-91504383D01*
X104220971Y-91493576D01*
X104225659Y-91440000D01*
X104225659Y-91439999D01*
X104220971Y-91386421D01*
X104220499Y-91375613D01*
X104220499Y-90542129D01*
X104220498Y-90542123D01*
X104220497Y-90542116D01*
X104214091Y-90482517D01*
X104164385Y-90349249D01*
X104163797Y-90347671D01*
X104163795Y-90347668D01*
X104086421Y-90244309D01*
X104062004Y-90178848D01*
X104076855Y-90110575D01*
X104086416Y-90095696D01*
X104163796Y-89992331D01*
X104214091Y-89857483D01*
X104220500Y-89797873D01*
X104220499Y-88964383D01*
X104220971Y-88953576D01*
X104225659Y-88900000D01*
X104225659Y-88899999D01*
X104220971Y-88846421D01*
X104220499Y-88835613D01*
X104220499Y-88002129D01*
X104220498Y-88002123D01*
X104220497Y-88002116D01*
X104214091Y-87942517D01*
X104164385Y-87809249D01*
X104163797Y-87807671D01*
X104163795Y-87807668D01*
X104086421Y-87704309D01*
X104062004Y-87638848D01*
X104063928Y-87630003D01*
X105239435Y-87630003D01*
X105259630Y-87809249D01*
X105259631Y-87809254D01*
X105319211Y-87979523D01*
X105415184Y-88132262D01*
X105542738Y-88259816D01*
X105695478Y-88355789D01*
X105865742Y-88415367D01*
X105865745Y-88415368D01*
X105865749Y-88415369D01*
X105952652Y-88425160D01*
X105969383Y-88427045D01*
X106033797Y-88454111D01*
X106073352Y-88511705D01*
X106079500Y-88550265D01*
X106079500Y-89587587D01*
X106059815Y-89654626D01*
X106052450Y-89664896D01*
X106050186Y-89667734D01*
X105954211Y-89820476D01*
X105894631Y-89990745D01*
X105894630Y-89990750D01*
X105874435Y-90169996D01*
X105874435Y-90170003D01*
X105894630Y-90349249D01*
X105894631Y-90349254D01*
X105954211Y-90519523D01*
X106050184Y-90672262D01*
X106177738Y-90799816D01*
X106330478Y-90895789D01*
X106500742Y-90955367D01*
X106500745Y-90955368D01*
X106500750Y-90955369D01*
X106679996Y-90975565D01*
X106680000Y-90975565D01*
X106680004Y-90975565D01*
X106859249Y-90955369D01*
X106859252Y-90955368D01*
X106859255Y-90955368D01*
X107029522Y-90895789D01*
X107182262Y-90799816D01*
X107309816Y-90672262D01*
X107405789Y-90519522D01*
X107465368Y-90349255D01*
X107465369Y-90349249D01*
X107485565Y-90170003D01*
X107485565Y-90169996D01*
X107465369Y-89990750D01*
X107465368Y-89990745D01*
X107405789Y-89820478D01*
X107391583Y-89797870D01*
X107309813Y-89667734D01*
X107307550Y-89664896D01*
X107306659Y-89662715D01*
X107306111Y-89661842D01*
X107306264Y-89661745D01*
X107281144Y-89600209D01*
X107280500Y-89587587D01*
X107280500Y-79360003D01*
X108079723Y-79360003D01*
X108081331Y-79378389D01*
X108081678Y-79394752D01*
X108080709Y-79416324D01*
X108080710Y-79416328D01*
X108080710Y-79416330D01*
X108083914Y-79439983D01*
X108091444Y-79495576D01*
X108092094Y-79501412D01*
X108098792Y-79577972D01*
X108098795Y-79577989D01*
X108104461Y-79599134D01*
X108107563Y-79614576D01*
X108110923Y-79639380D01*
X108110926Y-79639392D01*
X108134573Y-79712169D01*
X108136417Y-79718393D01*
X108155423Y-79789324D01*
X108155428Y-79789337D01*
X108166135Y-79812300D01*
X108171682Y-79826380D01*
X108180483Y-79853464D01*
X108215128Y-79917845D01*
X108218316Y-79924200D01*
X108247897Y-79987638D01*
X108247898Y-79987639D01*
X108264410Y-80011221D01*
X108272025Y-80023578D01*
X108287146Y-80051678D01*
X108287152Y-80051687D01*
X108330587Y-80106153D01*
X108335214Y-80112340D01*
X108360510Y-80148465D01*
X108373402Y-80166877D01*
X108373405Y-80166880D01*
X108396186Y-80189661D01*
X108405452Y-80200029D01*
X108427492Y-80227666D01*
X108477387Y-80271259D01*
X108483484Y-80276959D01*
X108528116Y-80321592D01*
X108528121Y-80321596D01*
X108528123Y-80321598D01*
X108529583Y-80322620D01*
X108557332Y-80342050D01*
X108567793Y-80350244D01*
X108597004Y-80375765D01*
X108597013Y-80375771D01*
X108650924Y-80407981D01*
X108658449Y-80412854D01*
X108707359Y-80447101D01*
X108707365Y-80447104D01*
X108742798Y-80463627D01*
X108753992Y-80469561D01*
X108790234Y-80491214D01*
X108790236Y-80491215D01*
X108835728Y-80508288D01*
X108845838Y-80512082D01*
X108854669Y-80515792D01*
X108898300Y-80536138D01*
X108905670Y-80539575D01*
X108905675Y-80539577D01*
X108946756Y-80550584D01*
X108958227Y-80554262D01*
X109000976Y-80570307D01*
X109056047Y-80580301D01*
X109065965Y-80582526D01*
X109117023Y-80596207D01*
X109162829Y-80600214D01*
X109174121Y-80601728D01*
X109222453Y-80610500D01*
X109274985Y-80610500D01*
X109285792Y-80610972D01*
X109334998Y-80615277D01*
X109335000Y-80615277D01*
X109385369Y-80610870D01*
X109390600Y-80610524D01*
X109391122Y-80610500D01*
X109391155Y-80610500D01*
X109444217Y-80605724D01*
X109445173Y-80605638D01*
X109445180Y-80605724D01*
X109445477Y-80605611D01*
X109552977Y-80596207D01*
X109552982Y-80596205D01*
X109555000Y-80596029D01*
X109557205Y-80595736D01*
X109559182Y-80595377D01*
X109559188Y-80595377D01*
X109662684Y-80566812D01*
X109663350Y-80566631D01*
X109764330Y-80539575D01*
X109764337Y-80539571D01*
X109768913Y-80537906D01*
X109774449Y-80536138D01*
X109776159Y-80535495D01*
X109776170Y-80535493D01*
X109869890Y-80490359D01*
X109871016Y-80489825D01*
X109962639Y-80447102D01*
X109962640Y-80447101D01*
X109967327Y-80444395D01*
X109967400Y-80444522D01*
X109978164Y-80438218D01*
X109978973Y-80437829D01*
X110060325Y-80378721D01*
X110061993Y-80377531D01*
X110141877Y-80321598D01*
X110142747Y-80320727D01*
X110157550Y-80308084D01*
X110161078Y-80305522D01*
X110228237Y-80235277D01*
X110230098Y-80233376D01*
X110296592Y-80166883D01*
X110296592Y-80166882D01*
X110296598Y-80166877D01*
X110299285Y-80163039D01*
X110311239Y-80148465D01*
X110316629Y-80142828D01*
X110316628Y-80142828D01*
X110316632Y-80142825D01*
X110368266Y-80064600D01*
X110370083Y-80061928D01*
X110422102Y-79987639D01*
X110425543Y-79980259D01*
X110434432Y-79964364D01*
X110440635Y-79954968D01*
X110476114Y-79871958D01*
X110477713Y-79868377D01*
X110514575Y-79789330D01*
X110517570Y-79778148D01*
X110523325Y-79761505D01*
X110529103Y-79747988D01*
X110548417Y-79663366D01*
X110549533Y-79658863D01*
X110571207Y-79577977D01*
X110572515Y-79563015D01*
X110575150Y-79546237D01*
X110579191Y-79528537D01*
X110582934Y-79445183D01*
X110583274Y-79440036D01*
X110590277Y-79360003D01*
X112929723Y-79360003D01*
X112931331Y-79378389D01*
X112931678Y-79394752D01*
X112930709Y-79416324D01*
X112930710Y-79416328D01*
X112930710Y-79416330D01*
X112933914Y-79439983D01*
X112941444Y-79495576D01*
X112942094Y-79501412D01*
X112948792Y-79577972D01*
X112948795Y-79577989D01*
X112954461Y-79599134D01*
X112957563Y-79614576D01*
X112960923Y-79639380D01*
X112960926Y-79639392D01*
X112984573Y-79712169D01*
X112986417Y-79718393D01*
X113005423Y-79789324D01*
X113005428Y-79789337D01*
X113016135Y-79812300D01*
X113021682Y-79826380D01*
X113030483Y-79853464D01*
X113065128Y-79917845D01*
X113068316Y-79924200D01*
X113097897Y-79987638D01*
X113097898Y-79987639D01*
X113114410Y-80011221D01*
X113122025Y-80023578D01*
X113137146Y-80051678D01*
X113137152Y-80051687D01*
X113180587Y-80106153D01*
X113185214Y-80112340D01*
X113210510Y-80148465D01*
X113223402Y-80166877D01*
X113223405Y-80166880D01*
X113246186Y-80189661D01*
X113255452Y-80200029D01*
X113277492Y-80227666D01*
X113327387Y-80271259D01*
X113333484Y-80276959D01*
X113378116Y-80321592D01*
X113378121Y-80321596D01*
X113378123Y-80321598D01*
X113379583Y-80322620D01*
X113407332Y-80342050D01*
X113417793Y-80350244D01*
X113447004Y-80375765D01*
X113447013Y-80375771D01*
X113500924Y-80407981D01*
X113508449Y-80412854D01*
X113557359Y-80447101D01*
X113557365Y-80447104D01*
X113592798Y-80463627D01*
X113603992Y-80469561D01*
X113640234Y-80491214D01*
X113640236Y-80491215D01*
X113685728Y-80508288D01*
X113695838Y-80512082D01*
X113704669Y-80515792D01*
X113748300Y-80536138D01*
X113755670Y-80539575D01*
X113755675Y-80539577D01*
X113796756Y-80550584D01*
X113808227Y-80554262D01*
X113850976Y-80570307D01*
X113906047Y-80580301D01*
X113915965Y-80582526D01*
X113967023Y-80596207D01*
X114012829Y-80600214D01*
X114024121Y-80601728D01*
X114072453Y-80610500D01*
X114124985Y-80610500D01*
X114135792Y-80610972D01*
X114184998Y-80615277D01*
X114185000Y-80615277D01*
X114235369Y-80610870D01*
X114240600Y-80610524D01*
X114241122Y-80610500D01*
X114241155Y-80610500D01*
X114294217Y-80605724D01*
X114295173Y-80605638D01*
X114295180Y-80605724D01*
X114295477Y-80605611D01*
X114402977Y-80596207D01*
X114402982Y-80596205D01*
X114405000Y-80596029D01*
X114407205Y-80595736D01*
X114409182Y-80595377D01*
X114409188Y-80595377D01*
X114512684Y-80566812D01*
X114513350Y-80566631D01*
X114614330Y-80539575D01*
X114614337Y-80539571D01*
X114618913Y-80537906D01*
X114624449Y-80536138D01*
X114626159Y-80535495D01*
X114626170Y-80535493D01*
X114719890Y-80490359D01*
X114721016Y-80489825D01*
X114812639Y-80447102D01*
X114812640Y-80447101D01*
X114817327Y-80444395D01*
X114817400Y-80444522D01*
X114828164Y-80438218D01*
X114828973Y-80437829D01*
X114910325Y-80378721D01*
X114911993Y-80377531D01*
X114991877Y-80321598D01*
X114992747Y-80320727D01*
X115007550Y-80308084D01*
X115011078Y-80305522D01*
X115078237Y-80235277D01*
X115080098Y-80233376D01*
X115146592Y-80166883D01*
X115146592Y-80166882D01*
X115146598Y-80166877D01*
X115149285Y-80163039D01*
X115161239Y-80148465D01*
X115166629Y-80142828D01*
X115166628Y-80142828D01*
X115166632Y-80142825D01*
X115218266Y-80064600D01*
X115220083Y-80061928D01*
X115272102Y-79987639D01*
X115275543Y-79980259D01*
X115284432Y-79964364D01*
X115290635Y-79954968D01*
X115326114Y-79871958D01*
X115327713Y-79868377D01*
X115364575Y-79789330D01*
X115367570Y-79778148D01*
X115373325Y-79761505D01*
X115379103Y-79747988D01*
X115398417Y-79663366D01*
X115399533Y-79658863D01*
X115421207Y-79577977D01*
X115422515Y-79563015D01*
X115425150Y-79546237D01*
X115429191Y-79528537D01*
X115432934Y-79445183D01*
X115433274Y-79440036D01*
X115440277Y-79360000D01*
X115438667Y-79341608D01*
X115438321Y-79325239D01*
X115439290Y-79303670D01*
X115428549Y-79224385D01*
X115427905Y-79218600D01*
X115421207Y-79142023D01*
X115415539Y-79120870D01*
X115412434Y-79105412D01*
X115409076Y-79080619D01*
X115409075Y-79080618D01*
X115409075Y-79080613D01*
X115385414Y-79007795D01*
X115383578Y-79001593D01*
X115364576Y-78930674D01*
X115364575Y-78930671D01*
X115364575Y-78930670D01*
X115353863Y-78907699D01*
X115348317Y-78893618D01*
X115339519Y-78866541D01*
X115339517Y-78866537D01*
X115339517Y-78866536D01*
X115304869Y-78802149D01*
X115301681Y-78795794D01*
X115279398Y-78748009D01*
X115272102Y-78732362D01*
X115255592Y-78708785D01*
X115247976Y-78696425D01*
X115242594Y-78686423D01*
X115232852Y-78668319D01*
X115189398Y-78613830D01*
X115184785Y-78607661D01*
X115146598Y-78553123D01*
X115123804Y-78530329D01*
X115114545Y-78519968D01*
X115092506Y-78492332D01*
X115042611Y-78448739D01*
X115036514Y-78443039D01*
X114991878Y-78398402D01*
X114962663Y-78377946D01*
X114952210Y-78369759D01*
X114922996Y-78344235D01*
X114920156Y-78342538D01*
X114869073Y-78312017D01*
X114861550Y-78307145D01*
X114812641Y-78272899D01*
X114777205Y-78256374D01*
X114766015Y-78250442D01*
X114729769Y-78228787D01*
X114729767Y-78228786D01*
X114721951Y-78225852D01*
X114674154Y-78207914D01*
X114665349Y-78204216D01*
X114614330Y-78180425D01*
X114573232Y-78169412D01*
X114561759Y-78165731D01*
X114519024Y-78149692D01*
X114463965Y-78139700D01*
X114454016Y-78137468D01*
X114402977Y-78123793D01*
X114357176Y-78119785D01*
X114345846Y-78118264D01*
X114297552Y-78109500D01*
X114297547Y-78109500D01*
X114245015Y-78109500D01*
X114234208Y-78109028D01*
X114185002Y-78104723D01*
X114184996Y-78104723D01*
X114134651Y-78109127D01*
X114129442Y-78109473D01*
X114128848Y-78109499D01*
X114074915Y-78114352D01*
X114074613Y-78114379D01*
X113977239Y-78122899D01*
X113967023Y-78123793D01*
X113967022Y-78123793D01*
X113965081Y-78123963D01*
X113962708Y-78124278D01*
X113960809Y-78124623D01*
X113857522Y-78153129D01*
X113856628Y-78153372D01*
X113755668Y-78180425D01*
X113751051Y-78182105D01*
X113745520Y-78183872D01*
X113743836Y-78184504D01*
X113650246Y-78229573D01*
X113648853Y-78230233D01*
X113557359Y-78272899D01*
X113552670Y-78275606D01*
X113552598Y-78275481D01*
X113541871Y-78281764D01*
X113541031Y-78282168D01*
X113459662Y-78341284D01*
X113457904Y-78342538D01*
X113378121Y-78398403D01*
X113377241Y-78399284D01*
X113362461Y-78411906D01*
X113358928Y-78414472D01*
X113358921Y-78414478D01*
X113291847Y-78484632D01*
X113289903Y-78486619D01*
X113223404Y-78553119D01*
X113223402Y-78553121D01*
X113220711Y-78556965D01*
X113208773Y-78571521D01*
X113203368Y-78577174D01*
X113183253Y-78607647D01*
X113151750Y-78655369D01*
X113149865Y-78658142D01*
X113097901Y-78732356D01*
X113097891Y-78732374D01*
X113094457Y-78739738D01*
X113085572Y-78755628D01*
X113079363Y-78765034D01*
X113043893Y-78848020D01*
X113042254Y-78851688D01*
X113005426Y-78930664D01*
X113005424Y-78930671D01*
X113002425Y-78941860D01*
X112996681Y-78958475D01*
X112990899Y-78972005D01*
X112990896Y-78972014D01*
X112971576Y-79056659D01*
X112970460Y-79061158D01*
X112948793Y-79142022D01*
X112947483Y-79156992D01*
X112944847Y-79173769D01*
X112940809Y-79191459D01*
X112940809Y-79191464D01*
X112937066Y-79274777D01*
X112936719Y-79280016D01*
X112929723Y-79359995D01*
X112929723Y-79360003D01*
X110590277Y-79360003D01*
X110590277Y-79360000D01*
X110588667Y-79341608D01*
X110588321Y-79325239D01*
X110589290Y-79303670D01*
X110578549Y-79224385D01*
X110577905Y-79218600D01*
X110571207Y-79142023D01*
X110565539Y-79120870D01*
X110562434Y-79105412D01*
X110559076Y-79080619D01*
X110559075Y-79080618D01*
X110559075Y-79080613D01*
X110535414Y-79007795D01*
X110533578Y-79001593D01*
X110514576Y-78930674D01*
X110514575Y-78930671D01*
X110514575Y-78930670D01*
X110503863Y-78907699D01*
X110498317Y-78893618D01*
X110489519Y-78866541D01*
X110489517Y-78866537D01*
X110489517Y-78866536D01*
X110454869Y-78802149D01*
X110451681Y-78795794D01*
X110429398Y-78748009D01*
X110422102Y-78732362D01*
X110405592Y-78708785D01*
X110397976Y-78696425D01*
X110392594Y-78686423D01*
X110382852Y-78668319D01*
X110339398Y-78613830D01*
X110334785Y-78607661D01*
X110296598Y-78553123D01*
X110273804Y-78530329D01*
X110264545Y-78519968D01*
X110242506Y-78492332D01*
X110192611Y-78448739D01*
X110186514Y-78443039D01*
X110141878Y-78398402D01*
X110112663Y-78377946D01*
X110102210Y-78369759D01*
X110072996Y-78344235D01*
X110070156Y-78342538D01*
X110019073Y-78312017D01*
X110011550Y-78307145D01*
X109962641Y-78272899D01*
X109927205Y-78256374D01*
X109916015Y-78250442D01*
X109879769Y-78228787D01*
X109879767Y-78228786D01*
X109871951Y-78225852D01*
X109824154Y-78207914D01*
X109815349Y-78204216D01*
X109764330Y-78180425D01*
X109723232Y-78169412D01*
X109711759Y-78165731D01*
X109669024Y-78149692D01*
X109613965Y-78139700D01*
X109604016Y-78137468D01*
X109552977Y-78123793D01*
X109507176Y-78119785D01*
X109495846Y-78118264D01*
X109447552Y-78109500D01*
X109447547Y-78109500D01*
X109395015Y-78109500D01*
X109384208Y-78109028D01*
X109335002Y-78104723D01*
X109334996Y-78104723D01*
X109284651Y-78109127D01*
X109279442Y-78109473D01*
X109278848Y-78109499D01*
X109224915Y-78114352D01*
X109224613Y-78114379D01*
X109127239Y-78122899D01*
X109117023Y-78123793D01*
X109117022Y-78123793D01*
X109115081Y-78123963D01*
X109112708Y-78124278D01*
X109110809Y-78124623D01*
X109007522Y-78153129D01*
X109006628Y-78153372D01*
X108905668Y-78180425D01*
X108901051Y-78182105D01*
X108895520Y-78183872D01*
X108893836Y-78184504D01*
X108800246Y-78229573D01*
X108798853Y-78230233D01*
X108707359Y-78272899D01*
X108702670Y-78275606D01*
X108702598Y-78275481D01*
X108691871Y-78281764D01*
X108691031Y-78282168D01*
X108609662Y-78341284D01*
X108607904Y-78342538D01*
X108528121Y-78398403D01*
X108527241Y-78399284D01*
X108512461Y-78411906D01*
X108508928Y-78414472D01*
X108508921Y-78414478D01*
X108441847Y-78484632D01*
X108439903Y-78486619D01*
X108373404Y-78553119D01*
X108373402Y-78553121D01*
X108370711Y-78556965D01*
X108358773Y-78571521D01*
X108353368Y-78577174D01*
X108333253Y-78607647D01*
X108301750Y-78655369D01*
X108299865Y-78658142D01*
X108247901Y-78732356D01*
X108247891Y-78732374D01*
X108244457Y-78739738D01*
X108235572Y-78755628D01*
X108229363Y-78765034D01*
X108193893Y-78848020D01*
X108192254Y-78851688D01*
X108155426Y-78930664D01*
X108155424Y-78930671D01*
X108152425Y-78941860D01*
X108146681Y-78958475D01*
X108140899Y-78972005D01*
X108140896Y-78972014D01*
X108121576Y-79056659D01*
X108120460Y-79061158D01*
X108098793Y-79142022D01*
X108097483Y-79156992D01*
X108094847Y-79173769D01*
X108090809Y-79191459D01*
X108090809Y-79191464D01*
X108087066Y-79274777D01*
X108086719Y-79280016D01*
X108079723Y-79359995D01*
X108079723Y-79360003D01*
X107280500Y-79360003D01*
X107280500Y-76329998D01*
X107629700Y-76329998D01*
X107636750Y-76415098D01*
X107637061Y-76420071D01*
X107640819Y-76508523D01*
X107640820Y-76508534D01*
X107645092Y-76528355D01*
X107647451Y-76544238D01*
X107648865Y-76561301D01*
X107648865Y-76561306D01*
X107670660Y-76647372D01*
X107671670Y-76651685D01*
X107691044Y-76741575D01*
X107691046Y-76741582D01*
X107697333Y-76757228D01*
X107702477Y-76773010D01*
X107705843Y-76786300D01*
X107735571Y-76854075D01*
X107742875Y-76870725D01*
X107744370Y-76874284D01*
X107747397Y-76881816D01*
X107779934Y-76962787D01*
X107779935Y-76962788D01*
X107786981Y-76974232D01*
X107794943Y-76989428D01*
X107799076Y-76998850D01*
X107851366Y-77078886D01*
X107853147Y-77081693D01*
X107904930Y-77165794D01*
X107911543Y-77173308D01*
X107922263Y-77187402D01*
X107926019Y-77193151D01*
X107926021Y-77193153D01*
X107993117Y-77266040D01*
X107994930Y-77268054D01*
X108062436Y-77344755D01*
X108067564Y-77348895D01*
X108080882Y-77361377D01*
X108083216Y-77363913D01*
X108156285Y-77420784D01*
X108164062Y-77426837D01*
X108165795Y-77428211D01*
X108247920Y-77494523D01*
X108247922Y-77494524D01*
X108250678Y-77496064D01*
X108266360Y-77506460D01*
X108266367Y-77506465D01*
X108266371Y-77506467D01*
X108266374Y-77506470D01*
X108359507Y-77556870D01*
X108360785Y-77557573D01*
X108414637Y-77587657D01*
X108456051Y-77610793D01*
X108458849Y-77612058D01*
X108465695Y-77615097D01*
X108465794Y-77614873D01*
X108470491Y-77616933D01*
X108470497Y-77616936D01*
X108573950Y-77652451D01*
X108574557Y-77652662D01*
X108680829Y-77690211D01*
X108680843Y-77690213D01*
X108682392Y-77690617D01*
X108688492Y-77691910D01*
X108689999Y-77692291D01*
X108690019Y-77692298D01*
X108801192Y-77710849D01*
X108801608Y-77710919D01*
X108827416Y-77715345D01*
X108915792Y-77730499D01*
X108915800Y-77730500D01*
X109151044Y-77730500D01*
X109151049Y-77730500D01*
X109205013Y-77721494D01*
X109214883Y-77720252D01*
X109272541Y-77715346D01*
X109321925Y-77702487D01*
X109332760Y-77700177D01*
X109379981Y-77692298D01*
X109434963Y-77673421D01*
X109443941Y-77670716D01*
X109503249Y-77655275D01*
X109546642Y-77635659D01*
X109557436Y-77631377D01*
X109599503Y-77616936D01*
X109653611Y-77587653D01*
X109661541Y-77583721D01*
X109720486Y-77557077D01*
X109757120Y-77532316D01*
X109767503Y-77526018D01*
X109803626Y-77506470D01*
X109854878Y-77466578D01*
X109861584Y-77461710D01*
X109918003Y-77423579D01*
X109947460Y-77395345D01*
X109957075Y-77387035D01*
X109986784Y-77363913D01*
X110033070Y-77313632D01*
X110038490Y-77308100D01*
X110090118Y-77258621D01*
X110112351Y-77228557D01*
X110120799Y-77218331D01*
X110143979Y-77193153D01*
X110183223Y-77133084D01*
X110187317Y-77127196D01*
X110231879Y-77066947D01*
X110247176Y-77036604D01*
X110254074Y-77024637D01*
X110270924Y-76998849D01*
X110301130Y-76929984D01*
X110303927Y-76924045D01*
X110339207Y-76854074D01*
X110348155Y-76824854D01*
X110353153Y-76811383D01*
X110364157Y-76786300D01*
X110383450Y-76710110D01*
X110385088Y-76704255D01*
X110409015Y-76626126D01*
X110409016Y-76626121D01*
X110412460Y-76599227D01*
X110415251Y-76584535D01*
X110421132Y-76561311D01*
X110421134Y-76561305D01*
X110427903Y-76479600D01*
X110428484Y-76474095D01*
X110439298Y-76389654D01*
X110438291Y-76365961D01*
X110438602Y-76350481D01*
X110440300Y-76330000D01*
X110440300Y-76329998D01*
X113079700Y-76329998D01*
X113086750Y-76415098D01*
X113087061Y-76420071D01*
X113090819Y-76508523D01*
X113090820Y-76508534D01*
X113095092Y-76528355D01*
X113097451Y-76544238D01*
X113098865Y-76561301D01*
X113098865Y-76561306D01*
X113120660Y-76647372D01*
X113121670Y-76651685D01*
X113141044Y-76741575D01*
X113141046Y-76741582D01*
X113147333Y-76757228D01*
X113152477Y-76773010D01*
X113155843Y-76786300D01*
X113185571Y-76854075D01*
X113192875Y-76870725D01*
X113194370Y-76874284D01*
X113197397Y-76881816D01*
X113229934Y-76962787D01*
X113229935Y-76962788D01*
X113236981Y-76974232D01*
X113244943Y-76989428D01*
X113249076Y-76998850D01*
X113301366Y-77078886D01*
X113303147Y-77081693D01*
X113354930Y-77165794D01*
X113361543Y-77173308D01*
X113372263Y-77187402D01*
X113376019Y-77193151D01*
X113376021Y-77193153D01*
X113443117Y-77266040D01*
X113444930Y-77268054D01*
X113512436Y-77344755D01*
X113517564Y-77348895D01*
X113530882Y-77361377D01*
X113533216Y-77363913D01*
X113606285Y-77420784D01*
X113614062Y-77426837D01*
X113615795Y-77428211D01*
X113697920Y-77494523D01*
X113697922Y-77494524D01*
X113700678Y-77496064D01*
X113716360Y-77506460D01*
X113716367Y-77506465D01*
X113716371Y-77506467D01*
X113716374Y-77506470D01*
X113809507Y-77556870D01*
X113810785Y-77557573D01*
X113864637Y-77587657D01*
X113906051Y-77610793D01*
X113908849Y-77612058D01*
X113915695Y-77615097D01*
X113915794Y-77614873D01*
X113920491Y-77616933D01*
X113920497Y-77616936D01*
X114023950Y-77652451D01*
X114024557Y-77652662D01*
X114130829Y-77690211D01*
X114130843Y-77690213D01*
X114132392Y-77690617D01*
X114138492Y-77691910D01*
X114139999Y-77692291D01*
X114140019Y-77692298D01*
X114251192Y-77710849D01*
X114251608Y-77710919D01*
X114277416Y-77715345D01*
X114365792Y-77730499D01*
X114365800Y-77730500D01*
X114601044Y-77730500D01*
X114601049Y-77730500D01*
X114655013Y-77721494D01*
X114664883Y-77720252D01*
X114722541Y-77715346D01*
X114771925Y-77702487D01*
X114782760Y-77700177D01*
X114829981Y-77692298D01*
X114884963Y-77673421D01*
X114893941Y-77670716D01*
X114953249Y-77655275D01*
X114996642Y-77635659D01*
X115007436Y-77631377D01*
X115049503Y-77616936D01*
X115103611Y-77587653D01*
X115111541Y-77583721D01*
X115170486Y-77557077D01*
X115207120Y-77532316D01*
X115217503Y-77526018D01*
X115253626Y-77506470D01*
X115304878Y-77466578D01*
X115311584Y-77461710D01*
X115368003Y-77423579D01*
X115397460Y-77395345D01*
X115407075Y-77387035D01*
X115436784Y-77363913D01*
X115483070Y-77313632D01*
X115488490Y-77308100D01*
X115540118Y-77258621D01*
X115562351Y-77228557D01*
X115570799Y-77218331D01*
X115593979Y-77193153D01*
X115633223Y-77133084D01*
X115637317Y-77127196D01*
X115681879Y-77066947D01*
X115697176Y-77036604D01*
X115704074Y-77024637D01*
X115720924Y-76998849D01*
X115751130Y-76929984D01*
X115753927Y-76924045D01*
X115789207Y-76854074D01*
X115798155Y-76824854D01*
X115803153Y-76811383D01*
X115814157Y-76786300D01*
X115833450Y-76710110D01*
X115835088Y-76704255D01*
X115859015Y-76626126D01*
X115859016Y-76626121D01*
X115862460Y-76599227D01*
X115865251Y-76584535D01*
X115871132Y-76561311D01*
X115871134Y-76561305D01*
X115877903Y-76479600D01*
X115878484Y-76474095D01*
X115889298Y-76389654D01*
X115888291Y-76365961D01*
X115888602Y-76350481D01*
X115890300Y-76330000D01*
X115883248Y-76244902D01*
X115882938Y-76239943D01*
X115881241Y-76200002D01*
X115879180Y-76151468D01*
X115874906Y-76131640D01*
X115872548Y-76115764D01*
X115871134Y-76098695D01*
X115849325Y-76012577D01*
X115848336Y-76008354D01*
X115828954Y-75918419D01*
X115822665Y-75902770D01*
X115817519Y-75886980D01*
X115814157Y-75873700D01*
X115777092Y-75789202D01*
X115775621Y-75785697D01*
X115765576Y-75760700D01*
X115740064Y-75697210D01*
X115733021Y-75685771D01*
X115725053Y-75670565D01*
X115720924Y-75661151D01*
X115668639Y-75581122D01*
X115666859Y-75578315D01*
X115615074Y-75494212D01*
X115615071Y-75494209D01*
X115615069Y-75494205D01*
X115608451Y-75486686D01*
X115597727Y-75472584D01*
X115593980Y-75466848D01*
X115570800Y-75441668D01*
X115526876Y-75393953D01*
X115525068Y-75391944D01*
X115457565Y-75315246D01*
X115452439Y-75311107D01*
X115439117Y-75298621D01*
X115436785Y-75296088D01*
X115436783Y-75296086D01*
X115355936Y-75233161D01*
X115354198Y-75231783D01*
X115272080Y-75165477D01*
X115272073Y-75165472D01*
X115269311Y-75163929D01*
X115253643Y-75153542D01*
X115253634Y-75153535D01*
X115253628Y-75153532D01*
X115253626Y-75153530D01*
X115160485Y-75103125D01*
X115159094Y-75102359D01*
X115063961Y-75049213D01*
X115061381Y-75048047D01*
X115054284Y-75044898D01*
X115054188Y-75045119D01*
X115049499Y-75043062D01*
X114946278Y-75007626D01*
X114945233Y-75007262D01*
X114839172Y-74969789D01*
X114837635Y-74969389D01*
X114831549Y-74968098D01*
X114829995Y-74967704D01*
X114718772Y-74949144D01*
X114718227Y-74949051D01*
X114604210Y-74929500D01*
X114604200Y-74929500D01*
X114601049Y-74929500D01*
X114368951Y-74929500D01*
X114314993Y-74938503D01*
X114305101Y-74939747D01*
X114247470Y-74944652D01*
X114247461Y-74944653D01*
X114198077Y-74957511D01*
X114187250Y-74959819D01*
X114140012Y-74967703D01*
X114085068Y-74986566D01*
X114076051Y-74989284D01*
X114016749Y-75004725D01*
X114016743Y-75004727D01*
X113973361Y-75024337D01*
X113962553Y-75028624D01*
X113920504Y-75043060D01*
X113920498Y-75043063D01*
X113866396Y-75072341D01*
X113858460Y-75076275D01*
X113799514Y-75102922D01*
X113762883Y-75127679D01*
X113752470Y-75133994D01*
X113716379Y-75153526D01*
X113716367Y-75153533D01*
X113665126Y-75193416D01*
X113658402Y-75198297D01*
X113602001Y-75236417D01*
X113601994Y-75236423D01*
X113572546Y-75264644D01*
X113562918Y-75272967D01*
X113533217Y-75296085D01*
X113533209Y-75296093D01*
X113486925Y-75346369D01*
X113481500Y-75351905D01*
X113429882Y-75401378D01*
X113429880Y-75401380D01*
X113407657Y-75431427D01*
X113399198Y-75441668D01*
X113376021Y-75466846D01*
X113336781Y-75526906D01*
X113332671Y-75532814D01*
X113288124Y-75593047D01*
X113288119Y-75593055D01*
X113272826Y-75623384D01*
X113265918Y-75635370D01*
X113249076Y-75661149D01*
X113228722Y-75707551D01*
X113220999Y-75725160D01*
X113218887Y-75729974D01*
X113216060Y-75735975D01*
X113189189Y-75789274D01*
X113180791Y-75805930D01*
X113171847Y-75835131D01*
X113166842Y-75848620D01*
X113155845Y-75873691D01*
X113155845Y-75873692D01*
X113136552Y-75949872D01*
X113134913Y-75955735D01*
X113110984Y-76033877D01*
X113110983Y-76033879D01*
X113107538Y-76060777D01*
X113104750Y-76075454D01*
X113098867Y-76098687D01*
X113098864Y-76098706D01*
X113092097Y-76180377D01*
X113091517Y-76185887D01*
X113080702Y-76270344D01*
X113080701Y-76270345D01*
X113081707Y-76294025D01*
X113081396Y-76309520D01*
X113079700Y-76329998D01*
X110440300Y-76329998D01*
X110433248Y-76244902D01*
X110432938Y-76239943D01*
X110431241Y-76200002D01*
X110429180Y-76151468D01*
X110424906Y-76131640D01*
X110422548Y-76115764D01*
X110421134Y-76098695D01*
X110399325Y-76012577D01*
X110398336Y-76008354D01*
X110378954Y-75918419D01*
X110372665Y-75902770D01*
X110367519Y-75886980D01*
X110364157Y-75873700D01*
X110327092Y-75789202D01*
X110325621Y-75785697D01*
X110315576Y-75760700D01*
X110290064Y-75697210D01*
X110283021Y-75685771D01*
X110275053Y-75670565D01*
X110270924Y-75661151D01*
X110218639Y-75581122D01*
X110216859Y-75578315D01*
X110165074Y-75494212D01*
X110165071Y-75494209D01*
X110165069Y-75494205D01*
X110158451Y-75486686D01*
X110147727Y-75472584D01*
X110143980Y-75466848D01*
X110120800Y-75441668D01*
X110076876Y-75393953D01*
X110075068Y-75391944D01*
X110007565Y-75315246D01*
X110002439Y-75311107D01*
X109989117Y-75298621D01*
X109986785Y-75296088D01*
X109986783Y-75296086D01*
X109905936Y-75233161D01*
X109904198Y-75231783D01*
X109822080Y-75165477D01*
X109822073Y-75165472D01*
X109819311Y-75163929D01*
X109803643Y-75153542D01*
X109803634Y-75153535D01*
X109803628Y-75153532D01*
X109803626Y-75153530D01*
X109710485Y-75103125D01*
X109709094Y-75102359D01*
X109613961Y-75049213D01*
X109611381Y-75048047D01*
X109604284Y-75044898D01*
X109604188Y-75045119D01*
X109599499Y-75043062D01*
X109496278Y-75007626D01*
X109495233Y-75007262D01*
X109389172Y-74969789D01*
X109387635Y-74969389D01*
X109381549Y-74968098D01*
X109379995Y-74967704D01*
X109268772Y-74949144D01*
X109268227Y-74949051D01*
X109154210Y-74929500D01*
X109154200Y-74929500D01*
X109151049Y-74929500D01*
X108918951Y-74929500D01*
X108864993Y-74938503D01*
X108855101Y-74939747D01*
X108797470Y-74944652D01*
X108797461Y-74944653D01*
X108748077Y-74957511D01*
X108737250Y-74959819D01*
X108690012Y-74967703D01*
X108635068Y-74986566D01*
X108626051Y-74989284D01*
X108566749Y-75004725D01*
X108566743Y-75004727D01*
X108523361Y-75024337D01*
X108512553Y-75028624D01*
X108470504Y-75043060D01*
X108470498Y-75043063D01*
X108416396Y-75072341D01*
X108408460Y-75076275D01*
X108349514Y-75102922D01*
X108312883Y-75127679D01*
X108302470Y-75133994D01*
X108266379Y-75153526D01*
X108266367Y-75153533D01*
X108215126Y-75193416D01*
X108208402Y-75198297D01*
X108152001Y-75236417D01*
X108151994Y-75236423D01*
X108122546Y-75264644D01*
X108112918Y-75272967D01*
X108083217Y-75296085D01*
X108083209Y-75296093D01*
X108036925Y-75346369D01*
X108031500Y-75351905D01*
X107979882Y-75401378D01*
X107979880Y-75401380D01*
X107957657Y-75431427D01*
X107949198Y-75441668D01*
X107926021Y-75466846D01*
X107886781Y-75526906D01*
X107882671Y-75532814D01*
X107838124Y-75593047D01*
X107838119Y-75593055D01*
X107822826Y-75623384D01*
X107815918Y-75635370D01*
X107799076Y-75661149D01*
X107778722Y-75707551D01*
X107770999Y-75725160D01*
X107768887Y-75729974D01*
X107766060Y-75735975D01*
X107739189Y-75789274D01*
X107730791Y-75805930D01*
X107721847Y-75835131D01*
X107716842Y-75848620D01*
X107705845Y-75873691D01*
X107705845Y-75873692D01*
X107686552Y-75949872D01*
X107684913Y-75955735D01*
X107660984Y-76033877D01*
X107660983Y-76033879D01*
X107657538Y-76060777D01*
X107654750Y-76075454D01*
X107648867Y-76098687D01*
X107648864Y-76098706D01*
X107642097Y-76180377D01*
X107641517Y-76185887D01*
X107630702Y-76270344D01*
X107630701Y-76270345D01*
X107631707Y-76294025D01*
X107631396Y-76309520D01*
X107629700Y-76329998D01*
X107280500Y-76329998D01*
X107280500Y-62812412D01*
X107300185Y-62745373D01*
X107307555Y-62735097D01*
X107309810Y-62732267D01*
X107309816Y-62732262D01*
X107405789Y-62579522D01*
X107465368Y-62409255D01*
X107465369Y-62409249D01*
X107485565Y-62230003D01*
X107485565Y-62229996D01*
X107465369Y-62050750D01*
X107465368Y-62050745D01*
X107405788Y-61880476D01*
X107366582Y-61818080D01*
X107309816Y-61727738D01*
X107182262Y-61600184D01*
X107029521Y-61504210D01*
X106894221Y-61456867D01*
X106837444Y-61416145D01*
X106818133Y-61380779D01*
X106770789Y-61245478D01*
X106770788Y-61245476D01*
X106674816Y-61092738D01*
X106547262Y-60965184D01*
X106394523Y-60869211D01*
X106224254Y-60809631D01*
X106224249Y-60809630D01*
X106045004Y-60789435D01*
X106044996Y-60789435D01*
X105865750Y-60809630D01*
X105865745Y-60809631D01*
X105695476Y-60869211D01*
X105542737Y-60965184D01*
X105415184Y-61092737D01*
X105319211Y-61245476D01*
X105259631Y-61415745D01*
X105259630Y-61415750D01*
X105239435Y-61594996D01*
X105239435Y-61595003D01*
X105259630Y-61774249D01*
X105259631Y-61774254D01*
X105319211Y-61944523D01*
X105415185Y-62097263D01*
X105417445Y-62100097D01*
X105418334Y-62102275D01*
X105418889Y-62103158D01*
X105418734Y-62103255D01*
X105443855Y-62164783D01*
X105444500Y-62177412D01*
X105444500Y-87047587D01*
X105424815Y-87114626D01*
X105417450Y-87124896D01*
X105415186Y-87127734D01*
X105319211Y-87280476D01*
X105259631Y-87450745D01*
X105259630Y-87450750D01*
X105239435Y-87629996D01*
X105239435Y-87630003D01*
X104063928Y-87630003D01*
X104076855Y-87570575D01*
X104086416Y-87555696D01*
X104163796Y-87452331D01*
X104214091Y-87317483D01*
X104220500Y-87257873D01*
X104220499Y-86424383D01*
X104220971Y-86413576D01*
X104225659Y-86360000D01*
X104225659Y-86359999D01*
X104220971Y-86306421D01*
X104220499Y-86295613D01*
X104220499Y-85462129D01*
X104220498Y-85462123D01*
X104220497Y-85462116D01*
X104214091Y-85402517D01*
X104164385Y-85269249D01*
X104163797Y-85267671D01*
X104163795Y-85267668D01*
X104086421Y-85164309D01*
X104062004Y-85098848D01*
X104076855Y-85030575D01*
X104086416Y-85015696D01*
X104163796Y-84912331D01*
X104214091Y-84777483D01*
X104220500Y-84717873D01*
X104220499Y-83884383D01*
X104220971Y-83873576D01*
X104225659Y-83820000D01*
X104225659Y-83819999D01*
X104220971Y-83766421D01*
X104220499Y-83755613D01*
X104220499Y-82922129D01*
X104220498Y-82922123D01*
X104220497Y-82922116D01*
X104214091Y-82862517D01*
X104164385Y-82729249D01*
X104163797Y-82727671D01*
X104163795Y-82727668D01*
X104086109Y-82623893D01*
X104061692Y-82558430D01*
X104076543Y-82490157D01*
X104086110Y-82475271D01*
X104163352Y-82372089D01*
X104163354Y-82372086D01*
X104213596Y-82237379D01*
X104213598Y-82237372D01*
X104219999Y-82177844D01*
X104220000Y-82177827D01*
X104220000Y-81530000D01*
X103315572Y-81530000D01*
X103338682Y-81494040D01*
X103380000Y-81353327D01*
X103380000Y-81206673D01*
X103338682Y-81065960D01*
X103315572Y-81030000D01*
X104220000Y-81030000D01*
X104220000Y-80382172D01*
X104219999Y-80382155D01*
X104213598Y-80322627D01*
X104213596Y-80322620D01*
X104163354Y-80187913D01*
X104163352Y-80187910D01*
X104086110Y-80084729D01*
X104061692Y-80019265D01*
X104076543Y-79950992D01*
X104086105Y-79936111D01*
X104163796Y-79832331D01*
X104214091Y-79697483D01*
X104220500Y-79637873D01*
X104220499Y-78804383D01*
X104220971Y-78793576D01*
X104223469Y-78765034D01*
X104225659Y-78740000D01*
X104222406Y-78702827D01*
X104220971Y-78686421D01*
X104220499Y-78675613D01*
X104220499Y-77842129D01*
X104220498Y-77842123D01*
X104220497Y-77842116D01*
X104214091Y-77782517D01*
X104191331Y-77721495D01*
X104163797Y-77647671D01*
X104163795Y-77647668D01*
X104086421Y-77544309D01*
X104062004Y-77478848D01*
X104076855Y-77410575D01*
X104086416Y-77395696D01*
X104163796Y-77292331D01*
X104214091Y-77157483D01*
X104220500Y-77097873D01*
X104220499Y-76264383D01*
X104220971Y-76253576D01*
X104225659Y-76200000D01*
X104225659Y-76199999D01*
X104220971Y-76146421D01*
X104220499Y-76135613D01*
X104220499Y-75302129D01*
X104220498Y-75302123D01*
X104220497Y-75302116D01*
X104214091Y-75242517D01*
X104211817Y-75236421D01*
X104163797Y-75107671D01*
X104163793Y-75107664D01*
X104077547Y-74992455D01*
X104077544Y-74992452D01*
X103962335Y-74906206D01*
X103962328Y-74906202D01*
X103827482Y-74855908D01*
X103827483Y-74855908D01*
X103767883Y-74849501D01*
X103767881Y-74849500D01*
X103767873Y-74849500D01*
X103767865Y-74849500D01*
X102934380Y-74849500D01*
X102923573Y-74849028D01*
X102897024Y-74846705D01*
X102870001Y-74844341D01*
X102869998Y-74844341D01*
X102816424Y-74849028D01*
X102805617Y-74849500D01*
X100172129Y-74849500D01*
X100172123Y-74849501D01*
X100112516Y-74855908D01*
X99977671Y-74906202D01*
X99977664Y-74906206D01*
X99862455Y-74992452D01*
X99862452Y-74992455D01*
X99776206Y-75107664D01*
X99776202Y-75107671D01*
X99725908Y-75242517D01*
X99719877Y-75298621D01*
X99719501Y-75302123D01*
X99719500Y-75302135D01*
X99719500Y-77097870D01*
X99719501Y-77097876D01*
X99725908Y-77157483D01*
X99776202Y-77292328D01*
X99776203Y-77292330D01*
X99853578Y-77395689D01*
X99877995Y-77461153D01*
X99863144Y-77529426D01*
X99853578Y-77544309D01*
X99843168Y-77558216D01*
X99776203Y-77647669D01*
X99776202Y-77647671D01*
X99725908Y-77782517D01*
X99721930Y-77819522D01*
X99719501Y-77842123D01*
X99719500Y-77842135D01*
X99719500Y-79637870D01*
X99719501Y-79637876D01*
X99725908Y-79697483D01*
X99776202Y-79832328D01*
X99776206Y-79832335D01*
X99853889Y-79936105D01*
X99878307Y-80001569D01*
X99863456Y-80069842D01*
X99853890Y-80084727D01*
X99776647Y-80187910D01*
X99776645Y-80187913D01*
X99726403Y-80322620D01*
X99726401Y-80322627D01*
X99720000Y-80382155D01*
X99720000Y-81030000D01*
X102424428Y-81030000D01*
X102401318Y-81065960D01*
X102360000Y-81206673D01*
X102360000Y-81353327D01*
X102401318Y-81494040D01*
X102424428Y-81530000D01*
X99720000Y-81530000D01*
X99720000Y-82177844D01*
X99726401Y-82237372D01*
X99726403Y-82237379D01*
X99776645Y-82372086D01*
X99776646Y-82372088D01*
X99853890Y-82475272D01*
X99878307Y-82540736D01*
X99863456Y-82609009D01*
X99853890Y-82623894D01*
X99776204Y-82727669D01*
X99776202Y-82727671D01*
X99725908Y-82862517D01*
X99721930Y-82899522D01*
X99719501Y-82922123D01*
X99719500Y-82922135D01*
X99719500Y-84717870D01*
X99719501Y-84717876D01*
X99725908Y-84777483D01*
X99776202Y-84912328D01*
X99776203Y-84912330D01*
X99853578Y-85015689D01*
X99877995Y-85081153D01*
X99863144Y-85149426D01*
X99853578Y-85164311D01*
X99776203Y-85267669D01*
X99776202Y-85267671D01*
X99725908Y-85402517D01*
X99721930Y-85439522D01*
X99719501Y-85462123D01*
X99719500Y-85462135D01*
X99719500Y-87257870D01*
X99719501Y-87257876D01*
X99725908Y-87317483D01*
X99776202Y-87452328D01*
X99776203Y-87452330D01*
X99853578Y-87555689D01*
X99877995Y-87621153D01*
X99863144Y-87689426D01*
X99853578Y-87704311D01*
X99776203Y-87807669D01*
X99776202Y-87807671D01*
X99725908Y-87942517D01*
X99721930Y-87979522D01*
X99719501Y-88002123D01*
X99719500Y-88002135D01*
X99719500Y-89797870D01*
X99719501Y-89797876D01*
X99725908Y-89857483D01*
X99776202Y-89992328D01*
X99776203Y-89992330D01*
X99853578Y-90095689D01*
X99877995Y-90161153D01*
X99863144Y-90229426D01*
X99853578Y-90244311D01*
X99776203Y-90347669D01*
X99776202Y-90347671D01*
X99725908Y-90482517D01*
X99721930Y-90519522D01*
X99719501Y-90542123D01*
X99719500Y-90542135D01*
X99719500Y-92337870D01*
X99719501Y-92337876D01*
X99725908Y-92397483D01*
X99776202Y-92532328D01*
X99776206Y-92532335D01*
X99853889Y-92636105D01*
X99878307Y-92701569D01*
X99863456Y-92769842D01*
X99853890Y-92784727D01*
X99776647Y-92887910D01*
X99776645Y-92887913D01*
X99726403Y-93022620D01*
X99726401Y-93022627D01*
X99720000Y-93082155D01*
X99720000Y-93730000D01*
X102424428Y-93730000D01*
X102401318Y-93765960D01*
X102360000Y-93906673D01*
X102360000Y-94053327D01*
X102401318Y-94194040D01*
X102424428Y-94230000D01*
X99720000Y-94230000D01*
X99720000Y-94877844D01*
X99726401Y-94937372D01*
X99726403Y-94937379D01*
X99776645Y-95072086D01*
X99776646Y-95072088D01*
X99853890Y-95175272D01*
X99878307Y-95240736D01*
X99863456Y-95309009D01*
X99853890Y-95323894D01*
X99776204Y-95427669D01*
X99776202Y-95427671D01*
X99725908Y-95562517D01*
X99721930Y-95599522D01*
X99719501Y-95622123D01*
X99719500Y-95622135D01*
X99719500Y-97417870D01*
X99719501Y-97417876D01*
X99725908Y-97477483D01*
X99776202Y-97612328D01*
X99776203Y-97612330D01*
X99853578Y-97715689D01*
X99877995Y-97781153D01*
X99863144Y-97849426D01*
X99853578Y-97864311D01*
X99776203Y-97967669D01*
X99776202Y-97967671D01*
X99725908Y-98102517D01*
X99721930Y-98139522D01*
X99719501Y-98162123D01*
X99719500Y-98162135D01*
X99719500Y-99957870D01*
X99719501Y-99957876D01*
X99725908Y-100017483D01*
X99776202Y-100152328D01*
X99776203Y-100152330D01*
X99853578Y-100255689D01*
X99877995Y-100321153D01*
X99863144Y-100389426D01*
X99853578Y-100404311D01*
X99776203Y-100507669D01*
X99776202Y-100507671D01*
X99725908Y-100642517D01*
X99721930Y-100679522D01*
X99719501Y-100702123D01*
X99719500Y-100702135D01*
X99719500Y-102497870D01*
X99719501Y-102497876D01*
X99725908Y-102557483D01*
X99776202Y-102692328D01*
X99776203Y-102692330D01*
X99853578Y-102795689D01*
X99877995Y-102861153D01*
X99863144Y-102929426D01*
X99853578Y-102944311D01*
X99776203Y-103047669D01*
X99776202Y-103047671D01*
X99725908Y-103182517D01*
X99721930Y-103219522D01*
X99719501Y-103242123D01*
X99719500Y-103242135D01*
X99719500Y-105037870D01*
X99719501Y-105037876D01*
X99725908Y-105097483D01*
X99776202Y-105232328D01*
X99776206Y-105232335D01*
X99853889Y-105336105D01*
X99878307Y-105401569D01*
X99863456Y-105469842D01*
X99853890Y-105484727D01*
X99776647Y-105587910D01*
X99776645Y-105587913D01*
X99726403Y-105722620D01*
X99726401Y-105722627D01*
X99720000Y-105782155D01*
X99720000Y-106430000D01*
X102424428Y-106430000D01*
X102401318Y-106465960D01*
X102360000Y-106606673D01*
X102360000Y-106753327D01*
X102401318Y-106894040D01*
X102424428Y-106930000D01*
X99720000Y-106930000D01*
X99720000Y-107577844D01*
X99726401Y-107637372D01*
X99726403Y-107637379D01*
X99776645Y-107772086D01*
X99776646Y-107772088D01*
X99853890Y-107875272D01*
X99878307Y-107940736D01*
X99863456Y-108009009D01*
X99853890Y-108023894D01*
X99776204Y-108127669D01*
X99776202Y-108127671D01*
X99725908Y-108262517D01*
X99721930Y-108299522D01*
X99719501Y-108322123D01*
X99719500Y-108322135D01*
X99719500Y-110117870D01*
X99719501Y-110117876D01*
X99725908Y-110177483D01*
X99776202Y-110312328D01*
X99776203Y-110312330D01*
X99853578Y-110415689D01*
X99877995Y-110481153D01*
X99863144Y-110549426D01*
X99853578Y-110564311D01*
X99776203Y-110667669D01*
X99776202Y-110667671D01*
X99725908Y-110802517D01*
X99721930Y-110839522D01*
X99719501Y-110862123D01*
X99719500Y-110862135D01*
X99719500Y-112657870D01*
X99719501Y-112657876D01*
X99725908Y-112717483D01*
X99776202Y-112852328D01*
X99776203Y-112852330D01*
X99853578Y-112955689D01*
X99877995Y-113021153D01*
X99863144Y-113089426D01*
X99853578Y-113104311D01*
X99776203Y-113207669D01*
X99776202Y-113207671D01*
X99725908Y-113342517D01*
X99721930Y-113379522D01*
X99719501Y-113402123D01*
X99719500Y-113402135D01*
X99719500Y-115197870D01*
X99719501Y-115197876D01*
X99725908Y-115257483D01*
X99776202Y-115392328D01*
X99776203Y-115392330D01*
X99853578Y-115495689D01*
X99877995Y-115561153D01*
X99863144Y-115629426D01*
X99853578Y-115644311D01*
X99776203Y-115747669D01*
X99776202Y-115747671D01*
X99725908Y-115882517D01*
X99721930Y-115919522D01*
X99719501Y-115942123D01*
X99719500Y-115942135D01*
X99719500Y-117737870D01*
X99719501Y-117737876D01*
X99725908Y-117797483D01*
X99776202Y-117932328D01*
X99776206Y-117932335D01*
X99853889Y-118036105D01*
X99878307Y-118101569D01*
X99863456Y-118169842D01*
X99853890Y-118184727D01*
X99776647Y-118287910D01*
X99776645Y-118287913D01*
X99726403Y-118422620D01*
X99726401Y-118422627D01*
X99720000Y-118482155D01*
X99720000Y-119130000D01*
X102424428Y-119130000D01*
X102401318Y-119165960D01*
X102360000Y-119306673D01*
X102360000Y-119453327D01*
X102401318Y-119594040D01*
X102424428Y-119630000D01*
X99720000Y-119630000D01*
X99720000Y-120277844D01*
X99726401Y-120337372D01*
X99726403Y-120337379D01*
X99776645Y-120472086D01*
X99776646Y-120472088D01*
X99853890Y-120575272D01*
X99878307Y-120640736D01*
X99863456Y-120709009D01*
X99853890Y-120723894D01*
X99776204Y-120827669D01*
X99776202Y-120827671D01*
X99725908Y-120962517D01*
X99721930Y-120999522D01*
X99719501Y-121022123D01*
X99719500Y-121022135D01*
X99719500Y-122817870D01*
X99719501Y-122817876D01*
X99725908Y-122877483D01*
X99776202Y-123012328D01*
X99776203Y-123012330D01*
X99853578Y-123115689D01*
X99877995Y-123181153D01*
X99863144Y-123249426D01*
X99853578Y-123264311D01*
X99776203Y-123367669D01*
X99776202Y-123367671D01*
X99725908Y-123502517D01*
X99721930Y-123539522D01*
X99719501Y-123562123D01*
X99719500Y-123562135D01*
X99719500Y-125357870D01*
X98425000Y-125357870D01*
X98425000Y-57150002D01*
X99615227Y-57150002D01*
X99634306Y-57501900D01*
X99634308Y-57501917D01*
X99691319Y-57849667D01*
X99691325Y-57849693D01*
X99785600Y-58189243D01*
X99785602Y-58189250D01*
X99916043Y-58516634D01*
X99916052Y-58516652D01*
X100081124Y-58828011D01*
X100278896Y-59119702D01*
X100401914Y-59264532D01*
X101572266Y-58094180D01*
X101735130Y-58284870D01*
X101925819Y-58447733D01*
X100752625Y-59620926D01*
X100752625Y-59620928D01*
X100762900Y-59630660D01*
X101043460Y-59843938D01*
X101043464Y-59843941D01*
X101345445Y-60025635D01*
X101665273Y-60173603D01*
X101999256Y-60286136D01*
X102343437Y-60361896D01*
X102693788Y-60399999D01*
X102693795Y-60400000D01*
X103046205Y-60400000D01*
X103046211Y-60399999D01*
X103396562Y-60361896D01*
X103740743Y-60286136D01*
X104074726Y-60173603D01*
X104394554Y-60025635D01*
X104696535Y-59843941D01*
X104696539Y-59843938D01*
X104977093Y-59630665D01*
X104977105Y-59630654D01*
X104987373Y-59620927D01*
X104987373Y-59620926D01*
X103814180Y-58447733D01*
X104004870Y-58284870D01*
X104167733Y-58094181D01*
X105338084Y-59264532D01*
X105338085Y-59264531D01*
X105461102Y-59119704D01*
X105658875Y-58828011D01*
X105823947Y-58516652D01*
X105823956Y-58516634D01*
X105954397Y-58189250D01*
X105954399Y-58189243D01*
X106048674Y-57849693D01*
X106048680Y-57849667D01*
X106105691Y-57501917D01*
X106105693Y-57501900D01*
X106124773Y-57150002D01*
X106124773Y-57149997D01*
X106105693Y-56798099D01*
X106105691Y-56798082D01*
X106048680Y-56450332D01*
X106048674Y-56450306D01*
X105954399Y-56110756D01*
X105954397Y-56110749D01*
X105823956Y-55783365D01*
X105823947Y-55783347D01*
X105757423Y-55657870D01*
X133519500Y-55657870D01*
X133519501Y-55657876D01*
X133525908Y-55717483D01*
X133576202Y-55852328D01*
X133576206Y-55852335D01*
X133662452Y-55967544D01*
X133662455Y-55967547D01*
X133777664Y-56053793D01*
X133777671Y-56053797D01*
X133912517Y-56104091D01*
X133912516Y-56104091D01*
X133919444Y-56104835D01*
X133972127Y-56110500D01*
X135267872Y-56110499D01*
X135327483Y-56104091D01*
X135462331Y-56053796D01*
X135577546Y-55967546D01*
X135663796Y-55852331D01*
X135714091Y-55717483D01*
X135720500Y-55657873D01*
X135720500Y-55657870D01*
X139119500Y-55657870D01*
X139119501Y-55657876D01*
X139125908Y-55717483D01*
X139176202Y-55852328D01*
X139176206Y-55852335D01*
X139262452Y-55967544D01*
X139262455Y-55967547D01*
X139377664Y-56053793D01*
X139377671Y-56053797D01*
X139512517Y-56104091D01*
X139512516Y-56104091D01*
X139519444Y-56104835D01*
X139572127Y-56110500D01*
X140867872Y-56110499D01*
X140927483Y-56104091D01*
X141062331Y-56053796D01*
X141177546Y-55967546D01*
X141263796Y-55852331D01*
X141314091Y-55717483D01*
X141320500Y-55657873D01*
X141320499Y-53562128D01*
X141314091Y-53502517D01*
X141263796Y-53367669D01*
X141263795Y-53367668D01*
X141263793Y-53367664D01*
X141177547Y-53252455D01*
X141177544Y-53252452D01*
X141062335Y-53166206D01*
X141062328Y-53166202D01*
X140927482Y-53115908D01*
X140927483Y-53115908D01*
X140867883Y-53109501D01*
X140867881Y-53109500D01*
X140867873Y-53109500D01*
X140867864Y-53109500D01*
X139572129Y-53109500D01*
X139572123Y-53109501D01*
X139512516Y-53115908D01*
X139377671Y-53166202D01*
X139377664Y-53166206D01*
X139262455Y-53252452D01*
X139262452Y-53252455D01*
X139176206Y-53367664D01*
X139176202Y-53367671D01*
X139125908Y-53502517D01*
X139119501Y-53562116D01*
X139119501Y-53562123D01*
X139119500Y-53562135D01*
X139119500Y-55657870D01*
X135720500Y-55657870D01*
X135720499Y-53562128D01*
X135714091Y-53502517D01*
X135663796Y-53367669D01*
X135663795Y-53367668D01*
X135663793Y-53367664D01*
X135577547Y-53252455D01*
X135577544Y-53252452D01*
X135462335Y-53166206D01*
X135462328Y-53166202D01*
X135327482Y-53115908D01*
X135327483Y-53115908D01*
X135267883Y-53109501D01*
X135267881Y-53109500D01*
X135267873Y-53109500D01*
X135267864Y-53109500D01*
X133972129Y-53109500D01*
X133972123Y-53109501D01*
X133912516Y-53115908D01*
X133777671Y-53166202D01*
X133777664Y-53166206D01*
X133662455Y-53252452D01*
X133662452Y-53252455D01*
X133576206Y-53367664D01*
X133576202Y-53367671D01*
X133525908Y-53502517D01*
X133519501Y-53562116D01*
X133519501Y-53562123D01*
X133519500Y-53562135D01*
X133519500Y-55657870D01*
X105757423Y-55657870D01*
X105658875Y-55471988D01*
X105461099Y-55180291D01*
X105338085Y-55035467D01*
X105338084Y-55035466D01*
X104167732Y-56205818D01*
X104004870Y-56015130D01*
X103814180Y-55852266D01*
X104987374Y-54679073D01*
X104987373Y-54679072D01*
X104977099Y-54669340D01*
X104977087Y-54669330D01*
X104696539Y-54456061D01*
X104696535Y-54456058D01*
X104394554Y-54274364D01*
X104074726Y-54126396D01*
X103740743Y-54013863D01*
X103396562Y-53938103D01*
X103046211Y-53900000D01*
X102693788Y-53900000D01*
X102343437Y-53938103D01*
X101999256Y-54013863D01*
X101665273Y-54126396D01*
X101345445Y-54274364D01*
X101043464Y-54456058D01*
X101043460Y-54456061D01*
X100762906Y-54669334D01*
X100752625Y-54679071D01*
X100752625Y-54679073D01*
X101925819Y-55852266D01*
X101735130Y-56015130D01*
X101572266Y-56205818D01*
X100401914Y-55035466D01*
X100401913Y-55035466D01*
X100278896Y-55180296D01*
X100081124Y-55471988D01*
X99916052Y-55783347D01*
X99916043Y-55783365D01*
X99785602Y-56110749D01*
X99785600Y-56110756D01*
X99691325Y-56450306D01*
X99691319Y-56450332D01*
X99634308Y-56798082D01*
X99634306Y-56798099D01*
X99615227Y-57149997D01*
X99615227Y-57150002D01*
X98425000Y-57150002D01*
X98425000Y-52829000D01*
X98444685Y-52761961D01*
X98497489Y-52716206D01*
X98549000Y-52705000D01*
X211331000Y-52705000D01*
X211398039Y-52724685D01*
G37*
G04 #@! TD.AperFunction*
M02*
