%TF.GenerationSoftware,KiCad,Pcbnew,7.0.11-7.0.11~ubuntu22.04.1*%
%TF.CreationDate,2024-10-29T07:47:58+09:00*%
%TF.ProjectId,Akashi-19,416b6173-6869-42d3-9139-2e6b69636164,rev?*%
%TF.SameCoordinates,Original*%
%TF.FileFunction,Drillmap*%
%TF.FilePolarity,Positive*%
%FSLAX45Y45*%
G04 Gerber Fmt 4.5, Leading zero omitted, Abs format (unit mm)*
G04 Created by KiCad (PCBNEW 7.0.11-7.0.11~ubuntu22.04.1) date 2024-10-29 07:47:58*
%MOMM*%
%LPD*%
G01*
G04 APERTURE LIST*
%ADD10C,0.050000*%
%ADD11C,0.200000*%
%ADD12C,0.150000*%
%ADD13C,0.180000*%
G04 APERTURE END LIST*
D10*
X21209000Y-5207000D02*
X9779000Y-5207000D01*
X9779000Y-14859000D02*
X21209000Y-14859000D01*
X9779000Y-5207000D02*
X9779000Y-14859000D01*
X21209000Y-14859000D02*
X21209000Y-5207000D01*
D11*
D12*
X10858500Y-7861000D02*
X11008500Y-8011000D01*
X11008500Y-7861000D02*
X10858500Y-8011000D01*
X11343500Y-7861000D02*
X11493500Y-8011000D01*
X11493500Y-7861000D02*
X11343500Y-8011000D01*
D13*
X10993500Y-7633000D02*
G75*
G03*
X10813500Y-7633000I-90000J0D01*
G01*
X10813500Y-7633000D02*
G75*
G03*
X10993500Y-7633000I90000J0D01*
G01*
X11538500Y-7633000D02*
G75*
G03*
X11358500Y-7633000I-90000J0D01*
G01*
X11358500Y-7633000D02*
G75*
G03*
X11538500Y-7633000I90000J0D01*
G01*
D11*
X10037277Y-15172984D02*
X10037277Y-14972984D01*
X10037277Y-14972984D02*
X10084896Y-14972984D01*
X10084896Y-14972984D02*
X10113467Y-14982508D01*
X10113467Y-14982508D02*
X10132515Y-15001555D01*
X10132515Y-15001555D02*
X10142039Y-15020603D01*
X10142039Y-15020603D02*
X10151563Y-15058698D01*
X10151563Y-15058698D02*
X10151563Y-15087269D01*
X10151563Y-15087269D02*
X10142039Y-15125365D01*
X10142039Y-15125365D02*
X10132515Y-15144412D01*
X10132515Y-15144412D02*
X10113467Y-15163460D01*
X10113467Y-15163460D02*
X10084896Y-15172984D01*
X10084896Y-15172984D02*
X10037277Y-15172984D01*
X10237277Y-15172984D02*
X10237277Y-15039650D01*
X10237277Y-15077746D02*
X10246801Y-15058698D01*
X10246801Y-15058698D02*
X10256324Y-15049174D01*
X10256324Y-15049174D02*
X10275372Y-15039650D01*
X10275372Y-15039650D02*
X10294420Y-15039650D01*
X10361086Y-15172984D02*
X10361086Y-15039650D01*
X10361086Y-14972984D02*
X10351563Y-14982508D01*
X10351563Y-14982508D02*
X10361086Y-14992031D01*
X10361086Y-14992031D02*
X10370610Y-14982508D01*
X10370610Y-14982508D02*
X10361086Y-14972984D01*
X10361086Y-14972984D02*
X10361086Y-14992031D01*
X10484896Y-15172984D02*
X10465848Y-15163460D01*
X10465848Y-15163460D02*
X10456324Y-15144412D01*
X10456324Y-15144412D02*
X10456324Y-14972984D01*
X10589658Y-15172984D02*
X10570610Y-15163460D01*
X10570610Y-15163460D02*
X10561086Y-15144412D01*
X10561086Y-15144412D02*
X10561086Y-14972984D01*
X10818229Y-15172984D02*
X10818229Y-14972984D01*
X10818229Y-14972984D02*
X10884896Y-15115841D01*
X10884896Y-15115841D02*
X10951563Y-14972984D01*
X10951563Y-14972984D02*
X10951563Y-15172984D01*
X11132515Y-15172984D02*
X11132515Y-15068222D01*
X11132515Y-15068222D02*
X11122991Y-15049174D01*
X11122991Y-15049174D02*
X11103944Y-15039650D01*
X11103944Y-15039650D02*
X11065848Y-15039650D01*
X11065848Y-15039650D02*
X11046801Y-15049174D01*
X11132515Y-15163460D02*
X11113467Y-15172984D01*
X11113467Y-15172984D02*
X11065848Y-15172984D01*
X11065848Y-15172984D02*
X11046801Y-15163460D01*
X11046801Y-15163460D02*
X11037277Y-15144412D01*
X11037277Y-15144412D02*
X11037277Y-15125365D01*
X11037277Y-15125365D02*
X11046801Y-15106317D01*
X11046801Y-15106317D02*
X11065848Y-15096793D01*
X11065848Y-15096793D02*
X11113467Y-15096793D01*
X11113467Y-15096793D02*
X11132515Y-15087269D01*
X11227753Y-15039650D02*
X11227753Y-15239650D01*
X11227753Y-15049174D02*
X11246801Y-15039650D01*
X11246801Y-15039650D02*
X11284896Y-15039650D01*
X11284896Y-15039650D02*
X11303943Y-15049174D01*
X11303943Y-15049174D02*
X11313467Y-15058698D01*
X11313467Y-15058698D02*
X11322991Y-15077746D01*
X11322991Y-15077746D02*
X11322991Y-15134888D01*
X11322991Y-15134888D02*
X11313467Y-15153936D01*
X11313467Y-15153936D02*
X11303943Y-15163460D01*
X11303943Y-15163460D02*
X11284896Y-15172984D01*
X11284896Y-15172984D02*
X11246801Y-15172984D01*
X11246801Y-15172984D02*
X11227753Y-15163460D01*
X11408705Y-15153936D02*
X11418229Y-15163460D01*
X11418229Y-15163460D02*
X11408705Y-15172984D01*
X11408705Y-15172984D02*
X11399182Y-15163460D01*
X11399182Y-15163460D02*
X11408705Y-15153936D01*
X11408705Y-15153936D02*
X11408705Y-15172984D01*
X11408705Y-15049174D02*
X11418229Y-15058698D01*
X11418229Y-15058698D02*
X11408705Y-15068222D01*
X11408705Y-15068222D02*
X11399182Y-15058698D01*
X11399182Y-15058698D02*
X11408705Y-15049174D01*
X11408705Y-15049174D02*
X11408705Y-15068222D01*
D12*
X9626500Y-15426500D02*
X9776500Y-15576500D01*
X9776500Y-15426500D02*
X9626500Y-15576500D01*
D11*
X10142039Y-15592984D02*
X10027753Y-15592984D01*
X10084896Y-15592984D02*
X10084896Y-15392984D01*
X10084896Y-15392984D02*
X10065848Y-15421555D01*
X10065848Y-15421555D02*
X10046801Y-15440603D01*
X10046801Y-15440603D02*
X10027753Y-15450127D01*
X10227753Y-15573936D02*
X10237277Y-15583460D01*
X10237277Y-15583460D02*
X10227753Y-15592984D01*
X10227753Y-15592984D02*
X10218229Y-15583460D01*
X10218229Y-15583460D02*
X10227753Y-15573936D01*
X10227753Y-15573936D02*
X10227753Y-15592984D01*
X10418229Y-15392984D02*
X10322991Y-15392984D01*
X10322991Y-15392984D02*
X10313467Y-15488222D01*
X10313467Y-15488222D02*
X10322991Y-15478698D01*
X10322991Y-15478698D02*
X10342039Y-15469174D01*
X10342039Y-15469174D02*
X10389658Y-15469174D01*
X10389658Y-15469174D02*
X10408705Y-15478698D01*
X10408705Y-15478698D02*
X10418229Y-15488222D01*
X10418229Y-15488222D02*
X10427753Y-15507269D01*
X10427753Y-15507269D02*
X10427753Y-15554888D01*
X10427753Y-15554888D02*
X10418229Y-15573936D01*
X10418229Y-15573936D02*
X10408705Y-15583460D01*
X10408705Y-15583460D02*
X10389658Y-15592984D01*
X10389658Y-15592984D02*
X10342039Y-15592984D01*
X10342039Y-15592984D02*
X10322991Y-15583460D01*
X10322991Y-15583460D02*
X10313467Y-15573936D01*
X10551563Y-15392984D02*
X10570610Y-15392984D01*
X10570610Y-15392984D02*
X10589658Y-15402508D01*
X10589658Y-15402508D02*
X10599182Y-15412031D01*
X10599182Y-15412031D02*
X10608705Y-15431079D01*
X10608705Y-15431079D02*
X10618229Y-15469174D01*
X10618229Y-15469174D02*
X10618229Y-15516793D01*
X10618229Y-15516793D02*
X10608705Y-15554888D01*
X10608705Y-15554888D02*
X10599182Y-15573936D01*
X10599182Y-15573936D02*
X10589658Y-15583460D01*
X10589658Y-15583460D02*
X10570610Y-15592984D01*
X10570610Y-15592984D02*
X10551563Y-15592984D01*
X10551563Y-15592984D02*
X10532515Y-15583460D01*
X10532515Y-15583460D02*
X10522991Y-15573936D01*
X10522991Y-15573936D02*
X10513467Y-15554888D01*
X10513467Y-15554888D02*
X10503944Y-15516793D01*
X10503944Y-15516793D02*
X10503944Y-15469174D01*
X10503944Y-15469174D02*
X10513467Y-15431079D01*
X10513467Y-15431079D02*
X10522991Y-15412031D01*
X10522991Y-15412031D02*
X10532515Y-15402508D01*
X10532515Y-15402508D02*
X10551563Y-15392984D01*
X10742039Y-15392984D02*
X10761086Y-15392984D01*
X10761086Y-15392984D02*
X10780134Y-15402508D01*
X10780134Y-15402508D02*
X10789658Y-15412031D01*
X10789658Y-15412031D02*
X10799182Y-15431079D01*
X10799182Y-15431079D02*
X10808705Y-15469174D01*
X10808705Y-15469174D02*
X10808705Y-15516793D01*
X10808705Y-15516793D02*
X10799182Y-15554888D01*
X10799182Y-15554888D02*
X10789658Y-15573936D01*
X10789658Y-15573936D02*
X10780134Y-15583460D01*
X10780134Y-15583460D02*
X10761086Y-15592984D01*
X10761086Y-15592984D02*
X10742039Y-15592984D01*
X10742039Y-15592984D02*
X10722991Y-15583460D01*
X10722991Y-15583460D02*
X10713467Y-15573936D01*
X10713467Y-15573936D02*
X10703944Y-15554888D01*
X10703944Y-15554888D02*
X10694420Y-15516793D01*
X10694420Y-15516793D02*
X10694420Y-15469174D01*
X10694420Y-15469174D02*
X10703944Y-15431079D01*
X10703944Y-15431079D02*
X10713467Y-15412031D01*
X10713467Y-15412031D02*
X10722991Y-15402508D01*
X10722991Y-15402508D02*
X10742039Y-15392984D01*
X10894420Y-15592984D02*
X10894420Y-15459650D01*
X10894420Y-15478698D02*
X10903944Y-15469174D01*
X10903944Y-15469174D02*
X10922991Y-15459650D01*
X10922991Y-15459650D02*
X10951563Y-15459650D01*
X10951563Y-15459650D02*
X10970610Y-15469174D01*
X10970610Y-15469174D02*
X10980134Y-15488222D01*
X10980134Y-15488222D02*
X10980134Y-15592984D01*
X10980134Y-15488222D02*
X10989658Y-15469174D01*
X10989658Y-15469174D02*
X11008705Y-15459650D01*
X11008705Y-15459650D02*
X11037277Y-15459650D01*
X11037277Y-15459650D02*
X11056325Y-15469174D01*
X11056325Y-15469174D02*
X11065848Y-15488222D01*
X11065848Y-15488222D02*
X11065848Y-15592984D01*
X11161086Y-15592984D02*
X11161086Y-15459650D01*
X11161086Y-15478698D02*
X11170610Y-15469174D01*
X11170610Y-15469174D02*
X11189658Y-15459650D01*
X11189658Y-15459650D02*
X11218229Y-15459650D01*
X11218229Y-15459650D02*
X11237277Y-15469174D01*
X11237277Y-15469174D02*
X11246801Y-15488222D01*
X11246801Y-15488222D02*
X11246801Y-15592984D01*
X11246801Y-15488222D02*
X11256324Y-15469174D01*
X11256324Y-15469174D02*
X11275372Y-15459650D01*
X11275372Y-15459650D02*
X11303943Y-15459650D01*
X11303943Y-15459650D02*
X11322991Y-15469174D01*
X11322991Y-15469174D02*
X11332515Y-15488222D01*
X11332515Y-15488222D02*
X11332515Y-15592984D01*
X11722991Y-15383460D02*
X11551563Y-15640603D01*
X11980134Y-15392984D02*
X11999182Y-15392984D01*
X11999182Y-15392984D02*
X12018229Y-15402508D01*
X12018229Y-15402508D02*
X12027753Y-15412031D01*
X12027753Y-15412031D02*
X12037277Y-15431079D01*
X12037277Y-15431079D02*
X12046801Y-15469174D01*
X12046801Y-15469174D02*
X12046801Y-15516793D01*
X12046801Y-15516793D02*
X12037277Y-15554888D01*
X12037277Y-15554888D02*
X12027753Y-15573936D01*
X12027753Y-15573936D02*
X12018229Y-15583460D01*
X12018229Y-15583460D02*
X11999182Y-15592984D01*
X11999182Y-15592984D02*
X11980134Y-15592984D01*
X11980134Y-15592984D02*
X11961086Y-15583460D01*
X11961086Y-15583460D02*
X11951563Y-15573936D01*
X11951563Y-15573936D02*
X11942039Y-15554888D01*
X11942039Y-15554888D02*
X11932515Y-15516793D01*
X11932515Y-15516793D02*
X11932515Y-15469174D01*
X11932515Y-15469174D02*
X11942039Y-15431079D01*
X11942039Y-15431079D02*
X11951563Y-15412031D01*
X11951563Y-15412031D02*
X11961086Y-15402508D01*
X11961086Y-15402508D02*
X11980134Y-15392984D01*
X12132515Y-15573936D02*
X12142039Y-15583460D01*
X12142039Y-15583460D02*
X12132515Y-15592984D01*
X12132515Y-15592984D02*
X12122991Y-15583460D01*
X12122991Y-15583460D02*
X12132515Y-15573936D01*
X12132515Y-15573936D02*
X12132515Y-15592984D01*
X12265848Y-15392984D02*
X12284896Y-15392984D01*
X12284896Y-15392984D02*
X12303944Y-15402508D01*
X12303944Y-15402508D02*
X12313467Y-15412031D01*
X12313467Y-15412031D02*
X12322991Y-15431079D01*
X12322991Y-15431079D02*
X12332515Y-15469174D01*
X12332515Y-15469174D02*
X12332515Y-15516793D01*
X12332515Y-15516793D02*
X12322991Y-15554888D01*
X12322991Y-15554888D02*
X12313467Y-15573936D01*
X12313467Y-15573936D02*
X12303944Y-15583460D01*
X12303944Y-15583460D02*
X12284896Y-15592984D01*
X12284896Y-15592984D02*
X12265848Y-15592984D01*
X12265848Y-15592984D02*
X12246801Y-15583460D01*
X12246801Y-15583460D02*
X12237277Y-15573936D01*
X12237277Y-15573936D02*
X12227753Y-15554888D01*
X12227753Y-15554888D02*
X12218229Y-15516793D01*
X12218229Y-15516793D02*
X12218229Y-15469174D01*
X12218229Y-15469174D02*
X12227753Y-15431079D01*
X12227753Y-15431079D02*
X12237277Y-15412031D01*
X12237277Y-15412031D02*
X12246801Y-15402508D01*
X12246801Y-15402508D02*
X12265848Y-15392984D01*
X12513467Y-15392984D02*
X12418229Y-15392984D01*
X12418229Y-15392984D02*
X12408706Y-15488222D01*
X12408706Y-15488222D02*
X12418229Y-15478698D01*
X12418229Y-15478698D02*
X12437277Y-15469174D01*
X12437277Y-15469174D02*
X12484896Y-15469174D01*
X12484896Y-15469174D02*
X12503944Y-15478698D01*
X12503944Y-15478698D02*
X12513467Y-15488222D01*
X12513467Y-15488222D02*
X12522991Y-15507269D01*
X12522991Y-15507269D02*
X12522991Y-15554888D01*
X12522991Y-15554888D02*
X12513467Y-15573936D01*
X12513467Y-15573936D02*
X12503944Y-15583460D01*
X12503944Y-15583460D02*
X12484896Y-15592984D01*
X12484896Y-15592984D02*
X12437277Y-15592984D01*
X12437277Y-15592984D02*
X12418229Y-15583460D01*
X12418229Y-15583460D02*
X12408706Y-15573936D01*
X12618229Y-15592984D02*
X12656325Y-15592984D01*
X12656325Y-15592984D02*
X12675372Y-15583460D01*
X12675372Y-15583460D02*
X12684896Y-15573936D01*
X12684896Y-15573936D02*
X12703944Y-15545365D01*
X12703944Y-15545365D02*
X12713467Y-15507269D01*
X12713467Y-15507269D02*
X12713467Y-15431079D01*
X12713467Y-15431079D02*
X12703944Y-15412031D01*
X12703944Y-15412031D02*
X12694420Y-15402508D01*
X12694420Y-15402508D02*
X12675372Y-15392984D01*
X12675372Y-15392984D02*
X12637277Y-15392984D01*
X12637277Y-15392984D02*
X12618229Y-15402508D01*
X12618229Y-15402508D02*
X12608706Y-15412031D01*
X12608706Y-15412031D02*
X12599182Y-15431079D01*
X12599182Y-15431079D02*
X12599182Y-15478698D01*
X12599182Y-15478698D02*
X12608706Y-15497746D01*
X12608706Y-15497746D02*
X12618229Y-15507269D01*
X12618229Y-15507269D02*
X12637277Y-15516793D01*
X12637277Y-15516793D02*
X12675372Y-15516793D01*
X12675372Y-15516793D02*
X12694420Y-15507269D01*
X12694420Y-15507269D02*
X12703944Y-15497746D01*
X12703944Y-15497746D02*
X12713467Y-15478698D01*
X12903944Y-15592984D02*
X12789658Y-15592984D01*
X12846801Y-15592984D02*
X12846801Y-15392984D01*
X12846801Y-15392984D02*
X12827753Y-15421555D01*
X12827753Y-15421555D02*
X12808706Y-15440603D01*
X12808706Y-15440603D02*
X12789658Y-15450127D01*
X12980134Y-15392984D02*
X12980134Y-15431079D01*
X13056325Y-15392984D02*
X13056325Y-15431079D01*
X13351563Y-15669174D02*
X13342039Y-15659650D01*
X13342039Y-15659650D02*
X13322991Y-15631079D01*
X13322991Y-15631079D02*
X13313468Y-15612031D01*
X13313468Y-15612031D02*
X13303944Y-15583460D01*
X13303944Y-15583460D02*
X13294420Y-15535841D01*
X13294420Y-15535841D02*
X13294420Y-15497746D01*
X13294420Y-15497746D02*
X13303944Y-15450127D01*
X13303944Y-15450127D02*
X13313468Y-15421555D01*
X13313468Y-15421555D02*
X13322991Y-15402508D01*
X13322991Y-15402508D02*
X13342039Y-15373936D01*
X13342039Y-15373936D02*
X13351563Y-15364412D01*
X13418229Y-15412031D02*
X13427753Y-15402508D01*
X13427753Y-15402508D02*
X13446801Y-15392984D01*
X13446801Y-15392984D02*
X13494420Y-15392984D01*
X13494420Y-15392984D02*
X13513468Y-15402508D01*
X13513468Y-15402508D02*
X13522991Y-15412031D01*
X13522991Y-15412031D02*
X13532515Y-15431079D01*
X13532515Y-15431079D02*
X13532515Y-15450127D01*
X13532515Y-15450127D02*
X13522991Y-15478698D01*
X13522991Y-15478698D02*
X13408706Y-15592984D01*
X13408706Y-15592984D02*
X13532515Y-15592984D01*
X13770610Y-15592984D02*
X13770610Y-15392984D01*
X13856325Y-15592984D02*
X13856325Y-15488222D01*
X13856325Y-15488222D02*
X13846801Y-15469174D01*
X13846801Y-15469174D02*
X13827753Y-15459650D01*
X13827753Y-15459650D02*
X13799182Y-15459650D01*
X13799182Y-15459650D02*
X13780134Y-15469174D01*
X13780134Y-15469174D02*
X13770610Y-15478698D01*
X13980134Y-15592984D02*
X13961087Y-15583460D01*
X13961087Y-15583460D02*
X13951563Y-15573936D01*
X13951563Y-15573936D02*
X13942039Y-15554888D01*
X13942039Y-15554888D02*
X13942039Y-15497746D01*
X13942039Y-15497746D02*
X13951563Y-15478698D01*
X13951563Y-15478698D02*
X13961087Y-15469174D01*
X13961087Y-15469174D02*
X13980134Y-15459650D01*
X13980134Y-15459650D02*
X14008706Y-15459650D01*
X14008706Y-15459650D02*
X14027753Y-15469174D01*
X14027753Y-15469174D02*
X14037277Y-15478698D01*
X14037277Y-15478698D02*
X14046801Y-15497746D01*
X14046801Y-15497746D02*
X14046801Y-15554888D01*
X14046801Y-15554888D02*
X14037277Y-15573936D01*
X14037277Y-15573936D02*
X14027753Y-15583460D01*
X14027753Y-15583460D02*
X14008706Y-15592984D01*
X14008706Y-15592984D02*
X13980134Y-15592984D01*
X14161087Y-15592984D02*
X14142039Y-15583460D01*
X14142039Y-15583460D02*
X14132515Y-15564412D01*
X14132515Y-15564412D02*
X14132515Y-15392984D01*
X14313468Y-15583460D02*
X14294420Y-15592984D01*
X14294420Y-15592984D02*
X14256325Y-15592984D01*
X14256325Y-15592984D02*
X14237277Y-15583460D01*
X14237277Y-15583460D02*
X14227753Y-15564412D01*
X14227753Y-15564412D02*
X14227753Y-15488222D01*
X14227753Y-15488222D02*
X14237277Y-15469174D01*
X14237277Y-15469174D02*
X14256325Y-15459650D01*
X14256325Y-15459650D02*
X14294420Y-15459650D01*
X14294420Y-15459650D02*
X14313468Y-15469174D01*
X14313468Y-15469174D02*
X14322991Y-15488222D01*
X14322991Y-15488222D02*
X14322991Y-15507269D01*
X14322991Y-15507269D02*
X14227753Y-15526317D01*
X14399182Y-15583460D02*
X14418230Y-15592984D01*
X14418230Y-15592984D02*
X14456325Y-15592984D01*
X14456325Y-15592984D02*
X14475372Y-15583460D01*
X14475372Y-15583460D02*
X14484896Y-15564412D01*
X14484896Y-15564412D02*
X14484896Y-15554888D01*
X14484896Y-15554888D02*
X14475372Y-15535841D01*
X14475372Y-15535841D02*
X14456325Y-15526317D01*
X14456325Y-15526317D02*
X14427753Y-15526317D01*
X14427753Y-15526317D02*
X14408706Y-15516793D01*
X14408706Y-15516793D02*
X14399182Y-15497746D01*
X14399182Y-15497746D02*
X14399182Y-15488222D01*
X14399182Y-15488222D02*
X14408706Y-15469174D01*
X14408706Y-15469174D02*
X14427753Y-15459650D01*
X14427753Y-15459650D02*
X14456325Y-15459650D01*
X14456325Y-15459650D02*
X14475372Y-15469174D01*
X14551563Y-15669174D02*
X14561087Y-15659650D01*
X14561087Y-15659650D02*
X14580134Y-15631079D01*
X14580134Y-15631079D02*
X14589658Y-15612031D01*
X14589658Y-15612031D02*
X14599182Y-15583460D01*
X14599182Y-15583460D02*
X14608706Y-15535841D01*
X14608706Y-15535841D02*
X14608706Y-15497746D01*
X14608706Y-15497746D02*
X14599182Y-15450127D01*
X14599182Y-15450127D02*
X14589658Y-15421555D01*
X14589658Y-15421555D02*
X14580134Y-15402508D01*
X14580134Y-15402508D02*
X14561087Y-15373936D01*
X14561087Y-15373936D02*
X14551563Y-15364412D01*
X14913468Y-15669174D02*
X14903944Y-15659650D01*
X14903944Y-15659650D02*
X14884896Y-15631079D01*
X14884896Y-15631079D02*
X14875372Y-15612031D01*
X14875372Y-15612031D02*
X14865849Y-15583460D01*
X14865849Y-15583460D02*
X14856325Y-15535841D01*
X14856325Y-15535841D02*
X14856325Y-15497746D01*
X14856325Y-15497746D02*
X14865849Y-15450127D01*
X14865849Y-15450127D02*
X14875372Y-15421555D01*
X14875372Y-15421555D02*
X14884896Y-15402508D01*
X14884896Y-15402508D02*
X14903944Y-15373936D01*
X14903944Y-15373936D02*
X14913468Y-15364412D01*
X14989658Y-15459650D02*
X14989658Y-15592984D01*
X14989658Y-15478698D02*
X14999182Y-15469174D01*
X14999182Y-15469174D02*
X15018230Y-15459650D01*
X15018230Y-15459650D02*
X15046801Y-15459650D01*
X15046801Y-15459650D02*
X15065849Y-15469174D01*
X15065849Y-15469174D02*
X15075372Y-15488222D01*
X15075372Y-15488222D02*
X15075372Y-15592984D01*
X15199182Y-15592984D02*
X15180134Y-15583460D01*
X15180134Y-15583460D02*
X15170611Y-15573936D01*
X15170611Y-15573936D02*
X15161087Y-15554888D01*
X15161087Y-15554888D02*
X15161087Y-15497746D01*
X15161087Y-15497746D02*
X15170611Y-15478698D01*
X15170611Y-15478698D02*
X15180134Y-15469174D01*
X15180134Y-15469174D02*
X15199182Y-15459650D01*
X15199182Y-15459650D02*
X15227753Y-15459650D01*
X15227753Y-15459650D02*
X15246801Y-15469174D01*
X15246801Y-15469174D02*
X15256325Y-15478698D01*
X15256325Y-15478698D02*
X15265849Y-15497746D01*
X15265849Y-15497746D02*
X15265849Y-15554888D01*
X15265849Y-15554888D02*
X15256325Y-15573936D01*
X15256325Y-15573936D02*
X15246801Y-15583460D01*
X15246801Y-15583460D02*
X15227753Y-15592984D01*
X15227753Y-15592984D02*
X15199182Y-15592984D01*
X15322992Y-15459650D02*
X15399182Y-15459650D01*
X15351563Y-15392984D02*
X15351563Y-15564412D01*
X15351563Y-15564412D02*
X15361087Y-15583460D01*
X15361087Y-15583460D02*
X15380134Y-15592984D01*
X15380134Y-15592984D02*
X15399182Y-15592984D01*
X15618230Y-15459650D02*
X15618230Y-15659650D01*
X15618230Y-15469174D02*
X15637277Y-15459650D01*
X15637277Y-15459650D02*
X15675373Y-15459650D01*
X15675373Y-15459650D02*
X15694420Y-15469174D01*
X15694420Y-15469174D02*
X15703944Y-15478698D01*
X15703944Y-15478698D02*
X15713468Y-15497746D01*
X15713468Y-15497746D02*
X15713468Y-15554888D01*
X15713468Y-15554888D02*
X15703944Y-15573936D01*
X15703944Y-15573936D02*
X15694420Y-15583460D01*
X15694420Y-15583460D02*
X15675373Y-15592984D01*
X15675373Y-15592984D02*
X15637277Y-15592984D01*
X15637277Y-15592984D02*
X15618230Y-15583460D01*
X15827753Y-15592984D02*
X15808706Y-15583460D01*
X15808706Y-15583460D02*
X15799182Y-15564412D01*
X15799182Y-15564412D02*
X15799182Y-15392984D01*
X15989658Y-15592984D02*
X15989658Y-15488222D01*
X15989658Y-15488222D02*
X15980134Y-15469174D01*
X15980134Y-15469174D02*
X15961087Y-15459650D01*
X15961087Y-15459650D02*
X15922992Y-15459650D01*
X15922992Y-15459650D02*
X15903944Y-15469174D01*
X15989658Y-15583460D02*
X15970611Y-15592984D01*
X15970611Y-15592984D02*
X15922992Y-15592984D01*
X15922992Y-15592984D02*
X15903944Y-15583460D01*
X15903944Y-15583460D02*
X15894420Y-15564412D01*
X15894420Y-15564412D02*
X15894420Y-15545365D01*
X15894420Y-15545365D02*
X15903944Y-15526317D01*
X15903944Y-15526317D02*
X15922992Y-15516793D01*
X15922992Y-15516793D02*
X15970611Y-15516793D01*
X15970611Y-15516793D02*
X15989658Y-15507269D01*
X16056325Y-15459650D02*
X16132515Y-15459650D01*
X16084896Y-15392984D02*
X16084896Y-15564412D01*
X16084896Y-15564412D02*
X16094420Y-15583460D01*
X16094420Y-15583460D02*
X16113468Y-15592984D01*
X16113468Y-15592984D02*
X16132515Y-15592984D01*
X16275373Y-15583460D02*
X16256325Y-15592984D01*
X16256325Y-15592984D02*
X16218230Y-15592984D01*
X16218230Y-15592984D02*
X16199182Y-15583460D01*
X16199182Y-15583460D02*
X16189658Y-15564412D01*
X16189658Y-15564412D02*
X16189658Y-15488222D01*
X16189658Y-15488222D02*
X16199182Y-15469174D01*
X16199182Y-15469174D02*
X16218230Y-15459650D01*
X16218230Y-15459650D02*
X16256325Y-15459650D01*
X16256325Y-15459650D02*
X16275373Y-15469174D01*
X16275373Y-15469174D02*
X16284896Y-15488222D01*
X16284896Y-15488222D02*
X16284896Y-15507269D01*
X16284896Y-15507269D02*
X16189658Y-15526317D01*
X16456325Y-15592984D02*
X16456325Y-15392984D01*
X16456325Y-15583460D02*
X16437277Y-15592984D01*
X16437277Y-15592984D02*
X16399182Y-15592984D01*
X16399182Y-15592984D02*
X16380134Y-15583460D01*
X16380134Y-15583460D02*
X16370611Y-15573936D01*
X16370611Y-15573936D02*
X16361087Y-15554888D01*
X16361087Y-15554888D02*
X16361087Y-15497746D01*
X16361087Y-15497746D02*
X16370611Y-15478698D01*
X16370611Y-15478698D02*
X16380134Y-15469174D01*
X16380134Y-15469174D02*
X16399182Y-15459650D01*
X16399182Y-15459650D02*
X16437277Y-15459650D01*
X16437277Y-15459650D02*
X16456325Y-15469174D01*
X16532515Y-15669174D02*
X16542039Y-15659650D01*
X16542039Y-15659650D02*
X16561087Y-15631079D01*
X16561087Y-15631079D02*
X16570611Y-15612031D01*
X16570611Y-15612031D02*
X16580134Y-15583460D01*
X16580134Y-15583460D02*
X16589658Y-15535841D01*
X16589658Y-15535841D02*
X16589658Y-15497746D01*
X16589658Y-15497746D02*
X16580134Y-15450127D01*
X16580134Y-15450127D02*
X16570611Y-15421555D01*
X16570611Y-15421555D02*
X16561087Y-15402508D01*
X16561087Y-15402508D02*
X16542039Y-15373936D01*
X16542039Y-15373936D02*
X16532515Y-15364412D01*
D13*
X9776500Y-15771500D02*
G75*
G03*
X9596500Y-15771500I-90000J0D01*
G01*
X9596500Y-15771500D02*
G75*
G03*
X9776500Y-15771500I90000J0D01*
G01*
D11*
X10142039Y-15862984D02*
X10027753Y-15862984D01*
X10084896Y-15862984D02*
X10084896Y-15662984D01*
X10084896Y-15662984D02*
X10065848Y-15691555D01*
X10065848Y-15691555D02*
X10046801Y-15710603D01*
X10046801Y-15710603D02*
X10027753Y-15720127D01*
X10227753Y-15843936D02*
X10237277Y-15853460D01*
X10237277Y-15853460D02*
X10227753Y-15862984D01*
X10227753Y-15862984D02*
X10218229Y-15853460D01*
X10218229Y-15853460D02*
X10227753Y-15843936D01*
X10227753Y-15843936D02*
X10227753Y-15862984D01*
X10351563Y-15748698D02*
X10332515Y-15739174D01*
X10332515Y-15739174D02*
X10322991Y-15729650D01*
X10322991Y-15729650D02*
X10313467Y-15710603D01*
X10313467Y-15710603D02*
X10313467Y-15701079D01*
X10313467Y-15701079D02*
X10322991Y-15682031D01*
X10322991Y-15682031D02*
X10332515Y-15672508D01*
X10332515Y-15672508D02*
X10351563Y-15662984D01*
X10351563Y-15662984D02*
X10389658Y-15662984D01*
X10389658Y-15662984D02*
X10408705Y-15672508D01*
X10408705Y-15672508D02*
X10418229Y-15682031D01*
X10418229Y-15682031D02*
X10427753Y-15701079D01*
X10427753Y-15701079D02*
X10427753Y-15710603D01*
X10427753Y-15710603D02*
X10418229Y-15729650D01*
X10418229Y-15729650D02*
X10408705Y-15739174D01*
X10408705Y-15739174D02*
X10389658Y-15748698D01*
X10389658Y-15748698D02*
X10351563Y-15748698D01*
X10351563Y-15748698D02*
X10332515Y-15758222D01*
X10332515Y-15758222D02*
X10322991Y-15767746D01*
X10322991Y-15767746D02*
X10313467Y-15786793D01*
X10313467Y-15786793D02*
X10313467Y-15824888D01*
X10313467Y-15824888D02*
X10322991Y-15843936D01*
X10322991Y-15843936D02*
X10332515Y-15853460D01*
X10332515Y-15853460D02*
X10351563Y-15862984D01*
X10351563Y-15862984D02*
X10389658Y-15862984D01*
X10389658Y-15862984D02*
X10408705Y-15853460D01*
X10408705Y-15853460D02*
X10418229Y-15843936D01*
X10418229Y-15843936D02*
X10427753Y-15824888D01*
X10427753Y-15824888D02*
X10427753Y-15786793D01*
X10427753Y-15786793D02*
X10418229Y-15767746D01*
X10418229Y-15767746D02*
X10408705Y-15758222D01*
X10408705Y-15758222D02*
X10389658Y-15748698D01*
X10551563Y-15662984D02*
X10570610Y-15662984D01*
X10570610Y-15662984D02*
X10589658Y-15672508D01*
X10589658Y-15672508D02*
X10599182Y-15682031D01*
X10599182Y-15682031D02*
X10608705Y-15701079D01*
X10608705Y-15701079D02*
X10618229Y-15739174D01*
X10618229Y-15739174D02*
X10618229Y-15786793D01*
X10618229Y-15786793D02*
X10608705Y-15824888D01*
X10608705Y-15824888D02*
X10599182Y-15843936D01*
X10599182Y-15843936D02*
X10589658Y-15853460D01*
X10589658Y-15853460D02*
X10570610Y-15862984D01*
X10570610Y-15862984D02*
X10551563Y-15862984D01*
X10551563Y-15862984D02*
X10532515Y-15853460D01*
X10532515Y-15853460D02*
X10522991Y-15843936D01*
X10522991Y-15843936D02*
X10513467Y-15824888D01*
X10513467Y-15824888D02*
X10503944Y-15786793D01*
X10503944Y-15786793D02*
X10503944Y-15739174D01*
X10503944Y-15739174D02*
X10513467Y-15701079D01*
X10513467Y-15701079D02*
X10522991Y-15682031D01*
X10522991Y-15682031D02*
X10532515Y-15672508D01*
X10532515Y-15672508D02*
X10551563Y-15662984D01*
X10742039Y-15662984D02*
X10761086Y-15662984D01*
X10761086Y-15662984D02*
X10780134Y-15672508D01*
X10780134Y-15672508D02*
X10789658Y-15682031D01*
X10789658Y-15682031D02*
X10799182Y-15701079D01*
X10799182Y-15701079D02*
X10808705Y-15739174D01*
X10808705Y-15739174D02*
X10808705Y-15786793D01*
X10808705Y-15786793D02*
X10799182Y-15824888D01*
X10799182Y-15824888D02*
X10789658Y-15843936D01*
X10789658Y-15843936D02*
X10780134Y-15853460D01*
X10780134Y-15853460D02*
X10761086Y-15862984D01*
X10761086Y-15862984D02*
X10742039Y-15862984D01*
X10742039Y-15862984D02*
X10722991Y-15853460D01*
X10722991Y-15853460D02*
X10713467Y-15843936D01*
X10713467Y-15843936D02*
X10703944Y-15824888D01*
X10703944Y-15824888D02*
X10694420Y-15786793D01*
X10694420Y-15786793D02*
X10694420Y-15739174D01*
X10694420Y-15739174D02*
X10703944Y-15701079D01*
X10703944Y-15701079D02*
X10713467Y-15682031D01*
X10713467Y-15682031D02*
X10722991Y-15672508D01*
X10722991Y-15672508D02*
X10742039Y-15662984D01*
X10894420Y-15862984D02*
X10894420Y-15729650D01*
X10894420Y-15748698D02*
X10903944Y-15739174D01*
X10903944Y-15739174D02*
X10922991Y-15729650D01*
X10922991Y-15729650D02*
X10951563Y-15729650D01*
X10951563Y-15729650D02*
X10970610Y-15739174D01*
X10970610Y-15739174D02*
X10980134Y-15758222D01*
X10980134Y-15758222D02*
X10980134Y-15862984D01*
X10980134Y-15758222D02*
X10989658Y-15739174D01*
X10989658Y-15739174D02*
X11008705Y-15729650D01*
X11008705Y-15729650D02*
X11037277Y-15729650D01*
X11037277Y-15729650D02*
X11056325Y-15739174D01*
X11056325Y-15739174D02*
X11065848Y-15758222D01*
X11065848Y-15758222D02*
X11065848Y-15862984D01*
X11161086Y-15862984D02*
X11161086Y-15729650D01*
X11161086Y-15748698D02*
X11170610Y-15739174D01*
X11170610Y-15739174D02*
X11189658Y-15729650D01*
X11189658Y-15729650D02*
X11218229Y-15729650D01*
X11218229Y-15729650D02*
X11237277Y-15739174D01*
X11237277Y-15739174D02*
X11246801Y-15758222D01*
X11246801Y-15758222D02*
X11246801Y-15862984D01*
X11246801Y-15758222D02*
X11256324Y-15739174D01*
X11256324Y-15739174D02*
X11275372Y-15729650D01*
X11275372Y-15729650D02*
X11303943Y-15729650D01*
X11303943Y-15729650D02*
X11322991Y-15739174D01*
X11322991Y-15739174D02*
X11332515Y-15758222D01*
X11332515Y-15758222D02*
X11332515Y-15862984D01*
X11722991Y-15653460D02*
X11551563Y-15910603D01*
X11980134Y-15662984D02*
X11999182Y-15662984D01*
X11999182Y-15662984D02*
X12018229Y-15672508D01*
X12018229Y-15672508D02*
X12027753Y-15682031D01*
X12027753Y-15682031D02*
X12037277Y-15701079D01*
X12037277Y-15701079D02*
X12046801Y-15739174D01*
X12046801Y-15739174D02*
X12046801Y-15786793D01*
X12046801Y-15786793D02*
X12037277Y-15824888D01*
X12037277Y-15824888D02*
X12027753Y-15843936D01*
X12027753Y-15843936D02*
X12018229Y-15853460D01*
X12018229Y-15853460D02*
X11999182Y-15862984D01*
X11999182Y-15862984D02*
X11980134Y-15862984D01*
X11980134Y-15862984D02*
X11961086Y-15853460D01*
X11961086Y-15853460D02*
X11951563Y-15843936D01*
X11951563Y-15843936D02*
X11942039Y-15824888D01*
X11942039Y-15824888D02*
X11932515Y-15786793D01*
X11932515Y-15786793D02*
X11932515Y-15739174D01*
X11932515Y-15739174D02*
X11942039Y-15701079D01*
X11942039Y-15701079D02*
X11951563Y-15682031D01*
X11951563Y-15682031D02*
X11961086Y-15672508D01*
X11961086Y-15672508D02*
X11980134Y-15662984D01*
X12132515Y-15843936D02*
X12142039Y-15853460D01*
X12142039Y-15853460D02*
X12132515Y-15862984D01*
X12132515Y-15862984D02*
X12122991Y-15853460D01*
X12122991Y-15853460D02*
X12132515Y-15843936D01*
X12132515Y-15843936D02*
X12132515Y-15862984D01*
X12265848Y-15662984D02*
X12284896Y-15662984D01*
X12284896Y-15662984D02*
X12303944Y-15672508D01*
X12303944Y-15672508D02*
X12313467Y-15682031D01*
X12313467Y-15682031D02*
X12322991Y-15701079D01*
X12322991Y-15701079D02*
X12332515Y-15739174D01*
X12332515Y-15739174D02*
X12332515Y-15786793D01*
X12332515Y-15786793D02*
X12322991Y-15824888D01*
X12322991Y-15824888D02*
X12313467Y-15843936D01*
X12313467Y-15843936D02*
X12303944Y-15853460D01*
X12303944Y-15853460D02*
X12284896Y-15862984D01*
X12284896Y-15862984D02*
X12265848Y-15862984D01*
X12265848Y-15862984D02*
X12246801Y-15853460D01*
X12246801Y-15853460D02*
X12237277Y-15843936D01*
X12237277Y-15843936D02*
X12227753Y-15824888D01*
X12227753Y-15824888D02*
X12218229Y-15786793D01*
X12218229Y-15786793D02*
X12218229Y-15739174D01*
X12218229Y-15739174D02*
X12227753Y-15701079D01*
X12227753Y-15701079D02*
X12237277Y-15682031D01*
X12237277Y-15682031D02*
X12246801Y-15672508D01*
X12246801Y-15672508D02*
X12265848Y-15662984D01*
X12399182Y-15662984D02*
X12532515Y-15662984D01*
X12532515Y-15662984D02*
X12446801Y-15862984D01*
X12646801Y-15662984D02*
X12665848Y-15662984D01*
X12665848Y-15662984D02*
X12684896Y-15672508D01*
X12684896Y-15672508D02*
X12694420Y-15682031D01*
X12694420Y-15682031D02*
X12703944Y-15701079D01*
X12703944Y-15701079D02*
X12713467Y-15739174D01*
X12713467Y-15739174D02*
X12713467Y-15786793D01*
X12713467Y-15786793D02*
X12703944Y-15824888D01*
X12703944Y-15824888D02*
X12694420Y-15843936D01*
X12694420Y-15843936D02*
X12684896Y-15853460D01*
X12684896Y-15853460D02*
X12665848Y-15862984D01*
X12665848Y-15862984D02*
X12646801Y-15862984D01*
X12646801Y-15862984D02*
X12627753Y-15853460D01*
X12627753Y-15853460D02*
X12618229Y-15843936D01*
X12618229Y-15843936D02*
X12608706Y-15824888D01*
X12608706Y-15824888D02*
X12599182Y-15786793D01*
X12599182Y-15786793D02*
X12599182Y-15739174D01*
X12599182Y-15739174D02*
X12608706Y-15701079D01*
X12608706Y-15701079D02*
X12618229Y-15682031D01*
X12618229Y-15682031D02*
X12627753Y-15672508D01*
X12627753Y-15672508D02*
X12646801Y-15662984D01*
X12808706Y-15862984D02*
X12846801Y-15862984D01*
X12846801Y-15862984D02*
X12865848Y-15853460D01*
X12865848Y-15853460D02*
X12875372Y-15843936D01*
X12875372Y-15843936D02*
X12894420Y-15815365D01*
X12894420Y-15815365D02*
X12903944Y-15777269D01*
X12903944Y-15777269D02*
X12903944Y-15701079D01*
X12903944Y-15701079D02*
X12894420Y-15682031D01*
X12894420Y-15682031D02*
X12884896Y-15672508D01*
X12884896Y-15672508D02*
X12865848Y-15662984D01*
X12865848Y-15662984D02*
X12827753Y-15662984D01*
X12827753Y-15662984D02*
X12808706Y-15672508D01*
X12808706Y-15672508D02*
X12799182Y-15682031D01*
X12799182Y-15682031D02*
X12789658Y-15701079D01*
X12789658Y-15701079D02*
X12789658Y-15748698D01*
X12789658Y-15748698D02*
X12799182Y-15767746D01*
X12799182Y-15767746D02*
X12808706Y-15777269D01*
X12808706Y-15777269D02*
X12827753Y-15786793D01*
X12827753Y-15786793D02*
X12865848Y-15786793D01*
X12865848Y-15786793D02*
X12884896Y-15777269D01*
X12884896Y-15777269D02*
X12894420Y-15767746D01*
X12894420Y-15767746D02*
X12903944Y-15748698D01*
X12980134Y-15662984D02*
X12980134Y-15701079D01*
X13056325Y-15662984D02*
X13056325Y-15701079D01*
X13351563Y-15939174D02*
X13342039Y-15929650D01*
X13342039Y-15929650D02*
X13322991Y-15901079D01*
X13322991Y-15901079D02*
X13313468Y-15882031D01*
X13313468Y-15882031D02*
X13303944Y-15853460D01*
X13303944Y-15853460D02*
X13294420Y-15805841D01*
X13294420Y-15805841D02*
X13294420Y-15767746D01*
X13294420Y-15767746D02*
X13303944Y-15720127D01*
X13303944Y-15720127D02*
X13313468Y-15691555D01*
X13313468Y-15691555D02*
X13322991Y-15672508D01*
X13322991Y-15672508D02*
X13342039Y-15643936D01*
X13342039Y-15643936D02*
X13351563Y-15634412D01*
X13418229Y-15682031D02*
X13427753Y-15672508D01*
X13427753Y-15672508D02*
X13446801Y-15662984D01*
X13446801Y-15662984D02*
X13494420Y-15662984D01*
X13494420Y-15662984D02*
X13513468Y-15672508D01*
X13513468Y-15672508D02*
X13522991Y-15682031D01*
X13522991Y-15682031D02*
X13532515Y-15701079D01*
X13532515Y-15701079D02*
X13532515Y-15720127D01*
X13532515Y-15720127D02*
X13522991Y-15748698D01*
X13522991Y-15748698D02*
X13408706Y-15862984D01*
X13408706Y-15862984D02*
X13532515Y-15862984D01*
X13770610Y-15862984D02*
X13770610Y-15662984D01*
X13856325Y-15862984D02*
X13856325Y-15758222D01*
X13856325Y-15758222D02*
X13846801Y-15739174D01*
X13846801Y-15739174D02*
X13827753Y-15729650D01*
X13827753Y-15729650D02*
X13799182Y-15729650D01*
X13799182Y-15729650D02*
X13780134Y-15739174D01*
X13780134Y-15739174D02*
X13770610Y-15748698D01*
X13980134Y-15862984D02*
X13961087Y-15853460D01*
X13961087Y-15853460D02*
X13951563Y-15843936D01*
X13951563Y-15843936D02*
X13942039Y-15824888D01*
X13942039Y-15824888D02*
X13942039Y-15767746D01*
X13942039Y-15767746D02*
X13951563Y-15748698D01*
X13951563Y-15748698D02*
X13961087Y-15739174D01*
X13961087Y-15739174D02*
X13980134Y-15729650D01*
X13980134Y-15729650D02*
X14008706Y-15729650D01*
X14008706Y-15729650D02*
X14027753Y-15739174D01*
X14027753Y-15739174D02*
X14037277Y-15748698D01*
X14037277Y-15748698D02*
X14046801Y-15767746D01*
X14046801Y-15767746D02*
X14046801Y-15824888D01*
X14046801Y-15824888D02*
X14037277Y-15843936D01*
X14037277Y-15843936D02*
X14027753Y-15853460D01*
X14027753Y-15853460D02*
X14008706Y-15862984D01*
X14008706Y-15862984D02*
X13980134Y-15862984D01*
X14161087Y-15862984D02*
X14142039Y-15853460D01*
X14142039Y-15853460D02*
X14132515Y-15834412D01*
X14132515Y-15834412D02*
X14132515Y-15662984D01*
X14313468Y-15853460D02*
X14294420Y-15862984D01*
X14294420Y-15862984D02*
X14256325Y-15862984D01*
X14256325Y-15862984D02*
X14237277Y-15853460D01*
X14237277Y-15853460D02*
X14227753Y-15834412D01*
X14227753Y-15834412D02*
X14227753Y-15758222D01*
X14227753Y-15758222D02*
X14237277Y-15739174D01*
X14237277Y-15739174D02*
X14256325Y-15729650D01*
X14256325Y-15729650D02*
X14294420Y-15729650D01*
X14294420Y-15729650D02*
X14313468Y-15739174D01*
X14313468Y-15739174D02*
X14322991Y-15758222D01*
X14322991Y-15758222D02*
X14322991Y-15777269D01*
X14322991Y-15777269D02*
X14227753Y-15796317D01*
X14399182Y-15853460D02*
X14418230Y-15862984D01*
X14418230Y-15862984D02*
X14456325Y-15862984D01*
X14456325Y-15862984D02*
X14475372Y-15853460D01*
X14475372Y-15853460D02*
X14484896Y-15834412D01*
X14484896Y-15834412D02*
X14484896Y-15824888D01*
X14484896Y-15824888D02*
X14475372Y-15805841D01*
X14475372Y-15805841D02*
X14456325Y-15796317D01*
X14456325Y-15796317D02*
X14427753Y-15796317D01*
X14427753Y-15796317D02*
X14408706Y-15786793D01*
X14408706Y-15786793D02*
X14399182Y-15767746D01*
X14399182Y-15767746D02*
X14399182Y-15758222D01*
X14399182Y-15758222D02*
X14408706Y-15739174D01*
X14408706Y-15739174D02*
X14427753Y-15729650D01*
X14427753Y-15729650D02*
X14456325Y-15729650D01*
X14456325Y-15729650D02*
X14475372Y-15739174D01*
X14551563Y-15939174D02*
X14561087Y-15929650D01*
X14561087Y-15929650D02*
X14580134Y-15901079D01*
X14580134Y-15901079D02*
X14589658Y-15882031D01*
X14589658Y-15882031D02*
X14599182Y-15853460D01*
X14599182Y-15853460D02*
X14608706Y-15805841D01*
X14608706Y-15805841D02*
X14608706Y-15767746D01*
X14608706Y-15767746D02*
X14599182Y-15720127D01*
X14599182Y-15720127D02*
X14589658Y-15691555D01*
X14589658Y-15691555D02*
X14580134Y-15672508D01*
X14580134Y-15672508D02*
X14561087Y-15643936D01*
X14561087Y-15643936D02*
X14551563Y-15634412D01*
X14913468Y-15939174D02*
X14903944Y-15929650D01*
X14903944Y-15929650D02*
X14884896Y-15901079D01*
X14884896Y-15901079D02*
X14875372Y-15882031D01*
X14875372Y-15882031D02*
X14865849Y-15853460D01*
X14865849Y-15853460D02*
X14856325Y-15805841D01*
X14856325Y-15805841D02*
X14856325Y-15767746D01*
X14856325Y-15767746D02*
X14865849Y-15720127D01*
X14865849Y-15720127D02*
X14875372Y-15691555D01*
X14875372Y-15691555D02*
X14884896Y-15672508D01*
X14884896Y-15672508D02*
X14903944Y-15643936D01*
X14903944Y-15643936D02*
X14913468Y-15634412D01*
X14989658Y-15729650D02*
X14989658Y-15862984D01*
X14989658Y-15748698D02*
X14999182Y-15739174D01*
X14999182Y-15739174D02*
X15018230Y-15729650D01*
X15018230Y-15729650D02*
X15046801Y-15729650D01*
X15046801Y-15729650D02*
X15065849Y-15739174D01*
X15065849Y-15739174D02*
X15075372Y-15758222D01*
X15075372Y-15758222D02*
X15075372Y-15862984D01*
X15199182Y-15862984D02*
X15180134Y-15853460D01*
X15180134Y-15853460D02*
X15170611Y-15843936D01*
X15170611Y-15843936D02*
X15161087Y-15824888D01*
X15161087Y-15824888D02*
X15161087Y-15767746D01*
X15161087Y-15767746D02*
X15170611Y-15748698D01*
X15170611Y-15748698D02*
X15180134Y-15739174D01*
X15180134Y-15739174D02*
X15199182Y-15729650D01*
X15199182Y-15729650D02*
X15227753Y-15729650D01*
X15227753Y-15729650D02*
X15246801Y-15739174D01*
X15246801Y-15739174D02*
X15256325Y-15748698D01*
X15256325Y-15748698D02*
X15265849Y-15767746D01*
X15265849Y-15767746D02*
X15265849Y-15824888D01*
X15265849Y-15824888D02*
X15256325Y-15843936D01*
X15256325Y-15843936D02*
X15246801Y-15853460D01*
X15246801Y-15853460D02*
X15227753Y-15862984D01*
X15227753Y-15862984D02*
X15199182Y-15862984D01*
X15322992Y-15729650D02*
X15399182Y-15729650D01*
X15351563Y-15662984D02*
X15351563Y-15834412D01*
X15351563Y-15834412D02*
X15361087Y-15853460D01*
X15361087Y-15853460D02*
X15380134Y-15862984D01*
X15380134Y-15862984D02*
X15399182Y-15862984D01*
X15618230Y-15729650D02*
X15618230Y-15929650D01*
X15618230Y-15739174D02*
X15637277Y-15729650D01*
X15637277Y-15729650D02*
X15675373Y-15729650D01*
X15675373Y-15729650D02*
X15694420Y-15739174D01*
X15694420Y-15739174D02*
X15703944Y-15748698D01*
X15703944Y-15748698D02*
X15713468Y-15767746D01*
X15713468Y-15767746D02*
X15713468Y-15824888D01*
X15713468Y-15824888D02*
X15703944Y-15843936D01*
X15703944Y-15843936D02*
X15694420Y-15853460D01*
X15694420Y-15853460D02*
X15675373Y-15862984D01*
X15675373Y-15862984D02*
X15637277Y-15862984D01*
X15637277Y-15862984D02*
X15618230Y-15853460D01*
X15827753Y-15862984D02*
X15808706Y-15853460D01*
X15808706Y-15853460D02*
X15799182Y-15834412D01*
X15799182Y-15834412D02*
X15799182Y-15662984D01*
X15989658Y-15862984D02*
X15989658Y-15758222D01*
X15989658Y-15758222D02*
X15980134Y-15739174D01*
X15980134Y-15739174D02*
X15961087Y-15729650D01*
X15961087Y-15729650D02*
X15922992Y-15729650D01*
X15922992Y-15729650D02*
X15903944Y-15739174D01*
X15989658Y-15853460D02*
X15970611Y-15862984D01*
X15970611Y-15862984D02*
X15922992Y-15862984D01*
X15922992Y-15862984D02*
X15903944Y-15853460D01*
X15903944Y-15853460D02*
X15894420Y-15834412D01*
X15894420Y-15834412D02*
X15894420Y-15815365D01*
X15894420Y-15815365D02*
X15903944Y-15796317D01*
X15903944Y-15796317D02*
X15922992Y-15786793D01*
X15922992Y-15786793D02*
X15970611Y-15786793D01*
X15970611Y-15786793D02*
X15989658Y-15777269D01*
X16056325Y-15729650D02*
X16132515Y-15729650D01*
X16084896Y-15662984D02*
X16084896Y-15834412D01*
X16084896Y-15834412D02*
X16094420Y-15853460D01*
X16094420Y-15853460D02*
X16113468Y-15862984D01*
X16113468Y-15862984D02*
X16132515Y-15862984D01*
X16275373Y-15853460D02*
X16256325Y-15862984D01*
X16256325Y-15862984D02*
X16218230Y-15862984D01*
X16218230Y-15862984D02*
X16199182Y-15853460D01*
X16199182Y-15853460D02*
X16189658Y-15834412D01*
X16189658Y-15834412D02*
X16189658Y-15758222D01*
X16189658Y-15758222D02*
X16199182Y-15739174D01*
X16199182Y-15739174D02*
X16218230Y-15729650D01*
X16218230Y-15729650D02*
X16256325Y-15729650D01*
X16256325Y-15729650D02*
X16275373Y-15739174D01*
X16275373Y-15739174D02*
X16284896Y-15758222D01*
X16284896Y-15758222D02*
X16284896Y-15777269D01*
X16284896Y-15777269D02*
X16189658Y-15796317D01*
X16456325Y-15862984D02*
X16456325Y-15662984D01*
X16456325Y-15853460D02*
X16437277Y-15862984D01*
X16437277Y-15862984D02*
X16399182Y-15862984D01*
X16399182Y-15862984D02*
X16380134Y-15853460D01*
X16380134Y-15853460D02*
X16370611Y-15843936D01*
X16370611Y-15843936D02*
X16361087Y-15824888D01*
X16361087Y-15824888D02*
X16361087Y-15767746D01*
X16361087Y-15767746D02*
X16370611Y-15748698D01*
X16370611Y-15748698D02*
X16380134Y-15739174D01*
X16380134Y-15739174D02*
X16399182Y-15729650D01*
X16399182Y-15729650D02*
X16437277Y-15729650D01*
X16437277Y-15729650D02*
X16456325Y-15739174D01*
X16532515Y-15939174D02*
X16542039Y-15929650D01*
X16542039Y-15929650D02*
X16561087Y-15901079D01*
X16561087Y-15901079D02*
X16570611Y-15882031D01*
X16570611Y-15882031D02*
X16580134Y-15853460D01*
X16580134Y-15853460D02*
X16589658Y-15805841D01*
X16589658Y-15805841D02*
X16589658Y-15767746D01*
X16589658Y-15767746D02*
X16580134Y-15720127D01*
X16580134Y-15720127D02*
X16570611Y-15691555D01*
X16570611Y-15691555D02*
X16561087Y-15672508D01*
X16561087Y-15672508D02*
X16542039Y-15643936D01*
X16542039Y-15643936D02*
X16532515Y-15634412D01*
M02*
