M48
; DRILL file {KiCad 7.0.11-7.0.11~ubuntu22.04.1} date 2024年10月29日 07時47分55秒
; FORMAT={-:-/ absolute / metric / decimal}
; #@! TF.CreationDate,2024-10-29T07:47:55+09:00
; #@! TF.GenerationSoftware,Kicad,Pcbnew,7.0.11-7.0.11~ubuntu22.04.1
; #@! TF.FileFunction,Plated,1,2,PTH
FMAT,2
METRIC
; #@! TA.AperFunction,Plated,PTH,ViaDrill
T1C0.300
; #@! TA.AperFunction,Plated,PTH,ComponentDrill
T2C0.762
; #@! TA.AperFunction,Plated,PTH,ComponentDrill
T3C1.000
; #@! TA.AperFunction,Plated,PTH,ComponentDrill
T4C1.020
; #@! TA.AperFunction,Plated,PTH,ComponentDrill
T5C3.200
%
G90
G05
T1
X106.045Y-61.595
X106.045Y-87.63
X106.68Y-62.23
X106.68Y-90.17
X107.95Y-81.28
X113.03Y-101.6
X113.03Y-131.445
X125.984Y-61.595
X128.0Y-62.23
X135.89Y-62.23
X136.906Y-61.595
X182.88Y-74.93
X182.88Y-77.47
X182.88Y-82.55
X182.88Y-85.09
X182.88Y-87.63
X182.88Y-90.17
X182.88Y-95.25
X182.88Y-97.79
X182.88Y-100.33
X182.88Y-102.87
X182.88Y-107.95
X182.88Y-110.49
X182.88Y-113.03
X182.88Y-115.57
X182.88Y-120.65
X182.88Y-123.19
X193.04Y-77.47
X195.58Y-74.93
T2
X122.0Y-58.42
X124.0Y-58.42
X126.0Y-58.42
X128.0Y-58.42
T3
X113.59Y-137.16
X113.59Y-141.66
X120.09Y-137.16
X120.09Y-141.66
X129.54Y-71.12
X129.54Y-129.54
X132.08Y-71.12
X132.08Y-129.54
X134.62Y-71.12
X134.62Y-129.54
X137.16Y-71.12
X137.16Y-129.54
X139.7Y-71.12
X139.7Y-129.54
X142.24Y-71.12
X142.24Y-129.54
X144.78Y-71.12
X144.78Y-129.54
X147.32Y-71.12
X147.32Y-129.54
X149.86Y-71.12
X149.86Y-129.54
X152.4Y-71.12
X152.4Y-129.54
X154.94Y-71.12
X154.94Y-129.54
X157.48Y-71.12
X157.48Y-129.54
X160.02Y-71.12
X160.02Y-129.54
X162.56Y-71.12
X162.56Y-129.54
X165.1Y-71.12
X165.1Y-129.54
X167.64Y-71.12
X167.64Y-129.54
X170.18Y-71.12
X170.18Y-129.54
X172.72Y-71.12
X172.72Y-129.54
X175.26Y-71.12
X175.26Y-129.54
X177.8Y-71.12
X177.8Y-129.54
X185.42Y-63.5
X187.96Y-63.5
X190.5Y-63.5
X193.04Y-63.5
X195.58Y-63.5
X198.12Y-63.5
T4
X102.87Y-76.2
X102.87Y-78.74
X102.87Y-81.28
X102.87Y-83.82
X102.87Y-86.36
X102.87Y-88.9
X102.87Y-91.44
X102.87Y-93.98
X102.87Y-96.52
X102.87Y-99.06
X102.87Y-101.6
X102.87Y-104.14
X102.87Y-106.68
X102.87Y-109.22
X102.87Y-111.76
X102.87Y-114.3
X102.87Y-116.84
X102.87Y-119.38
X102.87Y-121.92
X102.87Y-124.46
X109.22Y-124.23
X111.76Y-124.23
X114.3Y-124.23
X120.65Y-76.2
X120.65Y-78.74
X120.65Y-81.28
X120.65Y-83.82
X120.65Y-86.36
X120.65Y-88.9
X120.65Y-91.44
X120.65Y-93.98
X120.65Y-96.52
X120.65Y-99.06
X120.65Y-101.6
X120.65Y-104.14
X120.65Y-106.68
X120.65Y-109.22
X120.65Y-111.76
X120.65Y-114.3
X120.65Y-116.84
X120.65Y-119.38
X120.65Y-121.92
X120.65Y-124.46
T5
X102.87Y-57.15
X102.87Y-143.51
X207.01Y-57.15
X207.01Y-143.51
M30
