G04 #@! TF.GenerationSoftware,KiCad,Pcbnew,7.0.11-7.0.11~ubuntu22.04.1*
G04 #@! TF.CreationDate,2024-10-29T07:47:49+09:00*
G04 #@! TF.ProjectId,Akashi-19,416b6173-6869-42d3-9139-2e6b69636164,rev?*
G04 #@! TF.SameCoordinates,Original*
G04 #@! TF.FileFunction,Legend,Bot*
G04 #@! TF.FilePolarity,Positive*
%FSLAX46Y46*%
G04 Gerber Fmt 4.6, Leading zero omitted, Abs format (unit mm)*
G04 Created by KiCad (PCBNEW 7.0.11-7.0.11~ubuntu22.04.1) date 2024-10-29 07:47:49*
%MOMM*%
%LPD*%
G01*
G04 APERTURE LIST*
%ADD10C,0.300000*%
%ADD11C,5.500000*%
%ADD12R,1.700000X1.700000*%
%ADD13O,1.700000X1.700000*%
%ADD14C,1.700000*%
%ADD15O,1.800000X1.800000*%
%ADD16O,1.500000X1.500000*%
%ADD17R,1.524000X1.524000*%
%ADD18C,1.524000*%
G04 APERTURE END LIST*
D10*
X196303584Y-135539638D02*
X196970251Y-134587257D01*
X197446441Y-135539638D02*
X197446441Y-133539638D01*
X197446441Y-133539638D02*
X196684536Y-133539638D01*
X196684536Y-133539638D02*
X196494060Y-133634876D01*
X196494060Y-133634876D02*
X196398822Y-133730114D01*
X196398822Y-133730114D02*
X196303584Y-133920590D01*
X196303584Y-133920590D02*
X196303584Y-134206304D01*
X196303584Y-134206304D02*
X196398822Y-134396780D01*
X196398822Y-134396780D02*
X196494060Y-134492019D01*
X196494060Y-134492019D02*
X196684536Y-134587257D01*
X196684536Y-134587257D02*
X197446441Y-134587257D01*
X194589298Y-135539638D02*
X194589298Y-134492019D01*
X194589298Y-134492019D02*
X194684536Y-134301542D01*
X194684536Y-134301542D02*
X194875012Y-134206304D01*
X194875012Y-134206304D02*
X195255965Y-134206304D01*
X195255965Y-134206304D02*
X195446441Y-134301542D01*
X194589298Y-135444400D02*
X194779774Y-135539638D01*
X194779774Y-135539638D02*
X195255965Y-135539638D01*
X195255965Y-135539638D02*
X195446441Y-135444400D01*
X195446441Y-135444400D02*
X195541679Y-135253923D01*
X195541679Y-135253923D02*
X195541679Y-135063447D01*
X195541679Y-135063447D02*
X195446441Y-134872971D01*
X195446441Y-134872971D02*
X195255965Y-134777733D01*
X195255965Y-134777733D02*
X194779774Y-134777733D01*
X194779774Y-134777733D02*
X194589298Y-134682495D01*
X193732155Y-135444400D02*
X193541679Y-135539638D01*
X193541679Y-135539638D02*
X193160727Y-135539638D01*
X193160727Y-135539638D02*
X192970250Y-135444400D01*
X192970250Y-135444400D02*
X192875012Y-135253923D01*
X192875012Y-135253923D02*
X192875012Y-135158685D01*
X192875012Y-135158685D02*
X192970250Y-134968209D01*
X192970250Y-134968209D02*
X193160727Y-134872971D01*
X193160727Y-134872971D02*
X193446441Y-134872971D01*
X193446441Y-134872971D02*
X193636917Y-134777733D01*
X193636917Y-134777733D02*
X193732155Y-134587257D01*
X193732155Y-134587257D02*
X193732155Y-134492019D01*
X193732155Y-134492019D02*
X193636917Y-134301542D01*
X193636917Y-134301542D02*
X193446441Y-134206304D01*
X193446441Y-134206304D02*
X193160727Y-134206304D01*
X193160727Y-134206304D02*
X192970250Y-134301542D01*
X192017869Y-134206304D02*
X192017869Y-136206304D01*
X192017869Y-134301542D02*
X191827393Y-134206304D01*
X191827393Y-134206304D02*
X191446440Y-134206304D01*
X191446440Y-134206304D02*
X191255964Y-134301542D01*
X191255964Y-134301542D02*
X191160726Y-134396780D01*
X191160726Y-134396780D02*
X191065488Y-134587257D01*
X191065488Y-134587257D02*
X191065488Y-135158685D01*
X191065488Y-135158685D02*
X191160726Y-135349161D01*
X191160726Y-135349161D02*
X191255964Y-135444400D01*
X191255964Y-135444400D02*
X191446440Y-135539638D01*
X191446440Y-135539638D02*
X191827393Y-135539638D01*
X191827393Y-135539638D02*
X192017869Y-135444400D01*
X190208345Y-135539638D02*
X190208345Y-133539638D01*
X190208345Y-134301542D02*
X190017869Y-134206304D01*
X190017869Y-134206304D02*
X189636916Y-134206304D01*
X189636916Y-134206304D02*
X189446440Y-134301542D01*
X189446440Y-134301542D02*
X189351202Y-134396780D01*
X189351202Y-134396780D02*
X189255964Y-134587257D01*
X189255964Y-134587257D02*
X189255964Y-135158685D01*
X189255964Y-135158685D02*
X189351202Y-135349161D01*
X189351202Y-135349161D02*
X189446440Y-135444400D01*
X189446440Y-135444400D02*
X189636916Y-135539638D01*
X189636916Y-135539638D02*
X190017869Y-135539638D01*
X190017869Y-135539638D02*
X190208345Y-135444400D01*
X187636916Y-135444400D02*
X187827392Y-135539638D01*
X187827392Y-135539638D02*
X188208345Y-135539638D01*
X188208345Y-135539638D02*
X188398821Y-135444400D01*
X188398821Y-135444400D02*
X188494059Y-135253923D01*
X188494059Y-135253923D02*
X188494059Y-134492019D01*
X188494059Y-134492019D02*
X188398821Y-134301542D01*
X188398821Y-134301542D02*
X188208345Y-134206304D01*
X188208345Y-134206304D02*
X187827392Y-134206304D01*
X187827392Y-134206304D02*
X187636916Y-134301542D01*
X187636916Y-134301542D02*
X187541678Y-134492019D01*
X187541678Y-134492019D02*
X187541678Y-134682495D01*
X187541678Y-134682495D02*
X188494059Y-134872971D01*
X186684535Y-135539638D02*
X186684535Y-134206304D01*
X186684535Y-134587257D02*
X186589297Y-134396780D01*
X186589297Y-134396780D02*
X186494059Y-134301542D01*
X186494059Y-134301542D02*
X186303583Y-134206304D01*
X186303583Y-134206304D02*
X186113106Y-134206304D01*
X185446440Y-135539638D02*
X185446440Y-134206304D01*
X185446440Y-134587257D02*
X185351202Y-134396780D01*
X185351202Y-134396780D02*
X185255964Y-134301542D01*
X185255964Y-134301542D02*
X185065488Y-134206304D01*
X185065488Y-134206304D02*
X184875011Y-134206304D01*
X184398821Y-134206304D02*
X183922631Y-135539638D01*
X183446440Y-134206304D02*
X183922631Y-135539638D01*
X183922631Y-135539638D02*
X184113107Y-136015828D01*
X184113107Y-136015828D02*
X184208345Y-136111066D01*
X184208345Y-136111066D02*
X184398821Y-136206304D01*
X181160725Y-135539638D02*
X181160725Y-133539638D01*
X181160725Y-133539638D02*
X180398820Y-133539638D01*
X180398820Y-133539638D02*
X180208344Y-133634876D01*
X180208344Y-133634876D02*
X180113106Y-133730114D01*
X180113106Y-133730114D02*
X180017868Y-133920590D01*
X180017868Y-133920590D02*
X180017868Y-134206304D01*
X180017868Y-134206304D02*
X180113106Y-134396780D01*
X180113106Y-134396780D02*
X180208344Y-134492019D01*
X180208344Y-134492019D02*
X180398820Y-134587257D01*
X180398820Y-134587257D02*
X181160725Y-134587257D01*
X179160725Y-135539638D02*
X179160725Y-134206304D01*
X179160725Y-133539638D02*
X179255963Y-133634876D01*
X179255963Y-133634876D02*
X179160725Y-133730114D01*
X179160725Y-133730114D02*
X179065487Y-133634876D01*
X179065487Y-133634876D02*
X179160725Y-133539638D01*
X179160725Y-133539638D02*
X179160725Y-133730114D01*
X176684534Y-135539638D02*
X176684534Y-133539638D01*
X176684534Y-133539638D02*
X175922629Y-133539638D01*
X175922629Y-133539638D02*
X175732153Y-133634876D01*
X175732153Y-133634876D02*
X175636915Y-133730114D01*
X175636915Y-133730114D02*
X175541677Y-133920590D01*
X175541677Y-133920590D02*
X175541677Y-134206304D01*
X175541677Y-134206304D02*
X175636915Y-134396780D01*
X175636915Y-134396780D02*
X175732153Y-134492019D01*
X175732153Y-134492019D02*
X175922629Y-134587257D01*
X175922629Y-134587257D02*
X176684534Y-134587257D01*
X174684534Y-135539638D02*
X174684534Y-134206304D01*
X174684534Y-133539638D02*
X174779772Y-133634876D01*
X174779772Y-133634876D02*
X174684534Y-133730114D01*
X174684534Y-133730114D02*
X174589296Y-133634876D01*
X174589296Y-133634876D02*
X174684534Y-133539638D01*
X174684534Y-133539638D02*
X174684534Y-133730114D01*
X172875010Y-135444400D02*
X173065486Y-135539638D01*
X173065486Y-135539638D02*
X173446439Y-135539638D01*
X173446439Y-135539638D02*
X173636915Y-135444400D01*
X173636915Y-135444400D02*
X173732153Y-135349161D01*
X173732153Y-135349161D02*
X173827391Y-135158685D01*
X173827391Y-135158685D02*
X173827391Y-134587257D01*
X173827391Y-134587257D02*
X173732153Y-134396780D01*
X173732153Y-134396780D02*
X173636915Y-134301542D01*
X173636915Y-134301542D02*
X173446439Y-134206304D01*
X173446439Y-134206304D02*
X173065486Y-134206304D01*
X173065486Y-134206304D02*
X172875010Y-134301542D01*
X171732153Y-135539638D02*
X171922629Y-135444400D01*
X171922629Y-135444400D02*
X172017867Y-135349161D01*
X172017867Y-135349161D02*
X172113105Y-135158685D01*
X172113105Y-135158685D02*
X172113105Y-134587257D01*
X172113105Y-134587257D02*
X172017867Y-134396780D01*
X172017867Y-134396780D02*
X171922629Y-134301542D01*
X171922629Y-134301542D02*
X171732153Y-134206304D01*
X171732153Y-134206304D02*
X171446438Y-134206304D01*
X171446438Y-134206304D02*
X171255962Y-134301542D01*
X171255962Y-134301542D02*
X171160724Y-134396780D01*
X171160724Y-134396780D02*
X171065486Y-134587257D01*
X171065486Y-134587257D02*
X171065486Y-135158685D01*
X171065486Y-135158685D02*
X171160724Y-135349161D01*
X171160724Y-135349161D02*
X171255962Y-135444400D01*
X171255962Y-135444400D02*
X171446438Y-135539638D01*
X171446438Y-135539638D02*
X171732153Y-135539638D01*
X168017866Y-134492019D02*
X167732152Y-134587257D01*
X167732152Y-134587257D02*
X167636914Y-134682495D01*
X167636914Y-134682495D02*
X167541676Y-134872971D01*
X167541676Y-134872971D02*
X167541676Y-135158685D01*
X167541676Y-135158685D02*
X167636914Y-135349161D01*
X167636914Y-135349161D02*
X167732152Y-135444400D01*
X167732152Y-135444400D02*
X167922628Y-135539638D01*
X167922628Y-135539638D02*
X168684533Y-135539638D01*
X168684533Y-135539638D02*
X168684533Y-133539638D01*
X168684533Y-133539638D02*
X168017866Y-133539638D01*
X168017866Y-133539638D02*
X167827390Y-133634876D01*
X167827390Y-133634876D02*
X167732152Y-133730114D01*
X167732152Y-133730114D02*
X167636914Y-133920590D01*
X167636914Y-133920590D02*
X167636914Y-134111066D01*
X167636914Y-134111066D02*
X167732152Y-134301542D01*
X167732152Y-134301542D02*
X167827390Y-134396780D01*
X167827390Y-134396780D02*
X168017866Y-134492019D01*
X168017866Y-134492019D02*
X168684533Y-134492019D01*
X166684533Y-135539638D02*
X166684533Y-134206304D01*
X166684533Y-134587257D02*
X166589295Y-134396780D01*
X166589295Y-134396780D02*
X166494057Y-134301542D01*
X166494057Y-134301542D02*
X166303581Y-134206304D01*
X166303581Y-134206304D02*
X166113104Y-134206304D01*
X164684533Y-135444400D02*
X164875009Y-135539638D01*
X164875009Y-135539638D02*
X165255962Y-135539638D01*
X165255962Y-135539638D02*
X165446438Y-135444400D01*
X165446438Y-135444400D02*
X165541676Y-135253923D01*
X165541676Y-135253923D02*
X165541676Y-134492019D01*
X165541676Y-134492019D02*
X165446438Y-134301542D01*
X165446438Y-134301542D02*
X165255962Y-134206304D01*
X165255962Y-134206304D02*
X164875009Y-134206304D01*
X164875009Y-134206304D02*
X164684533Y-134301542D01*
X164684533Y-134301542D02*
X164589295Y-134492019D01*
X164589295Y-134492019D02*
X164589295Y-134682495D01*
X164589295Y-134682495D02*
X165541676Y-134872971D01*
X162875009Y-135539638D02*
X162875009Y-134492019D01*
X162875009Y-134492019D02*
X162970247Y-134301542D01*
X162970247Y-134301542D02*
X163160723Y-134206304D01*
X163160723Y-134206304D02*
X163541676Y-134206304D01*
X163541676Y-134206304D02*
X163732152Y-134301542D01*
X162875009Y-135444400D02*
X163065485Y-135539638D01*
X163065485Y-135539638D02*
X163541676Y-135539638D01*
X163541676Y-135539638D02*
X163732152Y-135444400D01*
X163732152Y-135444400D02*
X163827390Y-135253923D01*
X163827390Y-135253923D02*
X163827390Y-135063447D01*
X163827390Y-135063447D02*
X163732152Y-134872971D01*
X163732152Y-134872971D02*
X163541676Y-134777733D01*
X163541676Y-134777733D02*
X163065485Y-134777733D01*
X163065485Y-134777733D02*
X162875009Y-134682495D01*
X161065485Y-135539638D02*
X161065485Y-133539638D01*
X161065485Y-135444400D02*
X161255961Y-135539638D01*
X161255961Y-135539638D02*
X161636914Y-135539638D01*
X161636914Y-135539638D02*
X161827390Y-135444400D01*
X161827390Y-135444400D02*
X161922628Y-135349161D01*
X161922628Y-135349161D02*
X162017866Y-135158685D01*
X162017866Y-135158685D02*
X162017866Y-134587257D01*
X162017866Y-134587257D02*
X161922628Y-134396780D01*
X161922628Y-134396780D02*
X161827390Y-134301542D01*
X161827390Y-134301542D02*
X161636914Y-134206304D01*
X161636914Y-134206304D02*
X161255961Y-134206304D01*
X161255961Y-134206304D02*
X161065485Y-134301542D01*
X160113104Y-135539638D02*
X160113104Y-133539638D01*
X160113104Y-134301542D02*
X159922628Y-134206304D01*
X159922628Y-134206304D02*
X159541675Y-134206304D01*
X159541675Y-134206304D02*
X159351199Y-134301542D01*
X159351199Y-134301542D02*
X159255961Y-134396780D01*
X159255961Y-134396780D02*
X159160723Y-134587257D01*
X159160723Y-134587257D02*
X159160723Y-135158685D01*
X159160723Y-135158685D02*
X159255961Y-135349161D01*
X159255961Y-135349161D02*
X159351199Y-135444400D01*
X159351199Y-135444400D02*
X159541675Y-135539638D01*
X159541675Y-135539638D02*
X159922628Y-135539638D01*
X159922628Y-135539638D02*
X160113104Y-135444400D01*
X158017866Y-135539638D02*
X158208342Y-135444400D01*
X158208342Y-135444400D02*
X158303580Y-135349161D01*
X158303580Y-135349161D02*
X158398818Y-135158685D01*
X158398818Y-135158685D02*
X158398818Y-134587257D01*
X158398818Y-134587257D02*
X158303580Y-134396780D01*
X158303580Y-134396780D02*
X158208342Y-134301542D01*
X158208342Y-134301542D02*
X158017866Y-134206304D01*
X158017866Y-134206304D02*
X157732151Y-134206304D01*
X157732151Y-134206304D02*
X157541675Y-134301542D01*
X157541675Y-134301542D02*
X157446437Y-134396780D01*
X157446437Y-134396780D02*
X157351199Y-134587257D01*
X157351199Y-134587257D02*
X157351199Y-135158685D01*
X157351199Y-135158685D02*
X157446437Y-135349161D01*
X157446437Y-135349161D02*
X157541675Y-135444400D01*
X157541675Y-135444400D02*
X157732151Y-135539638D01*
X157732151Y-135539638D02*
X158017866Y-135539638D01*
X155636913Y-135539638D02*
X155636913Y-134492019D01*
X155636913Y-134492019D02*
X155732151Y-134301542D01*
X155732151Y-134301542D02*
X155922627Y-134206304D01*
X155922627Y-134206304D02*
X156303580Y-134206304D01*
X156303580Y-134206304D02*
X156494056Y-134301542D01*
X155636913Y-135444400D02*
X155827389Y-135539638D01*
X155827389Y-135539638D02*
X156303580Y-135539638D01*
X156303580Y-135539638D02*
X156494056Y-135444400D01*
X156494056Y-135444400D02*
X156589294Y-135253923D01*
X156589294Y-135253923D02*
X156589294Y-135063447D01*
X156589294Y-135063447D02*
X156494056Y-134872971D01*
X156494056Y-134872971D02*
X156303580Y-134777733D01*
X156303580Y-134777733D02*
X155827389Y-134777733D01*
X155827389Y-134777733D02*
X155636913Y-134682495D01*
X154684532Y-135539638D02*
X154684532Y-134206304D01*
X154684532Y-134587257D02*
X154589294Y-134396780D01*
X154589294Y-134396780D02*
X154494056Y-134301542D01*
X154494056Y-134301542D02*
X154303580Y-134206304D01*
X154303580Y-134206304D02*
X154113103Y-134206304D01*
X152589294Y-135539638D02*
X152589294Y-133539638D01*
X152589294Y-135444400D02*
X152779770Y-135539638D01*
X152779770Y-135539638D02*
X153160723Y-135539638D01*
X153160723Y-135539638D02*
X153351199Y-135444400D01*
X153351199Y-135444400D02*
X153446437Y-135349161D01*
X153446437Y-135349161D02*
X153541675Y-135158685D01*
X153541675Y-135158685D02*
X153541675Y-134587257D01*
X153541675Y-134587257D02*
X153446437Y-134396780D01*
X153446437Y-134396780D02*
X153351199Y-134301542D01*
X153351199Y-134301542D02*
X153160723Y-134206304D01*
X153160723Y-134206304D02*
X152779770Y-134206304D01*
X152779770Y-134206304D02*
X152589294Y-134301542D01*
X151636913Y-135349161D02*
X151541675Y-135444400D01*
X151541675Y-135444400D02*
X151636913Y-135539638D01*
X151636913Y-135539638D02*
X151732151Y-135444400D01*
X151732151Y-135444400D02*
X151636913Y-135349161D01*
X151636913Y-135349161D02*
X151636913Y-135539638D01*
X149351198Y-134206304D02*
X148875008Y-135539638D01*
X148875008Y-135539638D02*
X148398817Y-134206304D01*
X146589293Y-135539638D02*
X147732150Y-135539638D01*
X147160722Y-135539638D02*
X147160722Y-133539638D01*
X147160722Y-133539638D02*
X147351198Y-133825352D01*
X147351198Y-133825352D02*
X147541674Y-134015828D01*
X147541674Y-134015828D02*
X147732150Y-134111066D01*
X145732150Y-135349161D02*
X145636912Y-135444400D01*
X145636912Y-135444400D02*
X145732150Y-135539638D01*
X145732150Y-135539638D02*
X145827388Y-135444400D01*
X145827388Y-135444400D02*
X145732150Y-135349161D01*
X145732150Y-135349161D02*
X145732150Y-135539638D01*
X144398817Y-133539638D02*
X144208340Y-133539638D01*
X144208340Y-133539638D02*
X144017864Y-133634876D01*
X144017864Y-133634876D02*
X143922626Y-133730114D01*
X143922626Y-133730114D02*
X143827388Y-133920590D01*
X143827388Y-133920590D02*
X143732150Y-134301542D01*
X143732150Y-134301542D02*
X143732150Y-134777733D01*
X143732150Y-134777733D02*
X143827388Y-135158685D01*
X143827388Y-135158685D02*
X143922626Y-135349161D01*
X143922626Y-135349161D02*
X144017864Y-135444400D01*
X144017864Y-135444400D02*
X144208340Y-135539638D01*
X144208340Y-135539638D02*
X144398817Y-135539638D01*
X144398817Y-135539638D02*
X144589293Y-135444400D01*
X144589293Y-135444400D02*
X144684531Y-135349161D01*
X144684531Y-135349161D02*
X144779769Y-135158685D01*
X144779769Y-135158685D02*
X144875007Y-134777733D01*
X144875007Y-134777733D02*
X144875007Y-134301542D01*
X144875007Y-134301542D02*
X144779769Y-133920590D01*
X144779769Y-133920590D02*
X144684531Y-133730114D01*
X144684531Y-133730114D02*
X144589293Y-133634876D01*
X144589293Y-133634876D02*
X144398817Y-133539638D01*
X142875007Y-135349161D02*
X142779769Y-135444400D01*
X142779769Y-135444400D02*
X142875007Y-135539638D01*
X142875007Y-135539638D02*
X142970245Y-135444400D01*
X142970245Y-135444400D02*
X142875007Y-135349161D01*
X142875007Y-135349161D02*
X142875007Y-135539638D01*
X141541674Y-133539638D02*
X141351197Y-133539638D01*
X141351197Y-133539638D02*
X141160721Y-133634876D01*
X141160721Y-133634876D02*
X141065483Y-133730114D01*
X141065483Y-133730114D02*
X140970245Y-133920590D01*
X140970245Y-133920590D02*
X140875007Y-134301542D01*
X140875007Y-134301542D02*
X140875007Y-134777733D01*
X140875007Y-134777733D02*
X140970245Y-135158685D01*
X140970245Y-135158685D02*
X141065483Y-135349161D01*
X141065483Y-135349161D02*
X141160721Y-135444400D01*
X141160721Y-135444400D02*
X141351197Y-135539638D01*
X141351197Y-135539638D02*
X141541674Y-135539638D01*
X141541674Y-135539638D02*
X141732150Y-135444400D01*
X141732150Y-135444400D02*
X141827388Y-135349161D01*
X141827388Y-135349161D02*
X141922626Y-135158685D01*
X141922626Y-135158685D02*
X142017864Y-134777733D01*
X142017864Y-134777733D02*
X142017864Y-134301542D01*
X142017864Y-134301542D02*
X141922626Y-133920590D01*
X141922626Y-133920590D02*
X141827388Y-133730114D01*
X141827388Y-133730114D02*
X141732150Y-133634876D01*
X141732150Y-133634876D02*
X141541674Y-133539638D01*
X196875012Y-139521542D02*
X196970251Y-139426304D01*
X196970251Y-139426304D02*
X197160727Y-139140590D01*
X197160727Y-139140590D02*
X197255965Y-138950114D01*
X197255965Y-138950114D02*
X197351203Y-138664400D01*
X197351203Y-138664400D02*
X197446441Y-138188209D01*
X197446441Y-138188209D02*
X197446441Y-137807257D01*
X197446441Y-137807257D02*
X197351203Y-137331066D01*
X197351203Y-137331066D02*
X197255965Y-137045352D01*
X197255965Y-137045352D02*
X197160727Y-136854876D01*
X197160727Y-136854876D02*
X196970251Y-136569161D01*
X196970251Y-136569161D02*
X196875012Y-136473923D01*
X194970251Y-138569161D02*
X195065489Y-138664400D01*
X195065489Y-138664400D02*
X195351203Y-138759638D01*
X195351203Y-138759638D02*
X195541679Y-138759638D01*
X195541679Y-138759638D02*
X195827394Y-138664400D01*
X195827394Y-138664400D02*
X196017870Y-138473923D01*
X196017870Y-138473923D02*
X196113108Y-138283447D01*
X196113108Y-138283447D02*
X196208346Y-137902495D01*
X196208346Y-137902495D02*
X196208346Y-137616780D01*
X196208346Y-137616780D02*
X196113108Y-137235828D01*
X196113108Y-137235828D02*
X196017870Y-137045352D01*
X196017870Y-137045352D02*
X195827394Y-136854876D01*
X195827394Y-136854876D02*
X195541679Y-136759638D01*
X195541679Y-136759638D02*
X195351203Y-136759638D01*
X195351203Y-136759638D02*
X195065489Y-136854876D01*
X195065489Y-136854876D02*
X194970251Y-136950114D01*
X194303584Y-139521542D02*
X194208346Y-139426304D01*
X194208346Y-139426304D02*
X194017870Y-139140590D01*
X194017870Y-139140590D02*
X193922632Y-138950114D01*
X193922632Y-138950114D02*
X193827394Y-138664400D01*
X193827394Y-138664400D02*
X193732156Y-138188209D01*
X193732156Y-138188209D02*
X193732156Y-137807257D01*
X193732156Y-137807257D02*
X193827394Y-137331066D01*
X193827394Y-137331066D02*
X193922632Y-137045352D01*
X193922632Y-137045352D02*
X194017870Y-136854876D01*
X194017870Y-136854876D02*
X194208346Y-136569161D01*
X194208346Y-136569161D02*
X194303584Y-136473923D01*
X191351203Y-138664400D02*
X191065489Y-138759638D01*
X191065489Y-138759638D02*
X190589298Y-138759638D01*
X190589298Y-138759638D02*
X190398822Y-138664400D01*
X190398822Y-138664400D02*
X190303584Y-138569161D01*
X190303584Y-138569161D02*
X190208346Y-138378685D01*
X190208346Y-138378685D02*
X190208346Y-138188209D01*
X190208346Y-138188209D02*
X190303584Y-137997733D01*
X190303584Y-137997733D02*
X190398822Y-137902495D01*
X190398822Y-137902495D02*
X190589298Y-137807257D01*
X190589298Y-137807257D02*
X190970251Y-137712019D01*
X190970251Y-137712019D02*
X191160727Y-137616780D01*
X191160727Y-137616780D02*
X191255965Y-137521542D01*
X191255965Y-137521542D02*
X191351203Y-137331066D01*
X191351203Y-137331066D02*
X191351203Y-137140590D01*
X191351203Y-137140590D02*
X191255965Y-136950114D01*
X191255965Y-136950114D02*
X191160727Y-136854876D01*
X191160727Y-136854876D02*
X190970251Y-136759638D01*
X190970251Y-136759638D02*
X190494060Y-136759638D01*
X190494060Y-136759638D02*
X190208346Y-136854876D01*
X188589298Y-138664400D02*
X188779774Y-138759638D01*
X188779774Y-138759638D02*
X189160727Y-138759638D01*
X189160727Y-138759638D02*
X189351203Y-138664400D01*
X189351203Y-138664400D02*
X189446441Y-138473923D01*
X189446441Y-138473923D02*
X189446441Y-137712019D01*
X189446441Y-137712019D02*
X189351203Y-137521542D01*
X189351203Y-137521542D02*
X189160727Y-137426304D01*
X189160727Y-137426304D02*
X188779774Y-137426304D01*
X188779774Y-137426304D02*
X188589298Y-137521542D01*
X188589298Y-137521542D02*
X188494060Y-137712019D01*
X188494060Y-137712019D02*
X188494060Y-137902495D01*
X188494060Y-137902495D02*
X189446441Y-138092971D01*
X187636917Y-138759638D02*
X187636917Y-137426304D01*
X187636917Y-136759638D02*
X187732155Y-136854876D01*
X187732155Y-136854876D02*
X187636917Y-136950114D01*
X187636917Y-136950114D02*
X187541679Y-136854876D01*
X187541679Y-136854876D02*
X187636917Y-136759638D01*
X187636917Y-136759638D02*
X187636917Y-136950114D01*
X186684536Y-138759638D02*
X186684536Y-137426304D01*
X186684536Y-136759638D02*
X186779774Y-136854876D01*
X186779774Y-136854876D02*
X186684536Y-136950114D01*
X186684536Y-136950114D02*
X186589298Y-136854876D01*
X186589298Y-136854876D02*
X186684536Y-136759638D01*
X186684536Y-136759638D02*
X186684536Y-136950114D01*
X184875012Y-138664400D02*
X185065488Y-138759638D01*
X185065488Y-138759638D02*
X185446441Y-138759638D01*
X185446441Y-138759638D02*
X185636917Y-138664400D01*
X185636917Y-138664400D02*
X185732155Y-138569161D01*
X185732155Y-138569161D02*
X185827393Y-138378685D01*
X185827393Y-138378685D02*
X185827393Y-137807257D01*
X185827393Y-137807257D02*
X185732155Y-137616780D01*
X185732155Y-137616780D02*
X185636917Y-137521542D01*
X185636917Y-137521542D02*
X185446441Y-137426304D01*
X185446441Y-137426304D02*
X185065488Y-137426304D01*
X185065488Y-137426304D02*
X184875012Y-137521542D01*
X184017869Y-138759638D02*
X184017869Y-136759638D01*
X183160726Y-138759638D02*
X183160726Y-137712019D01*
X183160726Y-137712019D02*
X183255964Y-137521542D01*
X183255964Y-137521542D02*
X183446440Y-137426304D01*
X183446440Y-137426304D02*
X183732155Y-137426304D01*
X183732155Y-137426304D02*
X183922631Y-137521542D01*
X183922631Y-137521542D02*
X184017869Y-137616780D01*
X182208345Y-138759638D02*
X182208345Y-137426304D01*
X182208345Y-136759638D02*
X182303583Y-136854876D01*
X182303583Y-136854876D02*
X182208345Y-136950114D01*
X182208345Y-136950114D02*
X182113107Y-136854876D01*
X182113107Y-136854876D02*
X182208345Y-136759638D01*
X182208345Y-136759638D02*
X182208345Y-136950114D01*
X179732154Y-138759638D02*
X179732154Y-136759638D01*
X179732154Y-137712019D02*
X178589297Y-137712019D01*
X178589297Y-138759638D02*
X178589297Y-136759638D01*
X177351202Y-138759638D02*
X177541678Y-138664400D01*
X177541678Y-138664400D02*
X177636916Y-138569161D01*
X177636916Y-138569161D02*
X177732154Y-138378685D01*
X177732154Y-138378685D02*
X177732154Y-137807257D01*
X177732154Y-137807257D02*
X177636916Y-137616780D01*
X177636916Y-137616780D02*
X177541678Y-137521542D01*
X177541678Y-137521542D02*
X177351202Y-137426304D01*
X177351202Y-137426304D02*
X177065487Y-137426304D01*
X177065487Y-137426304D02*
X176875011Y-137521542D01*
X176875011Y-137521542D02*
X176779773Y-137616780D01*
X176779773Y-137616780D02*
X176684535Y-137807257D01*
X176684535Y-137807257D02*
X176684535Y-138378685D01*
X176684535Y-138378685D02*
X176779773Y-138569161D01*
X176779773Y-138569161D02*
X176875011Y-138664400D01*
X176875011Y-138664400D02*
X177065487Y-138759638D01*
X177065487Y-138759638D02*
X177351202Y-138759638D01*
X175827392Y-138759638D02*
X175827392Y-137426304D01*
X175827392Y-137807257D02*
X175732154Y-137616780D01*
X175732154Y-137616780D02*
X175636916Y-137521542D01*
X175636916Y-137521542D02*
X175446440Y-137426304D01*
X175446440Y-137426304D02*
X175255963Y-137426304D01*
X174589297Y-138759638D02*
X174589297Y-137426304D01*
X174589297Y-136759638D02*
X174684535Y-136854876D01*
X174684535Y-136854876D02*
X174589297Y-136950114D01*
X174589297Y-136950114D02*
X174494059Y-136854876D01*
X174494059Y-136854876D02*
X174589297Y-136759638D01*
X174589297Y-136759638D02*
X174589297Y-136950114D01*
X172875011Y-138664400D02*
X173065487Y-138759638D01*
X173065487Y-138759638D02*
X173446440Y-138759638D01*
X173446440Y-138759638D02*
X173636916Y-138664400D01*
X173636916Y-138664400D02*
X173732154Y-138473923D01*
X173732154Y-138473923D02*
X173732154Y-137712019D01*
X173732154Y-137712019D02*
X173636916Y-137521542D01*
X173636916Y-137521542D02*
X173446440Y-137426304D01*
X173446440Y-137426304D02*
X173065487Y-137426304D01*
X173065487Y-137426304D02*
X172875011Y-137521542D01*
X172875011Y-137521542D02*
X172779773Y-137712019D01*
X172779773Y-137712019D02*
X172779773Y-137902495D01*
X172779773Y-137902495D02*
X173732154Y-138092971D01*
X171827392Y-138664400D02*
X171827392Y-138759638D01*
X171827392Y-138759638D02*
X171922630Y-138950114D01*
X171922630Y-138950114D02*
X172017868Y-139045352D01*
X169541677Y-136950114D02*
X169446439Y-136854876D01*
X169446439Y-136854876D02*
X169255963Y-136759638D01*
X169255963Y-136759638D02*
X168779772Y-136759638D01*
X168779772Y-136759638D02*
X168589296Y-136854876D01*
X168589296Y-136854876D02*
X168494058Y-136950114D01*
X168494058Y-136950114D02*
X168398820Y-137140590D01*
X168398820Y-137140590D02*
X168398820Y-137331066D01*
X168398820Y-137331066D02*
X168494058Y-137616780D01*
X168494058Y-137616780D02*
X169636915Y-138759638D01*
X169636915Y-138759638D02*
X168398820Y-138759638D01*
X167160725Y-136759638D02*
X166970248Y-136759638D01*
X166970248Y-136759638D02*
X166779772Y-136854876D01*
X166779772Y-136854876D02*
X166684534Y-136950114D01*
X166684534Y-136950114D02*
X166589296Y-137140590D01*
X166589296Y-137140590D02*
X166494058Y-137521542D01*
X166494058Y-137521542D02*
X166494058Y-137997733D01*
X166494058Y-137997733D02*
X166589296Y-138378685D01*
X166589296Y-138378685D02*
X166684534Y-138569161D01*
X166684534Y-138569161D02*
X166779772Y-138664400D01*
X166779772Y-138664400D02*
X166970248Y-138759638D01*
X166970248Y-138759638D02*
X167160725Y-138759638D01*
X167160725Y-138759638D02*
X167351201Y-138664400D01*
X167351201Y-138664400D02*
X167446439Y-138569161D01*
X167446439Y-138569161D02*
X167541677Y-138378685D01*
X167541677Y-138378685D02*
X167636915Y-137997733D01*
X167636915Y-137997733D02*
X167636915Y-137521542D01*
X167636915Y-137521542D02*
X167541677Y-137140590D01*
X167541677Y-137140590D02*
X167446439Y-136950114D01*
X167446439Y-136950114D02*
X167351201Y-136854876D01*
X167351201Y-136854876D02*
X167160725Y-136759638D01*
X165732153Y-136950114D02*
X165636915Y-136854876D01*
X165636915Y-136854876D02*
X165446439Y-136759638D01*
X165446439Y-136759638D02*
X164970248Y-136759638D01*
X164970248Y-136759638D02*
X164779772Y-136854876D01*
X164779772Y-136854876D02*
X164684534Y-136950114D01*
X164684534Y-136950114D02*
X164589296Y-137140590D01*
X164589296Y-137140590D02*
X164589296Y-137331066D01*
X164589296Y-137331066D02*
X164684534Y-137616780D01*
X164684534Y-137616780D02*
X165827391Y-138759638D01*
X165827391Y-138759638D02*
X164589296Y-138759638D01*
X162875010Y-137426304D02*
X162875010Y-138759638D01*
X163351201Y-136664400D02*
X163827391Y-138092971D01*
X163827391Y-138092971D02*
X162589296Y-138092971D01*
X197446441Y-141979638D02*
X197446441Y-139979638D01*
X196589298Y-141979638D02*
X196589298Y-140932019D01*
X196589298Y-140932019D02*
X196684536Y-140741542D01*
X196684536Y-140741542D02*
X196875012Y-140646304D01*
X196875012Y-140646304D02*
X197160727Y-140646304D01*
X197160727Y-140646304D02*
X197351203Y-140741542D01*
X197351203Y-140741542D02*
X197446441Y-140836780D01*
X195922631Y-140646304D02*
X195160727Y-140646304D01*
X195636917Y-139979638D02*
X195636917Y-141693923D01*
X195636917Y-141693923D02*
X195541679Y-141884400D01*
X195541679Y-141884400D02*
X195351203Y-141979638D01*
X195351203Y-141979638D02*
X195160727Y-141979638D01*
X194779774Y-140646304D02*
X194017870Y-140646304D01*
X194494060Y-139979638D02*
X194494060Y-141693923D01*
X194494060Y-141693923D02*
X194398822Y-141884400D01*
X194398822Y-141884400D02*
X194208346Y-141979638D01*
X194208346Y-141979638D02*
X194017870Y-141979638D01*
X193351203Y-140646304D02*
X193351203Y-142646304D01*
X193351203Y-140741542D02*
X193160727Y-140646304D01*
X193160727Y-140646304D02*
X192779774Y-140646304D01*
X192779774Y-140646304D02*
X192589298Y-140741542D01*
X192589298Y-140741542D02*
X192494060Y-140836780D01*
X192494060Y-140836780D02*
X192398822Y-141027257D01*
X192398822Y-141027257D02*
X192398822Y-141598685D01*
X192398822Y-141598685D02*
X192494060Y-141789161D01*
X192494060Y-141789161D02*
X192589298Y-141884400D01*
X192589298Y-141884400D02*
X192779774Y-141979638D01*
X192779774Y-141979638D02*
X193160727Y-141979638D01*
X193160727Y-141979638D02*
X193351203Y-141884400D01*
X191636917Y-141884400D02*
X191446441Y-141979638D01*
X191446441Y-141979638D02*
X191065489Y-141979638D01*
X191065489Y-141979638D02*
X190875012Y-141884400D01*
X190875012Y-141884400D02*
X190779774Y-141693923D01*
X190779774Y-141693923D02*
X190779774Y-141598685D01*
X190779774Y-141598685D02*
X190875012Y-141408209D01*
X190875012Y-141408209D02*
X191065489Y-141312971D01*
X191065489Y-141312971D02*
X191351203Y-141312971D01*
X191351203Y-141312971D02*
X191541679Y-141217733D01*
X191541679Y-141217733D02*
X191636917Y-141027257D01*
X191636917Y-141027257D02*
X191636917Y-140932019D01*
X191636917Y-140932019D02*
X191541679Y-140741542D01*
X191541679Y-140741542D02*
X191351203Y-140646304D01*
X191351203Y-140646304D02*
X191065489Y-140646304D01*
X191065489Y-140646304D02*
X190875012Y-140741542D01*
X189922631Y-141789161D02*
X189827393Y-141884400D01*
X189827393Y-141884400D02*
X189922631Y-141979638D01*
X189922631Y-141979638D02*
X190017869Y-141884400D01*
X190017869Y-141884400D02*
X189922631Y-141789161D01*
X189922631Y-141789161D02*
X189922631Y-141979638D01*
X189922631Y-140741542D02*
X189827393Y-140836780D01*
X189827393Y-140836780D02*
X189922631Y-140932019D01*
X189922631Y-140932019D02*
X190017869Y-140836780D01*
X190017869Y-140836780D02*
X189922631Y-140741542D01*
X189922631Y-140741542D02*
X189922631Y-140932019D01*
X187541679Y-139884400D02*
X189255964Y-142455828D01*
X185446441Y-139884400D02*
X187160726Y-142455828D01*
X183922631Y-140646304D02*
X183922631Y-142265352D01*
X183922631Y-142265352D02*
X184017869Y-142455828D01*
X184017869Y-142455828D02*
X184113107Y-142551066D01*
X184113107Y-142551066D02*
X184303584Y-142646304D01*
X184303584Y-142646304D02*
X184589298Y-142646304D01*
X184589298Y-142646304D02*
X184779774Y-142551066D01*
X183922631Y-141884400D02*
X184113107Y-141979638D01*
X184113107Y-141979638D02*
X184494060Y-141979638D01*
X184494060Y-141979638D02*
X184684536Y-141884400D01*
X184684536Y-141884400D02*
X184779774Y-141789161D01*
X184779774Y-141789161D02*
X184875012Y-141598685D01*
X184875012Y-141598685D02*
X184875012Y-141027257D01*
X184875012Y-141027257D02*
X184779774Y-140836780D01*
X184779774Y-140836780D02*
X184684536Y-140741542D01*
X184684536Y-140741542D02*
X184494060Y-140646304D01*
X184494060Y-140646304D02*
X184113107Y-140646304D01*
X184113107Y-140646304D02*
X183922631Y-140741542D01*
X182970250Y-141979638D02*
X182970250Y-140646304D01*
X182970250Y-139979638D02*
X183065488Y-140074876D01*
X183065488Y-140074876D02*
X182970250Y-140170114D01*
X182970250Y-140170114D02*
X182875012Y-140074876D01*
X182875012Y-140074876D02*
X182970250Y-139979638D01*
X182970250Y-139979638D02*
X182970250Y-140170114D01*
X182303583Y-140646304D02*
X181541679Y-140646304D01*
X182017869Y-139979638D02*
X182017869Y-141693923D01*
X182017869Y-141693923D02*
X181922631Y-141884400D01*
X181922631Y-141884400D02*
X181732155Y-141979638D01*
X181732155Y-141979638D02*
X181541679Y-141979638D01*
X180875012Y-141979638D02*
X180875012Y-139979638D01*
X180017869Y-141979638D02*
X180017869Y-140932019D01*
X180017869Y-140932019D02*
X180113107Y-140741542D01*
X180113107Y-140741542D02*
X180303583Y-140646304D01*
X180303583Y-140646304D02*
X180589298Y-140646304D01*
X180589298Y-140646304D02*
X180779774Y-140741542D01*
X180779774Y-140741542D02*
X180875012Y-140836780D01*
X178208345Y-140646304D02*
X178208345Y-141979638D01*
X179065488Y-140646304D02*
X179065488Y-141693923D01*
X179065488Y-141693923D02*
X178970250Y-141884400D01*
X178970250Y-141884400D02*
X178779774Y-141979638D01*
X178779774Y-141979638D02*
X178494059Y-141979638D01*
X178494059Y-141979638D02*
X178303583Y-141884400D01*
X178303583Y-141884400D02*
X178208345Y-141789161D01*
X177255964Y-141979638D02*
X177255964Y-139979638D01*
X177255964Y-140741542D02*
X177065488Y-140646304D01*
X177065488Y-140646304D02*
X176684535Y-140646304D01*
X176684535Y-140646304D02*
X176494059Y-140741542D01*
X176494059Y-140741542D02*
X176398821Y-140836780D01*
X176398821Y-140836780D02*
X176303583Y-141027257D01*
X176303583Y-141027257D02*
X176303583Y-141598685D01*
X176303583Y-141598685D02*
X176398821Y-141789161D01*
X176398821Y-141789161D02*
X176494059Y-141884400D01*
X176494059Y-141884400D02*
X176684535Y-141979638D01*
X176684535Y-141979638D02*
X177065488Y-141979638D01*
X177065488Y-141979638D02*
X177255964Y-141884400D01*
X175446440Y-141789161D02*
X175351202Y-141884400D01*
X175351202Y-141884400D02*
X175446440Y-141979638D01*
X175446440Y-141979638D02*
X175541678Y-141884400D01*
X175541678Y-141884400D02*
X175446440Y-141789161D01*
X175446440Y-141789161D02*
X175446440Y-141979638D01*
X173636916Y-141884400D02*
X173827392Y-141979638D01*
X173827392Y-141979638D02*
X174208345Y-141979638D01*
X174208345Y-141979638D02*
X174398821Y-141884400D01*
X174398821Y-141884400D02*
X174494059Y-141789161D01*
X174494059Y-141789161D02*
X174589297Y-141598685D01*
X174589297Y-141598685D02*
X174589297Y-141027257D01*
X174589297Y-141027257D02*
X174494059Y-140836780D01*
X174494059Y-140836780D02*
X174398821Y-140741542D01*
X174398821Y-140741542D02*
X174208345Y-140646304D01*
X174208345Y-140646304D02*
X173827392Y-140646304D01*
X173827392Y-140646304D02*
X173636916Y-140741542D01*
X172494059Y-141979638D02*
X172684535Y-141884400D01*
X172684535Y-141884400D02*
X172779773Y-141789161D01*
X172779773Y-141789161D02*
X172875011Y-141598685D01*
X172875011Y-141598685D02*
X172875011Y-141027257D01*
X172875011Y-141027257D02*
X172779773Y-140836780D01*
X172779773Y-140836780D02*
X172684535Y-140741542D01*
X172684535Y-140741542D02*
X172494059Y-140646304D01*
X172494059Y-140646304D02*
X172208344Y-140646304D01*
X172208344Y-140646304D02*
X172017868Y-140741542D01*
X172017868Y-140741542D02*
X171922630Y-140836780D01*
X171922630Y-140836780D02*
X171827392Y-141027257D01*
X171827392Y-141027257D02*
X171827392Y-141598685D01*
X171827392Y-141598685D02*
X171922630Y-141789161D01*
X171922630Y-141789161D02*
X172017868Y-141884400D01*
X172017868Y-141884400D02*
X172208344Y-141979638D01*
X172208344Y-141979638D02*
X172494059Y-141979638D01*
X170970249Y-141979638D02*
X170970249Y-140646304D01*
X170970249Y-140836780D02*
X170875011Y-140741542D01*
X170875011Y-140741542D02*
X170684535Y-140646304D01*
X170684535Y-140646304D02*
X170398820Y-140646304D01*
X170398820Y-140646304D02*
X170208344Y-140741542D01*
X170208344Y-140741542D02*
X170113106Y-140932019D01*
X170113106Y-140932019D02*
X170113106Y-141979638D01*
X170113106Y-140932019D02*
X170017868Y-140741542D01*
X170017868Y-140741542D02*
X169827392Y-140646304D01*
X169827392Y-140646304D02*
X169541678Y-140646304D01*
X169541678Y-140646304D02*
X169351201Y-140741542D01*
X169351201Y-140741542D02*
X169255963Y-140932019D01*
X169255963Y-140932019D02*
X169255963Y-141979638D01*
X166875011Y-139884400D02*
X168589296Y-142455828D01*
X166303582Y-141884400D02*
X166113106Y-141979638D01*
X166113106Y-141979638D02*
X165732154Y-141979638D01*
X165732154Y-141979638D02*
X165541677Y-141884400D01*
X165541677Y-141884400D02*
X165446439Y-141693923D01*
X165446439Y-141693923D02*
X165446439Y-141598685D01*
X165446439Y-141598685D02*
X165541677Y-141408209D01*
X165541677Y-141408209D02*
X165732154Y-141312971D01*
X165732154Y-141312971D02*
X166017868Y-141312971D01*
X166017868Y-141312971D02*
X166208344Y-141217733D01*
X166208344Y-141217733D02*
X166303582Y-141027257D01*
X166303582Y-141027257D02*
X166303582Y-140932019D01*
X166303582Y-140932019D02*
X166208344Y-140741542D01*
X166208344Y-140741542D02*
X166017868Y-140646304D01*
X166017868Y-140646304D02*
X165732154Y-140646304D01*
X165732154Y-140646304D02*
X165541677Y-140741542D01*
X163732153Y-140646304D02*
X163732153Y-141979638D01*
X164589296Y-140646304D02*
X164589296Y-141693923D01*
X164589296Y-141693923D02*
X164494058Y-141884400D01*
X164494058Y-141884400D02*
X164303582Y-141979638D01*
X164303582Y-141979638D02*
X164017867Y-141979638D01*
X164017867Y-141979638D02*
X163827391Y-141884400D01*
X163827391Y-141884400D02*
X163732153Y-141789161D01*
X162779772Y-141979638D02*
X162779772Y-140646304D01*
X162779772Y-139979638D02*
X162875010Y-140074876D01*
X162875010Y-140074876D02*
X162779772Y-140170114D01*
X162779772Y-140170114D02*
X162684534Y-140074876D01*
X162684534Y-140074876D02*
X162779772Y-139979638D01*
X162779772Y-139979638D02*
X162779772Y-140170114D01*
X161827391Y-141979638D02*
X161827391Y-139979638D01*
X161636915Y-141217733D02*
X161065486Y-141979638D01*
X161065486Y-140646304D02*
X161827391Y-141408209D01*
X159351200Y-141979638D02*
X159351200Y-140932019D01*
X159351200Y-140932019D02*
X159446438Y-140741542D01*
X159446438Y-140741542D02*
X159636914Y-140646304D01*
X159636914Y-140646304D02*
X160017867Y-140646304D01*
X160017867Y-140646304D02*
X160208343Y-140741542D01*
X159351200Y-141884400D02*
X159541676Y-141979638D01*
X159541676Y-141979638D02*
X160017867Y-141979638D01*
X160017867Y-141979638D02*
X160208343Y-141884400D01*
X160208343Y-141884400D02*
X160303581Y-141693923D01*
X160303581Y-141693923D02*
X160303581Y-141503447D01*
X160303581Y-141503447D02*
X160208343Y-141312971D01*
X160208343Y-141312971D02*
X160017867Y-141217733D01*
X160017867Y-141217733D02*
X159541676Y-141217733D01*
X159541676Y-141217733D02*
X159351200Y-141122495D01*
X158398819Y-140646304D02*
X158398819Y-141979638D01*
X158398819Y-140836780D02*
X158303581Y-140741542D01*
X158303581Y-140741542D02*
X158113105Y-140646304D01*
X158113105Y-140646304D02*
X157827390Y-140646304D01*
X157827390Y-140646304D02*
X157636914Y-140741542D01*
X157636914Y-140741542D02*
X157541676Y-140932019D01*
X157541676Y-140932019D02*
X157541676Y-141979638D01*
X155732152Y-140646304D02*
X155732152Y-141979638D01*
X156208343Y-139884400D02*
X156684533Y-141312971D01*
X156684533Y-141312971D02*
X155446438Y-141312971D01*
X153827390Y-140646304D02*
X153827390Y-142265352D01*
X153827390Y-142265352D02*
X153922628Y-142455828D01*
X153922628Y-142455828D02*
X154017866Y-142551066D01*
X154017866Y-142551066D02*
X154208343Y-142646304D01*
X154208343Y-142646304D02*
X154494057Y-142646304D01*
X154494057Y-142646304D02*
X154684533Y-142551066D01*
X153827390Y-141884400D02*
X154017866Y-141979638D01*
X154017866Y-141979638D02*
X154398819Y-141979638D01*
X154398819Y-141979638D02*
X154589295Y-141884400D01*
X154589295Y-141884400D02*
X154684533Y-141789161D01*
X154684533Y-141789161D02*
X154779771Y-141598685D01*
X154779771Y-141598685D02*
X154779771Y-141027257D01*
X154779771Y-141027257D02*
X154684533Y-140836780D01*
X154684533Y-140836780D02*
X154589295Y-140741542D01*
X154589295Y-140741542D02*
X154398819Y-140646304D01*
X154398819Y-140646304D02*
X154017866Y-140646304D01*
X154017866Y-140646304D02*
X153827390Y-140741542D01*
X152875009Y-141979638D02*
X152875009Y-140646304D01*
X152875009Y-139979638D02*
X152970247Y-140074876D01*
X152970247Y-140074876D02*
X152875009Y-140170114D01*
X152875009Y-140170114D02*
X152779771Y-140074876D01*
X152779771Y-140074876D02*
X152875009Y-139979638D01*
X152875009Y-139979638D02*
X152875009Y-140170114D01*
X152208342Y-140646304D02*
X151446438Y-140646304D01*
X151922628Y-139979638D02*
X151922628Y-141693923D01*
X151922628Y-141693923D02*
X151827390Y-141884400D01*
X151827390Y-141884400D02*
X151636914Y-141979638D01*
X151636914Y-141979638D02*
X151446438Y-141979638D01*
X150779771Y-141979638D02*
X150779771Y-139979638D01*
X149922628Y-141979638D02*
X149922628Y-140932019D01*
X149922628Y-140932019D02*
X150017866Y-140741542D01*
X150017866Y-140741542D02*
X150208342Y-140646304D01*
X150208342Y-140646304D02*
X150494057Y-140646304D01*
X150494057Y-140646304D02*
X150684533Y-140741542D01*
X150684533Y-140741542D02*
X150779771Y-140836780D01*
X148113104Y-140646304D02*
X148113104Y-141979638D01*
X148970247Y-140646304D02*
X148970247Y-141693923D01*
X148970247Y-141693923D02*
X148875009Y-141884400D01*
X148875009Y-141884400D02*
X148684533Y-141979638D01*
X148684533Y-141979638D02*
X148398818Y-141979638D01*
X148398818Y-141979638D02*
X148208342Y-141884400D01*
X148208342Y-141884400D02*
X148113104Y-141789161D01*
X147160723Y-141979638D02*
X147160723Y-139979638D01*
X147160723Y-140741542D02*
X146970247Y-140646304D01*
X146970247Y-140646304D02*
X146589294Y-140646304D01*
X146589294Y-140646304D02*
X146398818Y-140741542D01*
X146398818Y-140741542D02*
X146303580Y-140836780D01*
X146303580Y-140836780D02*
X146208342Y-141027257D01*
X146208342Y-141027257D02*
X146208342Y-141598685D01*
X146208342Y-141598685D02*
X146303580Y-141789161D01*
X146303580Y-141789161D02*
X146398818Y-141884400D01*
X146398818Y-141884400D02*
X146589294Y-141979638D01*
X146589294Y-141979638D02*
X146970247Y-141979638D01*
X146970247Y-141979638D02*
X147160723Y-141884400D01*
X143922628Y-139884400D02*
X145636913Y-142455828D01*
X143351199Y-141408209D02*
X142398818Y-141408209D01*
X143541675Y-141979638D02*
X142875009Y-139979638D01*
X142875009Y-139979638D02*
X142208342Y-141979638D01*
X141541675Y-141979638D02*
X141541675Y-139979638D01*
X141351199Y-141217733D02*
X140779770Y-141979638D01*
X140779770Y-140646304D02*
X141541675Y-141408209D01*
X139065484Y-141979638D02*
X139065484Y-140932019D01*
X139065484Y-140932019D02*
X139160722Y-140741542D01*
X139160722Y-140741542D02*
X139351198Y-140646304D01*
X139351198Y-140646304D02*
X139732151Y-140646304D01*
X139732151Y-140646304D02*
X139922627Y-140741542D01*
X139065484Y-141884400D02*
X139255960Y-141979638D01*
X139255960Y-141979638D02*
X139732151Y-141979638D01*
X139732151Y-141979638D02*
X139922627Y-141884400D01*
X139922627Y-141884400D02*
X140017865Y-141693923D01*
X140017865Y-141693923D02*
X140017865Y-141503447D01*
X140017865Y-141503447D02*
X139922627Y-141312971D01*
X139922627Y-141312971D02*
X139732151Y-141217733D01*
X139732151Y-141217733D02*
X139255960Y-141217733D01*
X139255960Y-141217733D02*
X139065484Y-141122495D01*
X138208341Y-141884400D02*
X138017865Y-141979638D01*
X138017865Y-141979638D02*
X137636913Y-141979638D01*
X137636913Y-141979638D02*
X137446436Y-141884400D01*
X137446436Y-141884400D02*
X137351198Y-141693923D01*
X137351198Y-141693923D02*
X137351198Y-141598685D01*
X137351198Y-141598685D02*
X137446436Y-141408209D01*
X137446436Y-141408209D02*
X137636913Y-141312971D01*
X137636913Y-141312971D02*
X137922627Y-141312971D01*
X137922627Y-141312971D02*
X138113103Y-141217733D01*
X138113103Y-141217733D02*
X138208341Y-141027257D01*
X138208341Y-141027257D02*
X138208341Y-140932019D01*
X138208341Y-140932019D02*
X138113103Y-140741542D01*
X138113103Y-140741542D02*
X137922627Y-140646304D01*
X137922627Y-140646304D02*
X137636913Y-140646304D01*
X137636913Y-140646304D02*
X137446436Y-140741542D01*
X136494055Y-141979638D02*
X136494055Y-139979638D01*
X135636912Y-141979638D02*
X135636912Y-140932019D01*
X135636912Y-140932019D02*
X135732150Y-140741542D01*
X135732150Y-140741542D02*
X135922626Y-140646304D01*
X135922626Y-140646304D02*
X136208341Y-140646304D01*
X136208341Y-140646304D02*
X136398817Y-140741542D01*
X136398817Y-140741542D02*
X136494055Y-140836780D01*
X134684531Y-141979638D02*
X134684531Y-140646304D01*
X134684531Y-139979638D02*
X134779769Y-140074876D01*
X134779769Y-140074876D02*
X134684531Y-140170114D01*
X134684531Y-140170114D02*
X134589293Y-140074876D01*
X134589293Y-140074876D02*
X134684531Y-139979638D01*
X134684531Y-139979638D02*
X134684531Y-140170114D01*
X133732150Y-141217733D02*
X132208341Y-141217733D01*
X130208341Y-141979638D02*
X131351198Y-141979638D01*
X130779770Y-141979638D02*
X130779770Y-139979638D01*
X130779770Y-139979638D02*
X130970246Y-140265352D01*
X130970246Y-140265352D02*
X131160722Y-140455828D01*
X131160722Y-140455828D02*
X131351198Y-140551066D01*
X129255960Y-141979638D02*
X128875008Y-141979638D01*
X128875008Y-141979638D02*
X128684531Y-141884400D01*
X128684531Y-141884400D02*
X128589293Y-141789161D01*
X128589293Y-141789161D02*
X128398817Y-141503447D01*
X128398817Y-141503447D02*
X128303579Y-141122495D01*
X128303579Y-141122495D02*
X128303579Y-140360590D01*
X128303579Y-140360590D02*
X128398817Y-140170114D01*
X128398817Y-140170114D02*
X128494055Y-140074876D01*
X128494055Y-140074876D02*
X128684531Y-139979638D01*
X128684531Y-139979638D02*
X129065484Y-139979638D01*
X129065484Y-139979638D02*
X129255960Y-140074876D01*
X129255960Y-140074876D02*
X129351198Y-140170114D01*
X129351198Y-140170114D02*
X129446436Y-140360590D01*
X129446436Y-140360590D02*
X129446436Y-140836780D01*
X129446436Y-140836780D02*
X129351198Y-141027257D01*
X129351198Y-141027257D02*
X129255960Y-141122495D01*
X129255960Y-141122495D02*
X129065484Y-141217733D01*
X129065484Y-141217733D02*
X128684531Y-141217733D01*
X128684531Y-141217733D02*
X128494055Y-141122495D01*
X128494055Y-141122495D02*
X128398817Y-141027257D01*
X128398817Y-141027257D02*
X128303579Y-140836780D01*
%LPC*%
D11*
X207010000Y-57150000D03*
X102870000Y-57150000D03*
X102870000Y-143510000D03*
X207010000Y-143510000D03*
D12*
X129540000Y-129540000D03*
D13*
X132080000Y-129540000D03*
X134620000Y-129540000D03*
X137160000Y-129540000D03*
X139700000Y-129540000D03*
X142240000Y-129540000D03*
X144780000Y-129540000D03*
X147320000Y-129540000D03*
X149860000Y-129540000D03*
X152400000Y-129540000D03*
X154940000Y-129540000D03*
X157480000Y-129540000D03*
X160020000Y-129540000D03*
X162560000Y-129540000D03*
X165100000Y-129540000D03*
X167640000Y-129540000D03*
X170180000Y-129540000D03*
X172720000Y-129540000D03*
X175260000Y-129540000D03*
X177800000Y-129540000D03*
D12*
X113590000Y-137160000D03*
D14*
X120090000Y-137160000D03*
X113590000Y-141660000D03*
X120090000Y-141660000D03*
D12*
X129540000Y-71120000D03*
D13*
X132080000Y-71120000D03*
X134620000Y-71120000D03*
X137160000Y-71120000D03*
X139700000Y-71120000D03*
X142240000Y-71120000D03*
X144780000Y-71120000D03*
X147320000Y-71120000D03*
X149860000Y-71120000D03*
X152400000Y-71120000D03*
X154940000Y-71120000D03*
X157480000Y-71120000D03*
X160020000Y-71120000D03*
X162560000Y-71120000D03*
X165100000Y-71120000D03*
X167640000Y-71120000D03*
X170180000Y-71120000D03*
X172720000Y-71120000D03*
X175260000Y-71120000D03*
X177800000Y-71120000D03*
D15*
X109035000Y-76330000D03*
D16*
X109335000Y-79360000D03*
X114185000Y-79360000D03*
D15*
X114485000Y-76330000D03*
D13*
X102870000Y-76200000D03*
X102870000Y-78740000D03*
D12*
X102870000Y-81280000D03*
D13*
X102870000Y-83820000D03*
X102870000Y-86360000D03*
X102870000Y-88900000D03*
X102870000Y-91440000D03*
D12*
X102870000Y-93980000D03*
D13*
X102870000Y-96520000D03*
X102870000Y-99060000D03*
X102870000Y-101600000D03*
X102870000Y-104140000D03*
D12*
X102870000Y-106680000D03*
D13*
X102870000Y-109220000D03*
X102870000Y-111760000D03*
X102870000Y-114300000D03*
X102870000Y-116840000D03*
D12*
X102870000Y-119380000D03*
D13*
X102870000Y-121920000D03*
X102870000Y-124460000D03*
X120650000Y-124460000D03*
X120650000Y-121920000D03*
D12*
X120650000Y-119380000D03*
D13*
X120650000Y-116840000D03*
X120650000Y-114300000D03*
X120650000Y-111760000D03*
X120650000Y-109220000D03*
D12*
X120650000Y-106680000D03*
D13*
X120650000Y-104140000D03*
X120650000Y-101600000D03*
X120650000Y-99060000D03*
X120650000Y-96520000D03*
D12*
X120650000Y-93980000D03*
D13*
X120650000Y-91440000D03*
X120650000Y-88900000D03*
X120650000Y-86360000D03*
X120650000Y-83820000D03*
D12*
X120650000Y-81280000D03*
D13*
X120650000Y-78740000D03*
X120650000Y-76200000D03*
X109220000Y-124230000D03*
D12*
X111760000Y-124230000D03*
D13*
X114300000Y-124230000D03*
D12*
X185420000Y-63500000D03*
D13*
X187960000Y-63500000D03*
X190500000Y-63500000D03*
X193040000Y-63500000D03*
X195580000Y-63500000D03*
X198120000Y-63500000D03*
D17*
X128000000Y-58420000D03*
D18*
X126000000Y-58420000D03*
X124000000Y-58420000D03*
X122000000Y-58420000D03*
%LPD*%
M02*
